Paprika-Regular.otf.ufo
<glyph name="dollar" format="1">
  <advance width="660"/>
  <unicode hex="0024"/>
  <outline>
    <contour>
      <point x="277" y="53" type="curve" name="hr00"/>
      <point x="200" y="68"/>
      <point x="143" y="124"/>
      <point x="119" y="227" type="curve"/>
      <point x="91" y="196" smooth="yes"/>
      <point x="67" y="166" smooth="yes"/>
      <point x="67" y="123" type="curve" smooth="yes"/>
      <point x="67" y="38"/>
      <point x="159" y="-6"/>
      <point x="257" y="-15" type="curve"/>
      <point x="248" y="-35"/>
      <point x="236" y="-53"/>
      <point x="220" y="-69" type="curve"/>
      <point x="223" y="-98" smooth="yes"/>
      <point x="241" y="-105" smooth="yes"/>
      <point x="254" y="-105" type="curve" smooth="yes"/>
      <point x="289" y="-105"/>
      <point x="320" y="-82"/>
      <point x="338" y="-14" type="curve"/>
      <point x="475" y="1" smooth="yes"/>
      <point x="568" y="95" smooth="yes"/>
      <point x="568" y="211" type="curve" smooth="yes"/>
      <point x="568" y="317" smooth="yes"/>
      <point x="522" y="369" smooth="yes"/>
      <point x="451" y="430" type="curve" smooth="yes"/>
      <point x="423" y="454"/>
      <point x="398" y="474"/>
      <point x="376" y="492" type="curve"/>
      <point x="383" y="616"/>
      <point x="390" y="735"/>
      <point x="399" y="808" type="curve"/>
      <point x="460" y="791"/>
      <point x="505" y="744"/>
      <point x="525" y="695" type="curve"/>
      <point x="543" y="711" smooth="yes"/>
      <point x="570" y="743" smooth="yes"/>
      <point x="570" y="780" type="curve" smooth="yes"/>
      <point x="570" y="851"/>
      <point x="496" y="886"/>
      <point x="413" y="889" type="curve"/>
      <point x="419" y="915"/>
      <point x="429" y="940"/>
      <point x="445" y="963" type="curve"/>
      <point x="438" y="977" smooth="yes"/>
      <point x="418" y="986" smooth="yes"/>
      <point x="403" y="986" type="curve" smooth="yes"/>
      <point x="366" y="986"/>
      <point x="342" y="960"/>
      <point x="330" y="883" type="curve"/>
      <point x="210" y="861" smooth="yes"/>
      <point x="129" y="782" smooth="yes"/>
      <point x="129" y="654" type="curve" smooth="yes"/>
      <point x="129" y="559" smooth="yes"/>
      <point x="181" y="501" smooth="yes"/>
      <point x="248" y="447" type="curve" smooth="yes"/>
      <point x="268" y="430"/>
      <point x="287" y="415"/>
      <point x="305" y="401" type="curve"/>
      <point x="299" y="269"/>
      <point x="292" y="143"/>
    </contour>
    <contour>
      <point x="469" y="180" type="curve" smooth="yes"/>
      <point x="469" y="98"/>
      <point x="410" y="60"/>
      <point x="350" y="51" type="curve"/>
      <point x="357" y="113"/>
      <point x="363" y="226"/>
      <point x="369" y="349" type="curve"/>
      <point x="437" y="291" smooth="yes"/>
      <point x="469" y="249" smooth="yes"/>
    </contour>
    <contour>
      <point x="222" y="684" type="curve" smooth="yes"/>
      <point x="222" y="758"/>
      <point x="267" y="802"/>
      <point x="323" y="812" type="curve"/>
      <point x="318" y="745"/>
      <point x="315" y="647"/>
      <point x="311" y="544" type="curve"/>
      <point x="242" y="599" smooth="yes"/>
      <point x="222" y="621" smooth="yes"/>
    </contour>
  </outline>
</glyph>
<glyph name="ampersand" format="1">
  <advance width="777"/>
  <unicode hex="0026"/>
  <outline>
    <contour>
      <point x="448" y="459" type="curve"/>
      <point x="451" y="467" smooth="yes"/>
      <point x="455" y="480" smooth="yes"/>
      <point x="455" y="494" type="curve" smooth="yes"/>
      <point x="455" y="516" smooth="yes"/>
      <point x="445" y="519" smooth="yes"/>
      <point x="416" y="522" type="curve" smooth="yes"/>
      <point x="273" y="538" smooth="yes"/>
      <point x="247" y="618" smooth="yes"/>
      <point x="247" y="691" type="curve" smooth="yes"/>
      <point x="247" y="752" smooth="yes"/>
      <point x="296" y="827" smooth="yes"/>
      <point x="389" y="827" type="curve" smooth="yes"/>
      <point x="482" y="827"/>
      <point x="515" y="757"/>
      <point x="529" y="692" type="curve"/>
      <point x="583" y="713" smooth="yes"/>
      <point x="604" y="731" smooth="yes"/>
      <point x="604" y="769" type="curve" smooth="yes"/>
      <point x="604" y="815" smooth="yes"/>
      <point x="555" y="887" smooth="yes"/>
      <point x="395" y="887" type="curve" smooth="yes"/>
      <point x="222" y="887" smooth="yes"/>
      <point x="142" y="791" smooth="yes"/>
      <point x="142" y="689" type="curve" smooth="yes"/>
      <point x="142" y="605"/>
      <point x="184" y="525"/>
      <point x="311" y="484" type="curve"/>
      <point x="172" y="434" smooth="yes"/>
      <point x="91" y="331" smooth="yes"/>
      <point x="91" y="215" type="curve" smooth="yes" name="hr01"/>
      <point x="91" y="113" smooth="yes"/>
      <point x="154" y="-19" smooth="yes"/>
      <point x="339" y="-19" type="curve" smooth="yes"/>
      <point x="489" y="-19" smooth="yes"/>
      <point x="643" y="81" smooth="yes"/>
      <point x="643" y="266" type="curve" smooth="yes"/>
      <point x="643" y="290"/>
      <point x="640" y="315"/>
      <point x="635" y="342" type="curve"/>
      <point x="704" y="366" smooth="yes"/>
      <point x="757" y="397" smooth="yes"/>
      <point x="757" y="451" type="curve" smooth="yes"/>
      <point x="757" y="466"/>
      <point x="754" y="484"/>
      <point x="748" y="506" type="curve"/>
      <point x="662" y="379" smooth="yes"/>
      <point x="325" y="400" smooth="yes"/>
      <point x="325" y="260" type="curve" smooth="yes"/>
      <point x="325" y="245"/>
      <point x="328" y="218"/>
      <point x="334" y="200" type="curve"/>
      <point x="366" y="259"/>
      <point x="457" y="287"/>
      <point x="547" y="314" type="curve"/>
      <point x="552" y="293" smooth="yes"/>
      <point x="554" y="274" smooth="yes"/>
      <point x="554" y="255" type="curve" smooth="yes"/>
      <point x="554" y="139" smooth="yes"/>
      <point x="467" y="55" smooth="yes"/>
      <point x="354" y="55" type="curve" smooth="yes"/>
      <point x="260" y="55" smooth="yes"/>
      <point x="202" y="133" smooth="yes"/>
      <point x="202" y="221" type="curve" smooth="yes"/>
      <point x="202" y="319"/>
      <point x="273" y="429"/>
    </contour>
  </outline>
</glyph>
<glyph name="quotesingle" format="1">
  <advance width="228"/>
  <unicode hex="0027"/>
  <outline>
    <contour>
      <point x="232" y="863" type="curve" smooth="yes"/>
      <point x="232" y="897" smooth="yes"/>
      <point x="221" y="910" smooth="yes"/>
      <point x="200" y="910" type="curve" smooth="yes" name="hr01"/>
      <point x="164" y="910"/>
      <point x="139" y="898"/>
      <point x="126" y="887" type="curve"/>
      <point x="133" y="872" smooth="yes"/>
      <point x="135" y="854" smooth="yes"/>
      <point x="135" y="835" type="curve" smooth="yes"/>
      <point x="135" y="801" smooth="yes"/>
      <point x="115" y="748" smooth="yes"/>
      <point x="115" y="693" type="curve" smooth="yes" name="hr02"/>
      <point x="115" y="649" smooth="yes"/>
      <point x="136" y="633" smooth="yes"/>
      <point x="161" y="633" type="curve" smooth="yes"/>
      <point x="179" y="633"/>
      <point x="195" y="636"/>
      <point x="212" y="647" type="curve"/>
      <point x="204" y="664" smooth="yes"/>
      <point x="200" y="682" smooth="yes"/>
      <point x="200" y="703" type="curve" smooth="yes"/>
      <point x="200" y="745" smooth="yes"/>
      <point x="232" y="827" smooth="yes"/>
    </contour>
  </outline>
</glyph>
<glyph name="parenleft" format="1">
  <advance width="407"/>
  <unicode hex="0028"/>
  <outline>
    <contour>
      <point x="487" y="876" type="curve" name="hr00"/>
      <point x="478" y="911" smooth="yes"/>
      <point x="463" y="928" smooth="yes"/>
      <point x="442" y="928" type="curve" smooth="yes"/>
      <point x="295" y="928" smooth="yes"/>
      <point x="98" y="632" smooth="yes"/>
      <point x="98" y="305" type="curve" smooth="yes"/>
      <point x="98" y="76" smooth="yes"/>
      <point x="186" y="-127" smooth="yes"/>
      <point x="322" y="-127" type="curve" smooth="yes"/>
      <point x="366" y="-127"/>
      <point x="398" y="-113"/>
      <point x="422" y="-53" type="curve"/>
      <point x="278" y="-40" smooth="yes"/>
      <point x="195" y="115" smooth="yes"/>
      <point x="195" y="351" type="curve" smooth="yes"/>
      <point x="195" y="548"/>
      <point x="282" y="800"/>
    </contour>
  </outline>
</glyph>
<glyph name="plus" format="1">
  <advance width="544"/>
  <unicode hex="002B"/>
  <outline>
    <contour>
      <point x="337" y="586" type="curve" smooth="yes"/>
      <point x="337" y="640" smooth="yes"/>
      <point x="319" y="658" smooth="yes"/>
      <point x="287" y="658" type="curve" smooth="yes"/>
      <point x="271" y="658"/>
      <point x="244" y="650"/>
      <point x="232" y="640" type="curve"/>
      <point x="244" y="615" smooth="yes"/>
      <point x="246" y="588" smooth="yes"/>
      <point x="246" y="560" type="curve" smooth="yes"/>
      <point x="246" y="539"/>
      <point x="241" y="509"/>
      <point x="236" y="476" type="curve"/>
      <point x="184" y="478" smooth="yes"/>
      <point x="131" y="482" smooth="yes"/>
      <point x="109" y="482" type="curve" smooth="yes"/>
      <point x="73" y="482" smooth="yes"/>
      <point x="49" y="464" smooth="yes"/>
      <point x="49" y="437" type="curve" smooth="yes"/>
      <point x="49" y="411"/>
      <point x="58" y="387"/>
      <point x="68" y="372" type="curve"/>
      <point x="91" y="384" smooth="yes"/>
      <point x="146" y="389" smooth="yes"/>
      <point x="174" y="389" type="curve" smooth="yes"/>
      <point x="182" y="389"/>
      <point x="200" y="389"/>
      <point x="222" y="388" type="curve"/>
      <point x="218" y="359" smooth="yes"/>
      <point x="216" y="330" smooth="yes"/>
      <point x="216" y="303" type="curve" smooth="yes" name="hr01"/>
      <point x="216" y="229" smooth="yes"/>
      <point x="240" y="205" smooth="yes"/>
      <point x="278" y="205" type="curve" smooth="yes"/>
      <point x="292" y="205"/>
      <point x="315" y="211"/>
      <point x="336" y="235" type="curve"/>
      <point x="313" y="262" smooth="yes"/>
      <point x="307" y="285" smooth="yes"/>
      <point x="307" y="319" type="curve" smooth="yes"/>
      <point x="307" y="337"/>
      <point x="309" y="361"/>
      <point x="312" y="386" type="curve"/>
      <point x="383" y="386" type="line" smooth="yes"/>
      <point x="471" y="386" smooth="yes"/>
      <point x="501" y="412" smooth="yes"/>
      <point x="501" y="442" type="curve" smooth="yes"/>
      <point x="501" y="458"/>
      <point x="499" y="478"/>
      <point x="486" y="493" type="curve"/>
      <point x="461" y="479" smooth="yes"/>
      <point x="376" y="472" smooth="yes"/>
      <point x="342" y="472" type="curve" smooth="yes"/>
      <point x="324" y="472" type="line"/>
      <point x="330" y="517" smooth="yes"/>
      <point x="337" y="560" smooth="yes"/>
    </contour>
  </outline>
</glyph>
<glyph name="period" format="1">
  <advance width="295"/>
  <unicode hex="002E"/>
  <outline>
    <contour>
      <point x="225" y="83" type="curve" smooth="yes" name="hr00"/>
      <point x="225" y="119" smooth="yes"/>
      <point x="194" y="133" smooth="yes"/>
      <point x="159" y="133" type="curve" smooth="yes"/>
      <point x="133" y="133"/>
      <point x="107" y="124"/>
      <point x="79" y="106" type="curve"/>
      <point x="74" y="79" smooth="yes"/>
      <point x="71" y="57" smooth="yes"/>
      <point x="71" y="41" type="curve" smooth="yes"/>
      <point x="71" y="4" smooth="yes"/>
      <point x="87" y="-14" smooth="yes"/>
      <point x="133" y="-14" type="curve" smooth="yes"/>
      <point x="157" y="-14"/>
      <point x="184" y="-4"/>
      <point x="212" y="14" type="curve"/>
      <point x="221" y="42" smooth="yes"/>
      <point x="225" y="66" smooth="yes"/>
    </contour>
  </outline>
</glyph>
<glyph name="slash" format="1">
  <advance width="388"/>
  <unicode hex="002F"/>
  <outline>
    <contour>
      <point x="136" y="-14" type="curve" smooth="yes" name="hr00"/>
      <point x="185" y="126" smooth="yes"/>
      <point x="234" y="520" smooth="yes"/>
      <point x="312" y="753" type="curve" smooth="yes"/>
      <point x="331" y="810"/>
      <point x="355" y="872"/>
      <point x="413" y="903" type="curve"/>
      <point x="412" y="938" smooth="yes"/>
      <point x="378" y="947" smooth="yes"/>
      <point x="360" y="947" type="curve" smooth="yes"/>
      <point x="317" y="947" smooth="yes"/>
      <point x="273" y="911" smooth="yes"/>
      <point x="233" y="798" type="curve" smooth="yes"/>
      <point x="182" y="652" smooth="yes"/>
      <point x="125" y="241" smooth="yes"/>
      <point x="50" y="29" type="curve" smooth="yes"/>
      <point x="34" y="-18"/>
      <point x="11" y="-60"/>
      <point x="-24" y="-101" type="curve"/>
      <point x="-3" y="-123" smooth="yes"/>
      <point x="21" y="-128" smooth="yes"/>
      <point x="38" y="-128" type="curve" smooth="yes"/>
      <point x="75" y="-128" smooth="yes"/>
      <point x="106" y="-100" smooth="yes"/>
    </contour>
  </outline>
</glyph>
<glyph name="zero" format="1">
  <advance width="659"/>
  <unicode hex="0030"/>
  <outline>
    <contour>
      <point x="527" y="487" type="curve" smooth="yes" name="hr00"/>
      <point x="527" y="364" smooth="yes"/>
      <point x="484" y="61" smooth="yes"/>
      <point x="320" y="61" type="curve" smooth="yes"/>
      <point x="201" y="61" smooth="yes"/>
      <point x="132" y="169" smooth="yes"/>
      <point x="132" y="388" type="curve" smooth="yes"/>
      <point x="132" y="516" smooth="yes"/>
      <point x="179" y="810" smooth="yes"/>
      <point x="338" y="810" type="curve" smooth="yes"/>
      <point x="458" y="810" smooth="yes"/>
      <point x="527" y="700" smooth="yes"/>
    </contour>
    <contour>
      <point x="278" y="-16" type="curve" smooth="yes"/>
      <point x="517" y="-16" smooth="yes"/>
      <point x="633" y="271" smooth="yes"/>
      <point x="633" y="517" type="curve" smooth="yes"/>
      <point x="633" y="722" smooth="yes"/>
      <point x="545" y="887" smooth="yes"/>
      <point x="381" y="887" type="curve" smooth="yes"/>
      <point x="142" y="887" smooth="yes"/>
      <point x="26" y="597" smooth="yes"/>
      <point x="26" y="350" type="curve" smooth="yes"/>
      <point x="26" y="145" smooth="yes"/>
      <point x="114" y="-16" smooth="yes"/>
    </contour>
  </outline>
</glyph>
<glyph name="six" format="1">
  <advance width="685"/>
  <unicode hex="0036"/>
  <outline>
    <contour>
      <point x="204" y="405" type="curve" smooth="yes" name="hr00"/>
      <point x="212" y="405" smooth="yes"/>
      <point x="261" y="437" smooth="yes"/>
      <point x="327" y="437" type="curve" smooth="yes"/>
      <point x="404" y="437" smooth="yes"/>
      <point x="464" y="388" smooth="yes"/>
      <point x="464" y="263" type="curve" smooth="yes"/>
      <point x="464" y="166" smooth="yes"/>
      <point x="408" y="61" smooth="yes"/>
      <point x="301" y="61" type="curve" smooth="yes"/>
      <point x="187" y="61" smooth="yes"/>
      <point x="146" y="167" smooth="yes"/>
      <point x="146" y="382" type="curve" smooth="yes"/>
      <point x="146" y="504" smooth="yes"/>
      <point x="210" y="800" smooth="yes"/>
      <point x="383" y="800" type="curve" smooth="yes"/>
      <point x="447" y="800"/>
      <point x="490" y="792"/>
      <point x="529" y="740" type="curve"/>
      <point x="548" y="754" smooth="yes"/>
      <point x="567" y="782" smooth="yes"/>
      <point x="567" y="805" type="curve" smooth="yes"/>
      <point x="567" y="863" smooth="yes"/>
      <point x="514" y="887" smooth="yes"/>
      <point x="432" y="887" type="curve" smooth="yes"/>
      <point x="177" y="887" smooth="yes"/>
      <point x="39" y="586" smooth="yes"/>
      <point x="39" y="336" type="curve" smooth="yes"/>
      <point x="39" y="138" smooth="yes"/>
      <point x="125" y="-16" smooth="yes"/>
      <point x="285" y="-16" type="curve" smooth="yes"/>
      <point x="503" y="-16" smooth="yes"/>
      <point x="583" y="168" smooth="yes"/>
      <point x="583" y="280" type="curve" smooth="yes"/>
      <point x="583" y="432" smooth="yes"/>
      <point x="480" y="505" smooth="yes"/>
      <point x="355" y="505" type="curve" smooth="yes"/>
      <point x="306" y="505"/>
      <point x="253" y="494"/>
      <point x="202" y="472" type="curve"/>
      <point x="193" y="456" smooth="yes"/>
      <point x="189" y="437" smooth="yes"/>
      <point x="189" y="421" type="curve" smooth="yes"/>
      <point x="189" y="408" smooth="yes"/>
      <point x="197" y="405" smooth="yes"/>
    </contour>
  </outline>
</glyph>
<glyph name="seven" format="1">
  <advance width="589"/>
  <unicode hex="0037"/>
  <outline>
    <contour>
      <point x="140" y="51" type="curve" smooth="yes" name="hr00"/>
      <point x="140" y="-3" smooth="yes"/>
      <point x="158" y="-16" smooth="yes"/>
      <point x="188" y="-16" type="curve" smooth="yes"/>
      <point x="205" y="-16"/>
      <point x="235" y="-9"/>
      <point x="270" y="20" type="curve"/>
      <point x="263" y="33" smooth="yes"/>
      <point x="260" y="47" smooth="yes"/>
      <point x="260" y="63" type="curve" smooth="yes"/>
      <point x="260" y="268"/>
      <point x="396" y="664"/>
      <point x="580" y="849" type="curve"/>
      <point x="569" y="872" smooth="yes"/>
      <point x="550" y="887" smooth="yes"/>
      <point x="525" y="887" type="curve" smooth="yes"/>
      <point x="510" y="887"/>
      <point x="499" y="880"/>
      <point x="488" y="868" type="curve"/>
      <point x="428" y="854" smooth="yes"/>
      <point x="377" y="852" smooth="yes"/>
      <point x="295" y="852" type="curve" smooth="yes"/>
      <point x="161" y="852"/>
      <point x="106" y="860"/>
      <point x="45" y="884" type="curve"/>
      <point x="44" y="873" smooth="yes"/>
      <point x="43" y="860" smooth="yes"/>
      <point x="43" y="850" type="curve" smooth="yes"/>
      <point x="43" y="763" smooth="yes"/>
      <point x="102" y="755" smooth="yes"/>
      <point x="195" y="755" type="curve" smooth="yes"/>
      <point x="236" y="755"/>
      <point x="337" y="765"/>
      <point x="425" y="789" type="curve"/>
      <point x="274" y="579" smooth="yes"/>
      <point x="140" y="223" smooth="yes"/>
    </contour>
  </outline>
</glyph>
<glyph name="semicolon" format="1">
  <advance width="295"/>
  <unicode hex="003B"/>
  <outline>
    <contour>
      <point x="250" y="599" type="curve" smooth="yes" name="hr00"/>
      <point x="250" y="635" smooth="yes"/>
      <point x="219" y="649" smooth="yes"/>
      <point x="184" y="649" type="curve" smooth="yes"/>
      <point x="158" y="649"/>
      <point x="132" y="640"/>
      <point x="104" y="622" type="curve"/>
      <point x="99" y="595" smooth="yes"/>
      <point x="96" y="573" smooth="yes"/>
      <point x="96" y="557" type="curve" smooth="yes"/>
      <point x="96" y="520" smooth="yes"/>
      <point x="112" y="502" smooth="yes"/>
      <point x="158" y="502" type="curve" smooth="yes"/>
      <point x="182" y="502"/>
      <point x="209" y="512"/>
      <point x="237" y="530" type="curve"/>
      <point x="246" y="558" smooth="yes"/>
      <point x="250" y="582" smooth="yes"/>
    </contour>
    <contour>
      <point x="7" y="-88" type="curve"/>
      <point x="6" y="-97" smooth="yes"/>
      <point x="6" y="-103" smooth="yes"/>
      <point x="6" y="-109" type="curve" smooth="yes"/>
      <point x="6" y="-131" smooth="yes"/>
      <point x="21" y="-137" smooth="yes"/>
      <point x="40" y="-137" type="curve" smooth="yes"/>
      <point x="137" y="-137" smooth="yes"/>
      <point x="221" y="-33" smooth="yes"/>
      <point x="221" y="61" type="curve" smooth="yes"/>
      <point x="221" y="109" smooth="yes"/>
      <point x="204" y="133" smooth="yes"/>
      <point x="167" y="133" type="curve" smooth="yes"/>
      <point x="132" y="133"/>
      <point x="105" y="121"/>
      <point x="73" y="96" type="curve"/>
      <point x="96" y="77" smooth="yes"/>
      <point x="106" y="46" smooth="yes"/>
      <point x="106" y="16" type="curve" smooth="yes"/>
      <point x="106" y="-37" smooth="yes"/>
      <point x="75" y="-89" smooth="yes"/>
      <point x="22" y="-89" type="curve" smooth="yes"/>
      <point x="17" y="-89"/>
      <point x="12" y="-89"/>
    </contour>
  </outline>
</glyph>
<glyph name="equal" format="1">
  <advance width="544"/>
  <unicode hex="003D"/>
  <outline>
    <contour>
      <point x="49" y="315" type="curve" smooth="yes"/>
      <point x="49" y="289"/>
      <point x="58" y="265"/>
      <point x="68" y="250" type="curve"/>
      <point x="91" y="262" smooth="yes"/>
      <point x="146" y="267" smooth="yes"/>
      <point x="174" y="267" type="curve" smooth="yes" name="hr01"/>
      <point x="203" y="267" smooth="yes"/>
      <point x="347" y="264" smooth="yes"/>
      <point x="383" y="264" type="curve" smooth="yes"/>
      <point x="471" y="264" smooth="yes"/>
      <point x="501" y="290" smooth="yes"/>
      <point x="501" y="320" type="curve" smooth="yes"/>
      <point x="501" y="336"/>
      <point x="499" y="356"/>
      <point x="486" y="371" type="curve"/>
      <point x="461" y="357" smooth="yes"/>
      <point x="376" y="350" smooth="yes"/>
      <point x="342" y="350" type="curve" smooth="yes"/>
      <point x="296" y="350" smooth="yes"/>
      <point x="150" y="360" smooth="yes"/>
      <point x="109" y="360" type="curve" smooth="yes"/>
      <point x="73" y="360" smooth="yes"/>
      <point x="49" y="342" smooth="yes"/>
    </contour>
    <contour>
      <point x="49" y="560" type="curve" smooth="yes"/>
      <point x="49" y="533"/>
      <point x="58" y="509"/>
      <point x="68" y="494" type="curve"/>
      <point x="91" y="506" smooth="yes"/>
      <point x="146" y="511" smooth="yes"/>
      <point x="174" y="511" type="curve" smooth="yes"/>
      <point x="203" y="511" smooth="yes"/>
      <point x="347" y="508" smooth="yes"/>
      <point x="383" y="508" type="curve" smooth="yes"/>
      <point x="471" y="508" smooth="yes"/>
      <point x="501" y="534" smooth="yes"/>
      <point x="501" y="564" type="curve" smooth="yes"/>
      <point x="501" y="581"/>
      <point x="499" y="600"/>
      <point x="486" y="615" type="curve"/>
      <point x="461" y="601" smooth="yes"/>
      <point x="376" y="594" smooth="yes"/>
      <point x="342" y="594" type="curve" smooth="yes"/>
      <point x="296" y="594" smooth="yes"/>
      <point x="150" y="604" smooth="yes"/>
      <point x="109" y="604" type="curve" smooth="yes"/>
      <point x="73" y="604" smooth="yes"/>
      <point x="49" y="586" smooth="yes"/>
    </contour>
  </outline>
</glyph>
<glyph name="greater" format="1">
  <advance width="544"/>
  <unicode hex="003E"/>
  <outline>
    <contour>
      <point x="86" y="292" type="curve" name="hr00"/>
      <point x="88" y="261" smooth="yes"/>
      <point x="101" y="210" smooth="yes"/>
      <point x="142" y="210" type="curve" smooth="yes"/>
      <point x="155" y="210" smooth="yes"/>
      <point x="168" y="215" smooth="yes"/>
      <point x="182" y="224" type="curve" smooth="yes"/>
      <point x="262" y="278"/>
      <point x="421" y="411"/>
      <point x="519" y="428" type="curve"/>
      <point x="519" y="479" smooth="yes"/>
      <point x="475" y="510" smooth="yes"/>
      <point x="431" y="530" type="curve" smooth="yes"/>
      <point x="314" y="584"/>
      <point x="170" y="627"/>
      <point x="133" y="679" type="curve"/>
      <point x="113" y="666" smooth="yes"/>
      <point x="84" y="639" smooth="yes"/>
      <point x="84" y="610" type="curve" smooth="yes"/>
      <point x="84" y="591" smooth="yes"/>
      <point x="98" y="574" smooth="yes"/>
      <point x="122" y="562" type="curve" smooth="yes"/>
      <point x="178" y="535"/>
      <point x="301" y="503"/>
      <point x="382" y="463" type="curve"/>
      <point x="276" y="391"/>
      <point x="151" y="297"/>
    </contour>
  </outline>
</glyph>
<glyph name="question" format="1">
  <advance width="496"/>
  <unicode hex="003F"/>
  <outline>
    <contour>
      <point x="484" y="692" type="curve" smooth="yes" name="hr00"/>
      <point x="484" y="815" smooth="yes"/>
      <point x="396" y="887" smooth="yes"/>
      <point x="251" y="887" type="curve" smooth="yes"/>
      <point x="138" y="887" smooth="yes"/>
      <point x="43" y="831" smooth="yes"/>
      <point x="43" y="743" type="curve" smooth="yes"/>
      <point x="43" y="703"/>
      <point x="74" y="669"/>
      <point x="124" y="647" type="curve"/>
      <point x="124" y="750" smooth="yes"/>
      <point x="156" y="817" smooth="yes"/>
      <point x="245" y="817" type="curve" smooth="yes"/>
      <point x="324" y="817" smooth="yes"/>
      <point x="367" y="749" smooth="yes"/>
      <point x="367" y="675" type="curve" smooth="yes"/>
      <point x="367" y="551"/>
      <point x="231" y="344"/>
      <point x="171" y="267" type="curve"/>
      <point x="180" y="249" smooth="yes"/>
      <point x="194" y="237" smooth="yes"/>
      <point x="215" y="237" type="curve" smooth="yes"/>
      <point x="233" y="237" smooth="yes"/>
      <point x="249" y="252" smooth="yes"/>
      <point x="265" y="273" type="curve" smooth="yes"/>
      <point x="353" y="383" smooth="yes"/>
      <point x="484" y="566" smooth="yes"/>
    </contour>
    <contour>
      <point x="279" y="83" type="curve" smooth="yes"/>
      <point x="279" y="119" smooth="yes"/>
      <point x="249" y="133" smooth="yes"/>
      <point x="213" y="133" type="curve" smooth="yes"/>
      <point x="188" y="133"/>
      <point x="162" y="124"/>
      <point x="133" y="106" type="curve"/>
      <point x="128" y="79" smooth="yes"/>
      <point x="125" y="57" smooth="yes"/>
      <point x="125" y="41" type="curve" smooth="yes"/>
      <point x="125" y="4" smooth="yes"/>
      <point x="142" y="-14" smooth="yes"/>
      <point x="188" y="-14" type="curve" smooth="yes"/>
      <point x="212" y="-14"/>
      <point x="239" y="-4"/>
      <point x="267" y="14" type="curve"/>
      <point x="275" y="42" smooth="yes"/>
      <point x="279" y="66" smooth="yes"/>
    </contour>
  </outline>
</glyph>
<glyph name="C" format="1">
  <advance width="608"/>
  <unicode hex="0043"/>
  <outline>
    <contour>
      <point x="463" y="887" type="curve" smooth="yes" name="hr00"/>
      <point x="208" y="887" smooth="yes"/>
      <point x="78" y="586" smooth="yes"/>
      <point x="78" y="336" type="curve" smooth="yes"/>
      <point x="78" y="138" smooth="yes"/>
      <point x="161" y="-21" smooth="yes"/>
      <point x="365" y="-21" type="curve" smooth="yes"/>
      <point x="478" y="-21" smooth="yes"/>
      <point x="584" y="48" smooth="yes"/>
      <point x="584" y="117" type="curve" smooth="yes"/>
      <point x="584" y="142"/>
      <point x="576" y="167"/>
      <point x="559" y="186" type="curve"/>
      <point x="528" y="96" smooth="yes"/>
      <point x="467" y="49" smooth="yes"/>
      <point x="393" y="49" type="curve" smooth="yes"/>
      <point x="253" y="49" smooth="yes"/>
      <point x="186" y="170" smooth="yes"/>
      <point x="186" y="382" type="curve" smooth="yes"/>
      <point x="186" y="504" smooth="yes"/>
      <point x="228" y="810" smooth="yes"/>
      <point x="411" y="810" type="curve" smooth="yes"/>
      <point x="493" y="810"/>
      <point x="536" y="762"/>
      <point x="567" y="693" type="curve"/>
      <point x="588" y="712" smooth="yes"/>
      <point x="618" y="738" smooth="yes"/>
      <point x="618" y="793" type="curve" smooth="yes"/>
      <point x="618" y="855" smooth="yes"/>
      <point x="550" y="887" smooth="yes"/>
    </contour>
  </outline>
</glyph>
<glyph name="D" format="1">
  <advance width="730"/>
  <unicode hex="0044"/>
  <outline>
    <contour>
      <point x="283" y="-11" type="curve" smooth="yes"/>
      <point x="533" y="-11" smooth="yes"/>
      <point x="691" y="253" smooth="yes"/>
      <point x="691" y="559" type="curve" smooth="yes"/>
      <point x="691" y="802" smooth="yes"/>
      <point x="568" y="880" smooth="yes"/>
      <point x="373" y="880" type="curve" smooth="yes"/>
      <point x="309" y="880"/>
      <point x="237" y="871"/>
      <point x="159" y="854" type="curve"/>
      <point x="167" y="830" smooth="yes"/>
      <point x="174" y="778" smooth="yes"/>
      <point x="174" y="750" type="curve" smooth="yes"/>
      <point x="174" y="575" smooth="yes"/>
      <point x="98" y="256" smooth="yes"/>
      <point x="98" y="116" type="curve" smooth="yes" name="hr01"/>
      <point x="98" y="27" smooth="yes"/>
      <point x="150" y="-11" smooth="yes"/>
    </contour>
    <contour>
      <point x="207" y="160" type="curve" smooth="yes"/>
      <point x="207" y="350"/>
      <point x="288" y="692"/>
      <point x="288" y="812" type="curve" name="hr02"/>
      <point x="315" y="817" smooth="yes"/>
      <point x="340" y="819" smooth="yes"/>
      <point x="364" y="819" type="curve" smooth="yes"/>
      <point x="528" y="819" smooth="yes"/>
      <point x="586" y="746" smooth="yes"/>
      <point x="586" y="505" type="curve" smooth="yes"/>
      <point x="586" y="331" smooth="yes"/>
      <point x="516" y="59" smooth="yes"/>
      <point x="312" y="59" type="curve" smooth="yes"/>
      <point x="269" y="59"/>
      <point x="239" y="70"/>
      <point x="215" y="85" type="curve"/>
      <point x="210" y="104" smooth="yes"/>
      <point x="207" y="127" smooth="yes"/>
    </contour>
  </outline>
</glyph>
<glyph name="E" format="1">
  <advance width="602"/>
  <unicode hex="0045"/>
  <outline>
    <contour>
      <point x="369" y="398" type="curve" smooth="yes"/>
      <point x="444" y="398"/>
      <point x="499" y="403"/>
      <point x="507" y="512" type="curve"/>
      <point x="457" y="486"/>
      <point x="352" y="480"/>
      <point x="251" y="479" type="curve"/>
      <point x="272" y="605"/>
      <point x="293" y="730"/>
      <point x="293" y="798" type="curve"/>
      <point x="370" y="786" smooth="yes"/>
      <point x="453" y="776" smooth="yes"/>
      <point x="528" y="776" type="curve" smooth="yes"/>
      <point x="598" y="776"/>
      <point x="636" y="793"/>
      <point x="643" y="884" type="curve" name="hr01"/>
      <point x="609" y="868" smooth="yes"/>
      <point x="550" y="865" smooth="yes"/>
      <point x="483" y="865" type="curve" smooth="yes" name="hr02"/>
      <point x="430" y="865" smooth="yes"/>
      <point x="373" y="867" smooth="yes"/>
      <point x="321" y="867" type="curve" smooth="yes"/>
      <point x="262" y="867"/>
      <point x="196" y="864"/>
      <point x="165" y="839" type="curve"/>
      <point x="173" y="815" smooth="yes"/>
      <point x="180" y="769" smooth="yes"/>
      <point x="180" y="741" type="curve" smooth="yes"/>
      <point x="180" y="666"/>
      <point x="167" y="573"/>
      <point x="152" y="478" type="curve"/>
      <point x="104" y="474"/>
      <point x="96" y="460"/>
      <point x="90" y="413" type="curve"/>
      <point x="108" y="413"/>
      <point x="125" y="413"/>
      <point x="141" y="412" type="curve"/>
      <point x="119" y="285" smooth="yes"/>
      <point x="96" y="162" smooth="yes"/>
      <point x="96" y="89" type="curve" smooth="yes" name="hr03"/>
      <point x="96" y="20" smooth="yes"/>
      <point x="125" y="-8" smooth="yes"/>
      <point x="168" y="-8" type="curve" smooth="yes"/>
      <point x="182" y="-8"/>
      <point x="202" y="-3"/>
      <point x="222" y="11" type="curve" name="hr04"/>
      <point x="292" y="1" smooth="yes"/>
      <point x="379" y="-10" smooth="yes"/>
      <point x="424" y="-10" type="curve" smooth="yes"/>
      <point x="522" y="-10"/>
      <point x="577" y="-5"/>
      <point x="585" y="105" type="curve"/>
      <point x="547" y="85" smooth="yes"/>
      <point x="451" y="79" smooth="yes"/>
      <point x="347" y="79" type="curve" smooth="yes" name="hr05"/>
      <point x="298" y="79"/>
      <point x="250" y="81"/>
      <point x="209" y="83" type="curve"/>
      <point x="208" y="92" smooth="yes"/>
      <point x="208" y="102" smooth="yes"/>
      <point x="208" y="112" type="curve" smooth="yes"/>
      <point x="208" y="191"/>
      <point x="222" y="298"/>
      <point x="239" y="407" type="curve"/>
      <point x="288" y="403" smooth="yes"/>
      <point x="327" y="398" smooth="yes"/>
    </contour>
  </outline>
</glyph>
<glyph name="F" format="1">
  <advance width="570"/>
  <unicode hex="0046"/>
  <outline>
    <contour>
      <point x="293" y="798" type="curve"/>
      <point x="362" y="786" smooth="yes"/>
      <point x="436" y="776" smooth="yes"/>
      <point x="504" y="776" type="curve" smooth="yes"/>
      <point x="573" y="776"/>
      <point x="612" y="793"/>
      <point x="619" y="884" type="curve" name="hr01"/>
      <point x="587" y="868" smooth="yes"/>
      <point x="532" y="865" smooth="yes"/>
      <point x="470" y="865" type="curve" smooth="yes" name="hr02"/>
      <point x="420" y="865" smooth="yes"/>
      <point x="368" y="867" smooth="yes"/>
      <point x="319" y="867" type="curve" smooth="yes"/>
      <point x="262" y="867"/>
      <point x="196" y="864"/>
      <point x="165" y="839" type="curve"/>
      <point x="173" y="815" smooth="yes"/>
      <point x="180" y="769" smooth="yes"/>
      <point x="180" y="741" type="curve" smooth="yes"/>
      <point x="180" y="672"/>
      <point x="167" y="575"/>
      <point x="153" y="478" type="curve"/>
      <point x="104" y="474"/>
      <point x="96" y="460"/>
      <point x="90" y="413" type="curve"/>
      <point x="109" y="413"/>
      <point x="126" y="413"/>
      <point x="142" y="412" type="curve"/>
      <point x="124" y="299" smooth="yes"/>
      <point x="106" y="185" smooth="yes"/>
      <point x="106" y="125" type="curve" smooth="yes" name="hr03"/>
      <point x="106" y="24" smooth="yes"/>
      <point x="137" y="-7" smooth="yes"/>
      <point x="184" y="-7" type="curve" smooth="yes"/>
      <point x="200" y="-7"/>
      <point x="228" y="0"/>
      <point x="253" y="29" type="curve"/>
      <point x="220" y="65" smooth="yes"/>
      <point x="214" y="114" smooth="yes"/>
      <point x="214" y="166" type="curve" smooth="yes"/>
      <point x="214" y="233"/>
      <point x="225" y="319"/>
      <point x="238" y="407" type="curve"/>
      <point x="288" y="403" smooth="yes"/>
      <point x="327" y="398" smooth="yes"/>
      <point x="369" y="398" type="curve" smooth="yes"/>
      <point x="444" y="398"/>
      <point x="499" y="403"/>
      <point x="507" y="512" type="curve"/>
      <point x="456" y="486"/>
      <point x="351" y="480"/>
      <point x="250" y="479" type="curve"/>
      <point x="270" y="603"/>
      <point x="292" y="724"/>
    </contour>
  </outline>
</glyph>
<glyph name="G" format="1">
  <advance width="689"/>
  <unicode hex="0047"/>
  <outline>
    <contour>
      <point x="463" y="887" type="curve" smooth="yes"/>
      <point x="208" y="887" smooth="yes"/>
      <point x="78" y="586" smooth="yes"/>
      <point x="78" y="336" type="curve" smooth="yes"/>
      <point x="78" y="138" smooth="yes"/>
      <point x="161" y="-21" smooth="yes"/>
      <point x="319" y="-21" type="curve" smooth="yes"/>
      <point x="399" y="-21"/>
      <point x="469" y="18"/>
      <point x="519" y="70" type="curve"/>
      <point x="524" y="13" smooth="yes"/>
      <point x="547" y="-6" smooth="yes"/>
      <point x="581" y="-6" type="curve" smooth="yes" name="hr01"/>
      <point x="595" y="-6"/>
      <point x="620" y="0"/>
      <point x="641" y="24" type="curve"/>
      <point x="618" y="51" smooth="yes"/>
      <point x="611" y="75" smooth="yes"/>
      <point x="611" y="109" type="curve" smooth="yes"/>
      <point x="611" y="180" smooth="yes"/>
      <point x="645" y="316" smooth="yes"/>
      <point x="645" y="377" type="curve" smooth="yes" name="hr02"/>
      <point x="645" y="435" smooth="yes"/>
      <point x="626" y="454" smooth="yes"/>
      <point x="590" y="454" type="curve" smooth="yes"/>
      <point x="574" y="454"/>
      <point x="545" y="446"/>
      <point x="532" y="435" type="curve"/>
      <point x="544" y="409" smooth="yes"/>
      <point x="547" y="380" smooth="yes"/>
      <point x="547" y="349" type="curve" smooth="yes"/>
      <point x="547" y="301"/>
      <point x="528" y="222"/>
      <point x="521" y="144" type="curve"/>
      <point x="480" y="86" smooth="yes"/>
      <point x="417" y="49" smooth="yes"/>
      <point x="350" y="49" type="curve" smooth="yes"/>
      <point x="253" y="49" smooth="yes"/>
      <point x="186" y="170" smooth="yes"/>
      <point x="186" y="382" type="curve" smooth="yes"/>
      <point x="186" y="504" smooth="yes"/>
      <point x="228" y="810" smooth="yes"/>
      <point x="411" y="810" type="curve" smooth="yes"/>
      <point x="493" y="810"/>
      <point x="536" y="762"/>
      <point x="567" y="693" type="curve"/>
      <point x="588" y="712" smooth="yes"/>
      <point x="618" y="738" smooth="yes"/>
      <point x="618" y="793" type="curve" smooth="yes"/>
      <point x="618" y="855" smooth="yes"/>
      <point x="550" y="887" smooth="yes"/>
    </contour>
  </outline>
</glyph>
<glyph name="I" format="1">
  <advance width="332"/>
  <unicode hex="0049"/>
  <outline>
    <contour>
      <point x="207" y="166" type="curve" smooth="yes"/>
      <point x="207" y="352" smooth="yes"/>
      <point x="284" y="661" smooth="yes"/>
      <point x="284" y="783" type="curve" smooth="yes" name="hr01"/>
      <point x="284" y="862" smooth="yes"/>
      <point x="260" y="889" smooth="yes"/>
      <point x="215" y="889" type="curve" smooth="yes"/>
      <point x="196" y="889"/>
      <point x="163" y="879"/>
      <point x="148" y="866" type="curve"/>
      <point x="168" y="826" smooth="yes"/>
      <point x="169" y="779" smooth="yes"/>
      <point x="169" y="731" type="curve" smooth="yes"/>
      <point x="169" y="563" smooth="yes"/>
      <point x="98" y="246" smooth="yes"/>
      <point x="98" y="125" type="curve" smooth="yes" name="hr02"/>
      <point x="98" y="24" smooth="yes"/>
      <point x="129" y="-7" smooth="yes"/>
      <point x="176" y="-7" type="curve" smooth="yes"/>
      <point x="192" y="-7"/>
      <point x="220" y="0"/>
      <point x="245" y="29" type="curve"/>
      <point x="212" y="65" smooth="yes"/>
      <point x="207" y="114" smooth="yes"/>
    </contour>
  </outline>
</glyph>
<glyph name="K" format="1">
  <advance width="632"/>
  <unicode hex="004B"/>
  <outline>
    <contour>
      <point x="207" y="166" type="curve" smooth="yes"/>
      <point x="207" y="218"/>
      <point x="213" y="281"/>
      <point x="222" y="346" type="curve"/>
      <point x="241" y="363"/>
      <point x="262" y="383"/>
      <point x="283" y="403" type="curve"/>
      <point x="342" y="282" smooth="yes"/>
      <point x="429" y="99" smooth="yes"/>
      <point x="458" y="57" type="curve" smooth="yes"/>
      <point x="498" y="-2" smooth="yes"/>
      <point x="527" y="-10" smooth="yes"/>
      <point x="553" y="-10" type="curve" smooth="yes"/>
      <point x="573" y="-10"/>
      <point x="622" y="3"/>
      <point x="632" y="74" type="curve"/>
      <point x="587" y="81" smooth="yes"/>
      <point x="550" y="114" smooth="yes"/>
      <point x="523" y="151" type="curve" smooth="yes"/>
      <point x="483" y="208"/>
      <point x="398" y="385"/>
      <point x="354" y="472" type="curve"/>
      <point x="504" y="626" smooth="yes"/>
      <point x="661" y="810" smooth="yes"/>
      <point x="661" y="833" type="curve" smooth="yes"/>
      <point x="661" y="859"/>
      <point x="626" y="879"/>
      <point x="571" y="879" type="curve"/>
      <point x="558" y="828"/>
      <point x="426" y="629"/>
      <point x="236" y="440" type="curve"/>
      <point x="258" y="577" smooth="yes"/>
      <point x="284" y="712" smooth="yes"/>
      <point x="284" y="783" type="curve" smooth="yes" name="hr01"/>
      <point x="284" y="862" smooth="yes"/>
      <point x="260" y="889" smooth="yes"/>
      <point x="215" y="889" type="curve" smooth="yes"/>
      <point x="196" y="889"/>
      <point x="163" y="879"/>
      <point x="148" y="866" type="curve"/>
      <point x="168" y="826" smooth="yes"/>
      <point x="169" y="779" smooth="yes"/>
      <point x="169" y="731" type="curve" smooth="yes"/>
      <point x="169" y="563" smooth="yes"/>
      <point x="98" y="246" smooth="yes"/>
      <point x="98" y="125" type="curve" smooth="yes" name="hr02"/>
      <point x="98" y="24" smooth="yes"/>
      <point x="129" y="-7" smooth="yes"/>
      <point x="176" y="-7" type="curve" smooth="yes"/>
      <point x="192" y="-7"/>
      <point x="220" y="0"/>
      <point x="245" y="29" type="curve"/>
      <point x="212" y="65" smooth="yes"/>
      <point x="207" y="114" smooth="yes"/>
    </contour>
  </outline>
</glyph>
<glyph name="N" format="1">
  <advance width="769"/>
  <unicode hex="004E"/>
  <outline>
    <contour>
      <point x="644" y="166" type="curve" smooth="yes" name="hr00"/>
      <point x="644" y="352" smooth="yes"/>
      <point x="721" y="661" smooth="yes"/>
      <point x="721" y="783" type="curve" smooth="yes"/>
      <point x="721" y="862" smooth="yes"/>
      <point x="702" y="889" smooth="yes"/>
      <point x="665" y="889" type="curve" smooth="yes"/>
      <point x="649" y="889"/>
      <point x="617" y="879"/>
      <point x="605" y="866" type="curve"/>
      <point x="625" y="826" smooth="yes"/>
      <point x="626" y="779" smooth="yes"/>
      <point x="626" y="731" type="curve" smooth="yes"/>
      <point x="626" y="584"/>
      <point x="572" y="325"/>
      <point x="558" y="180" type="curve"/>
      <point x="469" y="369" smooth="yes"/>
      <point x="400" y="676" smooth="yes"/>
      <point x="340" y="793" type="curve" smooth="yes"/>
      <point x="301" y="869" smooth="yes"/>
      <point x="270" y="889" smooth="yes"/>
      <point x="213" y="889" type="curve" smooth="yes"/>
      <point x="184" y="889"/>
      <point x="154" y="878"/>
      <point x="148" y="866" type="curve"/>
      <point x="168" y="826" smooth="yes"/>
      <point x="169" y="779" smooth="yes"/>
      <point x="169" y="731" type="curve" smooth="yes"/>
      <point x="169" y="563" smooth="yes"/>
      <point x="98" y="246" smooth="yes"/>
      <point x="98" y="125" type="curve" smooth="yes"/>
      <point x="98" y="24" smooth="yes"/>
      <point x="129" y="-7" smooth="yes"/>
      <point x="171" y="-7" type="curve" smooth="yes"/>
      <point x="188" y="-7"/>
      <point x="215" y="0"/>
      <point x="226" y="29" type="curve"/>
      <point x="193" y="65" smooth="yes"/>
      <point x="187" y="114" smooth="yes"/>
      <point x="187" y="166" type="curve" smooth="yes"/>
      <point x="187" y="321"/>
      <point x="241" y="561"/>
      <point x="259" y="707" type="curve"/>
      <point x="339" y="531" smooth="yes"/>
      <point x="415" y="227" smooth="yes"/>
      <point x="473" y="115" type="curve" smooth="yes"/>
      <point x="523" y="17" smooth="yes"/>
      <point x="563" y="-7" smooth="yes"/>
      <point x="621" y="-7" type="curve" smooth="yes"/>
      <point x="647" y="-7"/>
      <point x="674" y="1"/>
      <point x="685" y="29" type="curve"/>
      <point x="652" y="65" smooth="yes"/>
      <point x="644" y="114" smooth="yes"/>
    </contour>
  </outline>
</glyph>
<glyph name="P" format="1">
  <advance width="575"/>
  <unicode hex="0050"/>
  <outline>
    <contour>
      <point x="624" y="684" type="curve" smooth="yes"/>
      <point x="624" y="846" smooth="yes"/>
      <point x="511" y="889" smooth="yes"/>
      <point x="377" y="889" type="curve" smooth="yes"/>
      <point x="306" y="889"/>
      <point x="229" y="877"/>
      <point x="159" y="864" type="curve"/>
      <point x="167" y="839" smooth="yes"/>
      <point x="174" y="793" smooth="yes"/>
      <point x="174" y="765" type="curve" smooth="yes"/>
      <point x="174" y="598" smooth="yes"/>
      <point x="98" y="246" smooth="yes"/>
      <point x="98" y="125" type="curve" smooth="yes" name="hr01"/>
      <point x="98" y="24" smooth="yes"/>
      <point x="129" y="-7" smooth="yes"/>
      <point x="176" y="-7" type="curve" smooth="yes"/>
      <point x="192" y="-7"/>
      <point x="220" y="0"/>
      <point x="245" y="29" type="curve"/>
      <point x="212" y="65" smooth="yes"/>
      <point x="207" y="114" smooth="yes"/>
      <point x="207" y="166" type="curve" smooth="yes"/>
      <point x="207" y="209"/>
      <point x="211" y="262"/>
      <point x="218" y="319" type="curve"/>
      <point x="372" y="358" smooth="yes"/>
      <point x="624" y="462" smooth="yes"/>
    </contour>
    <contour>
      <point x="287" y="822" type="curve" name="hr02"/>
      <point x="311" y="826" smooth="yes"/>
      <point x="333" y="828" smooth="yes"/>
      <point x="355" y="828" type="curve" smooth="yes"/>
      <point x="450" y="828" smooth="yes"/>
      <point x="519" y="784" smooth="yes"/>
      <point x="519" y="663" type="curve" smooth="yes"/>
      <point x="519" y="498"/>
      <point x="373" y="418"/>
      <point x="227" y="387" type="curve"/>
      <point x="251" y="550"/>
      <point x="286" y="729"/>
    </contour>
  </outline>
</glyph>
<glyph name="R" format="1">
  <advance width="654"/>
  <unicode hex="0052"/>
  <outline>
    <contour>
      <point x="638" y="692" type="curve" smooth="yes"/>
      <point x="638" y="847" smooth="yes"/>
      <point x="520" y="889" smooth="yes"/>
      <point x="382" y="889" type="curve" smooth="yes"/>
      <point x="309" y="889"/>
      <point x="229" y="877"/>
      <point x="159" y="864" type="curve"/>
      <point x="167" y="839" smooth="yes"/>
      <point x="174" y="793" smooth="yes"/>
      <point x="174" y="765" type="curve" smooth="yes"/>
      <point x="174" y="598" smooth="yes"/>
      <point x="98" y="246" smooth="yes"/>
      <point x="98" y="125" type="curve" smooth="yes" name="hr01"/>
      <point x="98" y="24" smooth="yes"/>
      <point x="129" y="-7" smooth="yes"/>
      <point x="176" y="-7" type="curve" smooth="yes"/>
      <point x="192" y="-7"/>
      <point x="220" y="0"/>
      <point x="245" y="29" type="curve"/>
      <point x="212" y="65" smooth="yes"/>
      <point x="207" y="114" smooth="yes"/>
      <point x="207" y="166" type="curve" smooth="yes"/>
      <point x="207" y="215"/>
      <point x="212" y="277"/>
      <point x="221" y="343" type="curve"/>
      <point x="247" y="350"/>
      <point x="276" y="357"/>
      <point x="306" y="367" type="curve"/>
      <point x="361" y="256" smooth="yes"/>
      <point x="433" y="101" smooth="yes"/>
      <point x="463" y="57" type="curve" smooth="yes"/>
      <point x="502" y="-2" smooth="yes"/>
      <point x="532" y="-10" smooth="yes"/>
      <point x="558" y="-10" type="curve" smooth="yes" name="hr02"/>
      <point x="578" y="-10"/>
      <point x="627" y="3"/>
      <point x="637" y="74" type="curve"/>
      <point x="529" y="91"/>
      <point x="476" y="240"/>
      <point x="394" y="401" type="curve"/>
      <point x="519" y="458" smooth="yes"/>
      <point x="638" y="550" smooth="yes"/>
    </contour>
    <contour>
      <point x="287" y="822" type="curve"/>
      <point x="311" y="826" smooth="yes"/>
      <point x="335" y="828" smooth="yes"/>
      <point x="358" y="828" type="curve" smooth="yes"/>
      <point x="456" y="828" smooth="yes"/>
      <point x="533" y="786" smooth="yes"/>
      <point x="533" y="672" type="curve" smooth="yes"/>
      <point x="533" y="517"/>
      <point x="377" y="442"/>
      <point x="231" y="412" type="curve"/>
      <point x="255" y="568"/>
      <point x="286" y="734"/>
    </contour>
  </outline>
</glyph>
<glyph name="T" format="1">
  <advance width="537"/>
  <unicode hex="0054"/>
  <outline>
    <contour>
      <point x="141" y="869" type="curve" smooth="yes"/>
      <point x="82" y="869"/>
      <point x="49" y="848"/>
      <point x="43" y="757" type="curve"/>
      <point x="109" y="780"/>
      <point x="160" y="788"/>
      <point x="270" y="789" type="curve"/>
      <point x="271" y="772" smooth="yes"/>
      <point x="271" y="754" smooth="yes"/>
      <point x="271" y="741" type="curve" smooth="yes"/>
      <point x="271" y="573" smooth="yes"/>
      <point x="198" y="246" smooth="yes"/>
      <point x="198" y="125" type="curve" smooth="yes" name="hr01"/>
      <point x="198" y="24" smooth="yes"/>
      <point x="229" y="-7" smooth="yes"/>
      <point x="275" y="-7" type="curve" smooth="yes"/>
      <point x="292" y="-7"/>
      <point x="320" y="0"/>
      <point x="345" y="29" type="curve"/>
      <point x="312" y="65" smooth="yes"/>
      <point x="306" y="114" smooth="yes"/>
      <point x="306" y="166" type="curve" smooth="yes"/>
      <point x="306" y="342"/>
      <point x="381" y="644"/>
      <point x="385" y="788" type="curve" name="hr02"/>
      <point x="447" y="785" smooth="yes"/>
      <point x="512" y="776" smooth="yes"/>
      <point x="540" y="776" type="curve" smooth="yes"/>
      <point x="599" y="776"/>
      <point x="631" y="793"/>
      <point x="637" y="884" type="curve" name="hr03"/>
      <point x="611" y="868" smooth="yes"/>
      <point x="564" y="865" smooth="yes"/>
      <point x="513" y="865" type="curve" smooth="yes" name="hr04"/>
      <point x="466" y="865" smooth="yes"/>
      <point x="171" y="869" smooth="yes"/>
    </contour>
  </outline>
</glyph>
<glyph name="backslash" format="1">
  <advance width="388"/>
  <unicode hex="005C"/>
  <outline>
    <contour>
      <point x="253" y="-14" type="curve" smooth="yes" name="hr00"/>
      <point x="283" y="-100" smooth="yes"/>
      <point x="314" y="-128" smooth="yes"/>
      <point x="351" y="-128" type="curve" smooth="yes"/>
      <point x="368" y="-128"/>
      <point x="392" y="-123"/>
      <point x="413" y="-101" type="curve"/>
      <point x="378" y="-60" smooth="yes"/>
      <point x="355" y="-18" smooth="yes"/>
      <point x="339" y="29" type="curve" smooth="yes"/>
      <point x="264" y="241" smooth="yes"/>
      <point x="207" y="652" smooth="yes"/>
      <point x="156" y="798" type="curve" smooth="yes"/>
      <point x="116" y="911" smooth="yes"/>
      <point x="72" y="947" smooth="yes"/>
      <point x="29" y="947" type="curve" smooth="yes"/>
      <point x="11" y="947"/>
      <point x="-23" y="938"/>
      <point x="-24" y="903" type="curve"/>
      <point x="34" y="872" smooth="yes"/>
      <point x="58" y="810" smooth="yes"/>
      <point x="77" y="753" type="curve" smooth="yes"/>
      <point x="155" y="520" smooth="yes"/>
      <point x="204" y="126" smooth="yes"/>
    </contour>
  </outline>
</glyph>
<glyph name="underscore" format="1">
  <advance width="452"/>
  <unicode hex="005F"/>
  <outline>
    <contour>
      <point x="0" y="-35" type="curve" smooth="yes"/>
      <point x="0" y="-61"/>
      <point x="9" y="-85"/>
      <point x="19" y="-100" type="curve"/>
      <point x="42" y="-88" smooth="yes"/>
      <point x="97" y="-83" smooth="yes"/>
      <point x="125" y="-83" type="curve" smooth="yes" name="hr01"/>
      <point x="154" y="-83" smooth="yes"/>
      <point x="298" y="-86" smooth="yes"/>
      <point x="334" y="-86" type="curve" smooth="yes"/>
      <point x="422" y="-86" smooth="yes"/>
      <point x="452" y="-60" smooth="yes"/>
      <point x="452" y="-30" type="curve" smooth="yes"/>
      <point x="452" y="-14"/>
      <point x="450" y="6"/>
      <point x="437" y="21" type="curve"/>
      <point x="412" y="7" smooth="yes"/>
      <point x="327" y="0" smooth="yes"/>
      <point x="293" y="0" type="curve" smooth="yes"/>
      <point x="247" y="0" smooth="yes"/>
      <point x="101" y="10" smooth="yes"/>
      <point x="60" y="10" type="curve" smooth="yes"/>
      <point x="24" y="10" smooth="yes"/>
      <point x="0" y="-8" smooth="yes"/>
    </contour>
  </outline>
</glyph>
<glyph name="grave" format="1">
  <advance width="309"/>
  <unicode hex="0060"/>
  <outline>
    <contour>
      <point x="189" y="849" type="curve" smooth="yes" name="hr00"/>
      <point x="261" y="798" smooth="yes"/>
      <point x="370" y="740" smooth="yes"/>
      <point x="390" y="740" type="curve" smooth="yes"/>
      <point x="397" y="740"/>
      <point x="407" y="750"/>
      <point x="417" y="768" type="curve"/>
      <point x="308" y="850"/>
      <point x="273" y="882"/>
      <point x="256" y="913" type="curve"/>
      <point x="237" y="917" smooth="yes"/>
      <point x="222" y="918" smooth="yes"/>
      <point x="209" y="918" type="curve" smooth="yes"/>
      <point x="165" y="918" smooth="yes"/>
      <point x="152" y="902" smooth="yes"/>
      <point x="152" y="890" type="curve" smooth="yes"/>
      <point x="152" y="877" smooth="yes"/>
      <point x="158" y="871" smooth="yes"/>
    </contour>
  </outline>
</glyph>
<glyph name="a" format="1">
  <advance width="687"/>
  <unicode hex="0061"/>
  <outline>
    <contour>
      <point x="467" y="323" type="curve"/>
      <point x="464" y="291" smooth="yes"/>
      <point x="459" y="233" smooth="yes"/>
      <point x="459" y="204" type="curve" smooth="yes"/>
      <point x="459" y="66" smooth="yes"/>
      <point x="489" y="-7" smooth="yes"/>
      <point x="545" y="-7" type="curve" smooth="yes"/>
      <point x="570" y="-7"/>
      <point x="594" y="6"/>
      <point x="613" y="30" type="curve"/>
      <point x="579" y="86" smooth="yes"/>
      <point x="567" y="149" smooth="yes"/>
      <point x="567" y="269" type="curve" smooth="yes"/>
      <point x="567" y="408"/>
      <point x="587" y="584"/>
      <point x="611" y="648" type="curve"/>
      <point x="594" y="667" smooth="yes"/>
      <point x="579" y="674" smooth="yes"/>
      <point x="557" y="674" type="curve" smooth="yes"/>
      <point x="527" y="674"/>
      <point x="512" y="658"/>
      <point x="502" y="617" type="curve"/>
      <point x="466" y="660" smooth="yes"/>
      <point x="416" y="684" smooth="yes"/>
      <point x="361" y="684" type="curve" smooth="yes" name="hr01"/>
      <point x="196" y="684" smooth="yes"/>
      <point x="68" y="488" smooth="yes"/>
      <point x="68" y="237" type="curve" smooth="yes"/>
      <point x="68" y="81" smooth="yes"/>
      <point x="124" y="-14" smooth="yes"/>
      <point x="215" y="-14" type="curve" smooth="yes"/>
      <point x="291" y="-14"/>
      <point x="398" y="130"/>
    </contour>
    <contour>
      <point x="494" y="563" type="curve"/>
      <point x="473" y="377" smooth="yes"/>
      <point x="324" y="92" smooth="yes"/>
      <point x="249" y="92" type="curve" smooth="yes"/>
      <point x="202" y="92" smooth="yes"/>
      <point x="173" y="156" smooth="yes"/>
      <point x="173" y="262" type="curve" smooth="yes"/>
      <point x="173" y="469" smooth="yes"/>
      <point x="252" y="615" smooth="yes"/>
      <point x="365" y="615" type="curve" smooth="yes"/>
      <point x="404" y="615"/>
      <point x="448" y="598"/>
    </contour>
  </outline>
</glyph>
<glyph name="c" format="1">
  <advance width="532"/>
  <unicode hex="0063"/>
  <outline>
    <contour>
      <point x="312" y="-17" type="curve" smooth="yes" name="hr00"/>
      <point x="383" y="-17" smooth="yes"/>
      <point x="490" y="20" smooth="yes"/>
      <point x="490" y="102" type="curve" smooth="yes"/>
      <point x="490" y="120"/>
      <point x="483" y="143"/>
      <point x="469" y="158" type="curve"/>
      <point x="439" y="89" smooth="yes"/>
      <point x="393" y="57" smooth="yes"/>
      <point x="331" y="57" type="curve" smooth="yes"/>
      <point x="232" y="57" smooth="yes"/>
      <point x="176" y="138" smooth="yes"/>
      <point x="176" y="294" type="curve" smooth="yes"/>
      <point x="176" y="385" smooth="yes"/>
      <point x="204" y="609" smooth="yes"/>
      <point x="346" y="609" type="curve" smooth="yes"/>
      <point x="420" y="609"/>
      <point x="458" y="568"/>
      <point x="487" y="511" type="curve"/>
      <point x="505" y="526" smooth="yes"/>
      <point x="532" y="556" smooth="yes"/>
      <point x="532" y="603" type="curve" smooth="yes"/>
      <point x="532" y="662" smooth="yes"/>
      <point x="471" y="684" smooth="yes"/>
      <point x="393" y="684" type="curve" smooth="yes"/>
      <point x="190" y="684" smooth="yes"/>
      <point x="68" y="451" smooth="yes"/>
      <point x="68" y="259" type="curve" smooth="yes"/>
      <point x="68" y="106" smooth="yes"/>
      <point x="142" y="-17" smooth="yes"/>
    </contour>
  </outline>
</glyph>
<glyph name="d" format="1">
  <advance width="694"/>
  <unicode hex="0064"/>
  <outline>
    <contour>
      <point x="502" y="617" type="curve"/>
      <point x="470" y="655" smooth="yes"/>
      <point x="423" y="684" smooth="yes"/>
      <point x="361" y="684" type="curve" smooth="yes"/>
      <point x="163" y="684" smooth="yes"/>
      <point x="68" y="437" smooth="yes"/>
      <point x="68" y="237" type="curve" smooth="yes"/>
      <point x="68" y="59" smooth="yes"/>
      <point x="136" y="-14" smooth="yes"/>
      <point x="215" y="-14" type="curve" smooth="yes"/>
      <point x="289" y="-14"/>
      <point x="397" y="126"/>
      <point x="467" y="323" type="curve"/>
      <point x="463" y="287" smooth="yes"/>
      <point x="459" y="251" smooth="yes"/>
      <point x="459" y="206" type="curve" smooth="yes"/>
      <point x="459" y="73" smooth="yes"/>
      <point x="485" y="-7" smooth="yes"/>
      <point x="544" y="-7" type="curve" smooth="yes" name="hr01"/>
      <point x="568" y="-7"/>
      <point x="592" y="4"/>
      <point x="612" y="30" type="curve"/>
      <point x="574" y="94" smooth="yes"/>
      <point x="565" y="167" smooth="yes"/>
      <point x="565" y="280" type="curve" smooth="yes"/>
      <point x="565" y="487" smooth="yes"/>
      <point x="621" y="701" smooth="yes"/>
      <point x="621" y="826" type="curve" smooth="yes" name="hr02"/>
      <point x="621" y="910" smooth="yes"/>
      <point x="597" y="937" smooth="yes"/>
      <point x="551" y="937" type="curve" smooth="yes"/>
      <point x="531" y="937"/>
      <point x="499" y="928"/>
      <point x="484" y="915" type="curve"/>
      <point x="500" y="885" smooth="yes"/>
      <point x="506" y="797" smooth="yes"/>
      <point x="506" y="718" type="curve" smooth="yes"/>
      <point x="506" y="680"/>
      <point x="505" y="644"/>
    </contour>
    <contour>
      <point x="494" y="563" type="curve"/>
      <point x="473" y="375" smooth="yes"/>
      <point x="323" y="92" smooth="yes"/>
      <point x="249" y="92" type="curve" smooth="yes"/>
      <point x="196" y="92" smooth="yes"/>
      <point x="173" y="168" smooth="yes"/>
      <point x="173" y="262" type="curve" smooth="yes"/>
      <point x="173" y="454" smooth="yes"/>
      <point x="244" y="615" smooth="yes"/>
      <point x="365" y="615" type="curve" smooth="yes"/>
      <point x="403" y="615"/>
      <point x="446" y="599"/>
    </contour>
  </outline>
</glyph>
<glyph name="e" format="1">
  <advance width="583"/>
  <unicode hex="0065"/>
  <outline>
    <contour>
      <point x="230" y="281" type="curve" smooth="yes" name="hr00"/>
      <point x="430" y="281" smooth="yes"/>
      <point x="549" y="431" smooth="yes"/>
      <point x="549" y="548" type="curve" smooth="yes"/>
      <point x="549" y="623" smooth="yes"/>
      <point x="500" y="684" smooth="yes"/>
      <point x="393" y="684" type="curve" smooth="yes"/>
      <point x="190" y="684" smooth="yes"/>
      <point x="68" y="451" smooth="yes"/>
      <point x="68" y="259" type="curve" smooth="yes"/>
      <point x="68" y="106" smooth="yes"/>
      <point x="142" y="-17" smooth="yes"/>
      <point x="312" y="-17" type="curve" smooth="yes"/>
      <point x="389" y="-17" smooth="yes"/>
      <point x="505" y="20" smooth="yes"/>
      <point x="505" y="102" type="curve" smooth="yes"/>
      <point x="505" y="120"/>
      <point x="497" y="143"/>
      <point x="481" y="158" type="curve"/>
      <point x="449" y="89" smooth="yes"/>
      <point x="398" y="57" smooth="yes"/>
      <point x="331" y="57" type="curve" smooth="yes"/>
      <point x="234" y="57"/>
      <point x="178" y="135"/>
      <point x="176" y="284" type="curve"/>
      <point x="194" y="282" smooth="yes"/>
      <point x="212" y="281" smooth="yes"/>
    </contour>
    <contour>
      <point x="346" y="609" type="curve" smooth="yes"/>
      <point x="412" y="609" smooth="yes"/>
      <point x="444" y="567" smooth="yes"/>
      <point x="444" y="515" type="curve" smooth="yes"/>
      <point x="444" y="436" smooth="yes"/>
      <point x="368" y="345" smooth="yes"/>
      <point x="223" y="345" type="curve" smooth="yes"/>
      <point x="209" y="345"/>
      <point x="194" y="346"/>
      <point x="178" y="348" type="curve"/>
      <point x="188" y="452" smooth="yes"/>
      <point x="227" y="609" smooth="yes"/>
    </contour>
  </outline>
</glyph>
<glyph name="h" format="1">
  <advance width="664"/>
  <unicode hex="0068"/>
  <outline>
    <contour>
      <point x="209" y="7" type="curve"/>
      <point x="201" y="19" smooth="yes"/>
      <point x="192" y="54" smooth="yes"/>
      <point x="192" y="95" type="curve" smooth="yes"/>
      <point x="192" y="229" smooth="yes"/>
      <point x="335" y="574" smooth="yes"/>
      <point x="421" y="574" type="curve" smooth="yes"/>
      <point x="463" y="574" smooth="yes"/>
      <point x="475" y="549" smooth="yes"/>
      <point x="475" y="501" type="curve" smooth="yes"/>
      <point x="475" y="438" smooth="yes"/>
      <point x="442" y="315" smooth="yes"/>
      <point x="442" y="187" type="curve" smooth="yes" name="hr01"/>
      <point x="442" y="63" smooth="yes"/>
      <point x="470" y="-7" smooth="yes"/>
      <point x="525" y="-7" type="curve" smooth="yes"/>
      <point x="547" y="-7"/>
      <point x="571" y="4"/>
      <point x="595" y="29" type="curve"/>
      <point x="559" y="70" smooth="yes"/>
      <point x="551" y="162" smooth="yes"/>
      <point x="551" y="220" type="curve" smooth="yes"/>
      <point x="551" y="318" smooth="yes"/>
      <point x="574" y="408" smooth="yes"/>
      <point x="574" y="507" type="curve" smooth="yes" name="hr02"/>
      <point x="574" y="591" smooth="yes"/>
      <point x="554" y="680" smooth="yes"/>
      <point x="458" y="680" type="curve" smooth="yes"/>
      <point x="361" y="680"/>
      <point x="274" y="491"/>
      <point x="206" y="330" type="curve"/>
      <point x="226" y="491" smooth="yes"/>
      <point x="279" y="710" smooth="yes"/>
      <point x="279" y="832" type="curve" smooth="yes"/>
      <point x="279" y="911" smooth="yes"/>
      <point x="255" y="937" smooth="yes"/>
      <point x="210" y="937" type="curve" smooth="yes"/>
      <point x="191" y="937"/>
      <point x="158" y="928"/>
      <point x="144" y="915" type="curve"/>
      <point x="164" y="875" smooth="yes"/>
      <point x="165" y="828" smooth="yes"/>
      <point x="165" y="780" type="curve" smooth="yes"/>
      <point x="164" y="531" smooth="yes"/>
      <point x="83" y="242" smooth="yes"/>
      <point x="83" y="93" type="curve" smooth="yes" name="hr03"/>
      <point x="83" y="34" smooth="yes"/>
      <point x="94" y="-7" smooth="yes"/>
      <point x="147" y="-7" type="curve" smooth="yes"/>
      <point x="164" y="-7"/>
      <point x="185" y="-3"/>
    </contour>
  </outline>
</glyph>
<glyph name="i" format="1">
  <advance width="332"/>
  <unicode hex="0069"/>
  <outline>
    <contour>
      <point x="271" y="841" type="curve" smooth="yes"/>
      <point x="271" y="872" smooth="yes"/>
      <point x="244" y="884" smooth="yes"/>
      <point x="213" y="884" type="curve" smooth="yes"/>
      <point x="191" y="884"/>
      <point x="168" y="876"/>
      <point x="144" y="861" type="curve"/>
      <point x="140" y="837" smooth="yes"/>
      <point x="137" y="818" smooth="yes"/>
      <point x="137" y="804" type="curve" smooth="yes"/>
      <point x="137" y="772" smooth="yes"/>
      <point x="151" y="757" smooth="yes"/>
      <point x="191" y="757" type="curve" smooth="yes"/>
      <point x="212" y="757"/>
      <point x="236" y="765"/>
      <point x="260" y="780" type="curve"/>
      <point x="268" y="806" smooth="yes"/>
      <point x="271" y="826" smooth="yes"/>
    </contour>
    <contour>
      <point x="245" y="29" type="curve"/>
      <point x="212" y="65" smooth="yes"/>
      <point x="207" y="114" smooth="yes"/>
      <point x="207" y="166" type="curve" smooth="yes"/>
      <point x="207" y="308" smooth="yes"/>
      <point x="253" y="530" smooth="yes"/>
      <point x="253" y="597" type="curve" smooth="yes" name="hr01"/>
      <point x="253" y="653" smooth="yes"/>
      <point x="221" y="673" smooth="yes"/>
      <point x="186" y="673" type="curve" smooth="yes"/>
      <point x="167" y="673"/>
      <point x="134" y="664"/>
      <point x="119" y="650" type="curve"/>
      <point x="139" y="612" smooth="yes"/>
      <point x="140" y="563" smooth="yes"/>
      <point x="140" y="521" type="curve" smooth="yes"/>
      <point x="140" y="371" smooth="yes"/>
      <point x="98" y="243" smooth="yes"/>
      <point x="98" y="125" type="curve" smooth="yes" name="hr02"/>
      <point x="98" y="24" smooth="yes"/>
      <point x="129" y="-7" smooth="yes"/>
      <point x="176" y="-7" type="curve" smooth="yes"/>
      <point x="192" y="-7"/>
      <point x="220" y="0"/>
    </contour>
  </outline>
</glyph>
<glyph name="l" format="1">
  <advance width="332"/>
  <unicode hex="006C"/>
  <outline>
    <contour>
      <point x="207" y="166" type="curve" smooth="yes"/>
      <point x="207" y="352" smooth="yes"/>
      <point x="284" y="710" smooth="yes"/>
      <point x="284" y="832" type="curve" smooth="yes" name="hr01"/>
      <point x="284" y="911" smooth="yes"/>
      <point x="260" y="937" smooth="yes"/>
      <point x="215" y="937" type="curve" smooth="yes"/>
      <point x="196" y="937"/>
      <point x="163" y="928"/>
      <point x="148" y="915" type="curve"/>
      <point x="168" y="875" smooth="yes"/>
      <point x="169" y="828" smooth="yes"/>
      <point x="169" y="780" type="curve" smooth="yes"/>
      <point x="169" y="563" smooth="yes"/>
      <point x="98" y="246" smooth="yes"/>
      <point x="98" y="125" type="curve" smooth="yes" name="hr02"/>
      <point x="98" y="24" smooth="yes"/>
      <point x="129" y="-7" smooth="yes"/>
      <point x="176" y="-7" type="curve" smooth="yes"/>
      <point x="192" y="-7"/>
      <point x="220" y="0"/>
      <point x="245" y="29" type="curve"/>
      <point x="212" y="65" smooth="yes"/>
      <point x="207" y="114" smooth="yes"/>
    </contour>
  </outline>
</glyph>
<glyph name="p" format="1">
  <advance width="689"/>
  <unicode hex="0070"/>
  <outline>
    <contour>
      <point x="125" y="516" type="curve" smooth="yes"/>
      <point x="125" y="240" smooth="yes"/>
      <point x="72" y="4" smooth="yes"/>
      <point x="72" y="-118" type="curve" smooth="yes" name="hr01"/>
      <point x="72" y="-235" smooth="yes"/>
      <point x="108" y="-271" smooth="yes"/>
      <point x="157" y="-271" type="curve" smooth="yes"/>
      <point x="174" y="-271"/>
      <point x="201" y="-264"/>
      <point x="225" y="-235" type="curve"/>
      <point x="182" y="-191" smooth="yes"/>
      <point x="178" y="-125" smooth="yes"/>
      <point x="178" y="-61" type="curve" smooth="yes"/>
      <point x="178" y="-26"/>
      <point x="180" y="7"/>
      <point x="183" y="41" type="curve"/>
      <point x="222" y="9" smooth="yes"/>
      <point x="295" y="-14" smooth="yes"/>
      <point x="351" y="-14" type="curve" smooth="yes"/>
      <point x="537" y="-14" smooth="yes"/>
      <point x="621" y="205" smooth="yes"/>
      <point x="621" y="398" type="curve" smooth="yes"/>
      <point x="621" y="601" smooth="yes"/>
      <point x="542" y="684" smooth="yes"/>
      <point x="459" y="684" type="curve" smooth="yes"/>
      <point x="386" y="684"/>
      <point x="297" y="552"/>
      <point x="210" y="330" type="curve"/>
      <point x="231" y="444" smooth="yes"/>
      <point x="239" y="492" smooth="yes"/>
      <point x="239" y="568" type="curve" smooth="yes" name="hr02"/>
      <point x="239" y="647" smooth="yes"/>
      <point x="215" y="673" smooth="yes"/>
      <point x="170" y="673" type="curve" smooth="yes"/>
      <point x="151" y="673"/>
      <point x="118" y="664"/>
      <point x="104" y="650" type="curve"/>
      <point x="124" y="611" smooth="yes"/>
      <point x="125" y="564" smooth="yes"/>
    </contour>
    <contour>
      <point x="432" y="578" type="curve" smooth="yes" name="hr03"/>
      <point x="492" y="578" smooth="yes"/>
      <point x="517" y="479" smooth="yes"/>
      <point x="517" y="367" type="curve" smooth="yes"/>
      <point x="517" y="193" smooth="yes"/>
      <point x="455" y="54" smooth="yes"/>
      <point x="343" y="54" type="curve" smooth="yes"/>
      <point x="287" y="54"/>
      <point x="235" y="65"/>
      <point x="190" y="91" type="curve"/>
      <point x="231" y="358" smooth="yes"/>
      <point x="368" y="578" smooth="yes"/>
    </contour>
  </outline>
</glyph>
<glyph name="q" format="1">
  <advance width="663"/>
  <unicode hex="0071"/>
  <outline>
    <contour>
      <point x="467" y="323" type="curve"/>
      <point x="445" y="140" smooth="yes"/>
      <point x="404" y="-79" smooth="yes"/>
      <point x="404" y="-169" type="curve" smooth="yes"/>
      <point x="404" y="-248" smooth="yes"/>
      <point x="428" y="-274" smooth="yes"/>
      <point x="473" y="-274" type="curve" smooth="yes"/>
      <point x="492" y="-274"/>
      <point x="525" y="-265"/>
      <point x="540" y="-251" type="curve"/>
      <point x="520" y="-212" smooth="yes"/>
      <point x="519" y="-165" smooth="yes"/>
      <point x="519" y="-117" type="curve" smooth="yes"/>
      <point x="519" y="100"/>
      <point x="583" y="549"/>
      <point x="611" y="645" type="curve"/>
      <point x="595" y="663" smooth="yes"/>
      <point x="580" y="674" smooth="yes"/>
      <point x="557" y="674" type="curve" smooth="yes"/>
      <point x="529" y="674"/>
      <point x="513" y="661"/>
      <point x="502" y="617" type="curve"/>
      <point x="470" y="655" smooth="yes"/>
      <point x="423" y="684" smooth="yes"/>
      <point x="361" y="684" type="curve" smooth="yes" name="hr01"/>
      <point x="163" y="684" smooth="yes"/>
      <point x="68" y="437" smooth="yes"/>
      <point x="68" y="237" type="curve" smooth="yes"/>
      <point x="68" y="59" smooth="yes"/>
      <point x="136" y="-14" smooth="yes"/>
      <point x="215" y="-14" type="curve" smooth="yes"/>
      <point x="289" y="-14"/>
      <point x="397" y="126"/>
    </contour>
    <contour>
      <point x="494" y="563" type="curve"/>
      <point x="473" y="375" smooth="yes"/>
      <point x="323" y="92" smooth="yes"/>
      <point x="249" y="92" type="curve" smooth="yes"/>
      <point x="196" y="92" smooth="yes"/>
      <point x="173" y="168" smooth="yes"/>
      <point x="173" y="262" type="curve" smooth="yes"/>
      <point x="173" y="454" smooth="yes"/>
      <point x="244" y="615" smooth="yes"/>
      <point x="365" y="615" type="curve" smooth="yes"/>
      <point x="403" y="615"/>
      <point x="446" y="599"/>
    </contour>
  </outline>
</glyph>
<glyph name="s" format="1">
  <advance width="516"/>
  <unicode hex="0073"/>
  <outline>
    <contour>
      <point x="283" y="614" type="curve" smooth="yes" name="hr00"/>
      <point x="357" y="614"/>
      <point x="396" y="568"/>
      <point x="419" y="511" type="curve"/>
      <point x="438" y="526" smooth="yes"/>
      <point x="465" y="556" smooth="yes"/>
      <point x="465" y="591" type="curve" smooth="yes"/>
      <point x="465" y="662" smooth="yes"/>
      <point x="409" y="684" smooth="yes"/>
      <point x="330" y="684" type="curve" smooth="yes"/>
      <point x="187" y="684" smooth="yes"/>
      <point x="98" y="619" smooth="yes"/>
      <point x="98" y="503" type="curve" smooth="yes"/>
      <point x="98" y="428" smooth="yes"/>
      <point x="131" y="381" smooth="yes"/>
      <point x="181" y="342" type="curve" smooth="yes"/>
      <point x="295" y="251" smooth="yes"/>
      <point x="356" y="215" smooth="yes"/>
      <point x="356" y="139" type="curve" smooth="yes"/>
      <point x="356" y="85" smooth="yes"/>
      <point x="306" y="52" smooth="yes"/>
      <point x="248" y="52" type="curve" smooth="yes"/>
      <point x="186" y="52"/>
      <point x="115" y="92"/>
      <point x="90" y="195" type="curve"/>
      <point x="64" y="169" smooth="yes"/>
      <point x="42" y="143" smooth="yes"/>
      <point x="42" y="106" type="curve" smooth="yes"/>
      <point x="42" y="25" smooth="yes"/>
      <point x="129" y="-13" smooth="yes"/>
      <point x="229" y="-13" type="curve" smooth="yes"/>
      <point x="374" y="-13" smooth="yes"/>
      <point x="452" y="65" smooth="yes"/>
      <point x="452" y="179" type="curve" smooth="yes"/>
      <point x="452" y="245" smooth="yes"/>
      <point x="422" y="292" smooth="yes"/>
      <point x="372" y="333" type="curve" smooth="yes"/>
      <point x="228" y="451" smooth="yes"/>
      <point x="191" y="474" smooth="yes"/>
      <point x="191" y="538" type="curve" smooth="yes"/>
      <point x="191" y="581" smooth="yes"/>
      <point x="226" y="614" smooth="yes"/>
    </contour>
  </outline>
</glyph>
<glyph name="t" format="1">
  <advance width="409"/>
  <unicode hex="0074"/>
  <outline>
    <contour>
      <point x="225" y="123" type="curve" smooth="yes"/>
      <point x="225" y="252"/>
      <point x="250" y="419"/>
      <point x="271" y="548" type="curve"/>
      <point x="393" y="551"/>
      <point x="437" y="569"/>
      <point x="448" y="659" type="curve"/>
      <point x="416" y="637"/>
      <point x="358" y="631"/>
      <point x="285" y="630" type="curve"/>
      <point x="292" y="675" smooth="yes"/>
      <point x="297" y="710" smooth="yes"/>
      <point x="297" y="729" type="curve" smooth="yes" name="hr01"/>
      <point x="297" y="808" smooth="yes"/>
      <point x="272" y="834" smooth="yes"/>
      <point x="228" y="834" type="curve" smooth="yes"/>
      <point x="208" y="834"/>
      <point x="175" y="824"/>
      <point x="161" y="811" type="curve"/>
      <point x="181" y="771" smooth="yes"/>
      <point x="182" y="725" smooth="yes"/>
      <point x="182" y="676" type="curve" smooth="yes"/>
      <point x="182" y="658"/>
      <point x="180" y="644"/>
      <point x="180" y="630" type="curve"/>
      <point x="45" y="630"/>
      <point x="39" y="589"/>
      <point x="39" y="520" type="curve"/>
      <point x="74" y="542"/>
      <point x="130" y="547"/>
      <point x="171" y="547" type="curve"/>
      <point x="153" y="402" smooth="yes"/>
      <point x="119" y="209" smooth="yes"/>
      <point x="119" y="120" type="curve" smooth="yes" name="hr02"/>
      <point x="119" y="20" smooth="yes"/>
      <point x="180" y="-15" smooth="yes"/>
      <point x="244" y="-15" type="curve" smooth="yes"/>
      <point x="340" y="-15" smooth="yes"/>
      <point x="389" y="36" smooth="yes"/>
      <point x="389" y="83" type="curve" smooth="yes"/>
      <point x="389" y="99"/>
      <point x="383" y="115"/>
      <point x="371" y="130" type="curve"/>
      <point x="350" y="89" smooth="yes"/>
      <point x="309" y="58" smooth="yes"/>
      <point x="276" y="58" type="curve" smooth="yes"/>
      <point x="249" y="58" smooth="yes"/>
      <point x="225" y="76" smooth="yes"/>
    </contour>
  </outline>
</glyph>
<glyph name="v" format="1">
  <advance width="563"/>
  <unicode hex="0076"/>
  <outline>
    <contour>
      <point x="421" y="582" type="curve" smooth="yes" name="hr00"/>
      <point x="421" y="482"/>
      <point x="372" y="276"/>
      <point x="302" y="110" type="curve"/>
      <point x="263" y="276" smooth="yes"/>
      <point x="206" y="514" smooth="yes"/>
      <point x="186" y="567" type="curve" smooth="yes"/>
      <point x="156" y="643" smooth="yes"/>
      <point x="119" y="670" smooth="yes"/>
      <point x="84" y="670" type="curve" smooth="yes"/>
      <point x="60" y="670"/>
      <point x="19" y="655"/>
      <point x="2" y="604" type="curve"/>
      <point x="83" y="602" smooth="yes"/>
      <point x="164" y="270" smooth="yes"/>
      <point x="220" y="33" type="curve" smooth="yes"/>
      <point x="226" y="6" smooth="yes"/>
      <point x="240" y="-10" smooth="yes"/>
      <point x="271" y="-10" type="curve" smooth="yes"/>
      <point x="287" y="-10"/>
      <point x="305" y="-6"/>
      <point x="327" y="2" type="curve"/>
      <point x="327" y="7" smooth="yes"/>
      <point x="326" y="11" smooth="yes"/>
      <point x="326" y="15" type="curve" smooth="yes"/>
      <point x="327" y="27" smooth="yes"/>
      <point x="331" y="37" smooth="yes"/>
      <point x="343" y="62" type="curve" smooth="yes"/>
      <point x="440" y="255" smooth="yes"/>
      <point x="527" y="550" smooth="yes"/>
      <point x="527" y="616" type="curve" smooth="yes"/>
      <point x="527" y="653" smooth="yes"/>
      <point x="509" y="667" smooth="yes"/>
      <point x="481" y="667" type="curve" smooth="yes"/>
      <point x="464" y="667"/>
      <point x="428" y="659"/>
      <point x="410" y="630" type="curve"/>
      <point x="418" y="616" smooth="yes"/>
      <point x="421" y="600" smooth="yes"/>
    </contour>
  </outline>
</glyph>
<glyph name="w" format="1">
  <advance width="871"/>
  <unicode hex="0077"/>
  <outline>
    <contour>
      <point x="729" y="582" type="curve" smooth="yes" name="hr00"/>
      <point x="729" y="495"/>
      <point x="678" y="267"/>
      <point x="605" y="99" type="curve"/>
      <point x="603" y="141" smooth="yes"/>
      <point x="524" y="492" smooth="yes"/>
      <point x="499" y="558" type="curve" smooth="yes"/>
      <point x="486" y="590" smooth="yes"/>
      <point x="459" y="604" smooth="yes"/>
      <point x="434" y="604" type="curve" smooth="yes"/>
      <point x="401" y="604"/>
      <point x="368" y="582"/>
      <point x="354" y="555" type="curve"/>
      <point x="379" y="542"/>
      <point x="398" y="506"/>
      <point x="414" y="466" type="curve"/>
      <point x="393" y="342"/>
      <point x="341" y="211"/>
      <point x="297" y="99" type="curve"/>
      <point x="295" y="141" smooth="yes"/>
      <point x="211" y="501" smooth="yes"/>
      <point x="186" y="567" type="curve" smooth="yes"/>
      <point x="156" y="643" smooth="yes"/>
      <point x="119" y="670" smooth="yes"/>
      <point x="84" y="670" type="curve" smooth="yes"/>
      <point x="60" y="670"/>
      <point x="19" y="655"/>
      <point x="2" y="604" type="curve"/>
      <point x="83" y="602" smooth="yes"/>
      <point x="164" y="270" smooth="yes"/>
      <point x="220" y="33" type="curve" smooth="yes"/>
      <point x="226" y="6" smooth="yes"/>
      <point x="240" y="-10" smooth="yes"/>
      <point x="271" y="-10" type="curve" smooth="yes"/>
      <point x="287" y="-10"/>
      <point x="305" y="-6"/>
      <point x="327" y="2" type="curve"/>
      <point x="327" y="7" smooth="yes"/>
      <point x="326" y="11" smooth="yes"/>
      <point x="326" y="15" type="curve" smooth="yes"/>
      <point x="327" y="27" smooth="yes"/>
      <point x="331" y="37" smooth="yes"/>
      <point x="343" y="62" type="curve" smooth="yes"/>
      <point x="383" y="140"/>
      <point x="422" y="240"/>
      <point x="453" y="335" type="curve"/>
      <point x="467" y="282" smooth="yes"/>
      <point x="482" y="221" smooth="yes"/>
      <point x="527" y="33" type="curve" smooth="yes"/>
      <point x="534" y="6" smooth="yes"/>
      <point x="547" y="-10" smooth="yes"/>
      <point x="579" y="-10" type="curve" smooth="yes"/>
      <point x="594" y="-10"/>
      <point x="612" y="-6"/>
      <point x="635" y="2" type="curve"/>
      <point x="634" y="7" smooth="yes"/>
      <point x="634" y="11" smooth="yes"/>
      <point x="634" y="15" type="curve" smooth="yes"/>
      <point x="634" y="27" smooth="yes"/>
      <point x="638" y="37" smooth="yes"/>
      <point x="651" y="62" type="curve" smooth="yes"/>
      <point x="750" y="253" smooth="yes"/>
      <point x="834" y="550" smooth="yes"/>
      <point x="834" y="616" type="curve" smooth="yes"/>
      <point x="834" y="653" smooth="yes"/>
      <point x="816" y="667" smooth="yes"/>
      <point x="789" y="667" type="curve" smooth="yes"/>
      <point x="771" y="667"/>
      <point x="736" y="659"/>
      <point x="717" y="630" type="curve"/>
      <point x="726" y="616" smooth="yes"/>
      <point x="729" y="600" smooth="yes"/>
    </contour>
  </outline>
</glyph>
<glyph name="x" format="1">
  <advance width="557"/>
  <unicode hex="0078"/>
  <outline>
    <contour>
      <point x="285" y="379" type="curve"/>
      <point x="232" y="484"/>
      <point x="191" y="593"/>
      <point x="183" y="670" type="curve"/>
      <point x="120" y="649" smooth="yes"/>
      <point x="93" y="635" smooth="yes"/>
      <point x="93" y="589" type="curve" smooth="yes"/>
      <point x="93" y="554"/>
      <point x="143" y="425"/>
      <point x="210" y="296" type="curve"/>
      <point x="122" y="191" smooth="yes"/>
      <point x="45" y="79" smooth="yes"/>
      <point x="45" y="35" type="curve" smooth="yes"/>
      <point x="45" y="-2" smooth="yes"/>
      <point x="69" y="-9" smooth="yes"/>
      <point x="97" y="-9" type="curve" smooth="yes"/>
      <point x="114" y="-9"/>
      <point x="135" y="-1"/>
      <point x="155" y="18" type="curve"/>
      <point x="150" y="26" smooth="yes"/>
      <point x="147" y="36" smooth="yes"/>
      <point x="147" y="48" type="curve" smooth="yes"/>
      <point x="147" y="98"/>
      <point x="217" y="197"/>
      <point x="243" y="234" type="curve"/>
      <point x="316" y="104" smooth="yes"/>
      <point x="402" y="-10" smooth="yes"/>
      <point x="464" y="-10" type="curve" smooth="yes" name="hr01"/>
      <point x="515" y="-10"/>
      <point x="533" y="18"/>
      <point x="540" y="51" type="curve"/>
      <point x="478" y="72"/>
      <point x="390" y="187"/>
      <point x="316" y="320" type="curve"/>
      <point x="418" y="436" smooth="yes"/>
      <point x="517" y="571" smooth="yes"/>
      <point x="517" y="622" type="curve" smooth="yes"/>
      <point x="517" y="659" smooth="yes"/>
      <point x="493" y="667" smooth="yes"/>
      <point x="465" y="667" type="curve" smooth="yes"/>
      <point x="448" y="667"/>
      <point x="427" y="659"/>
      <point x="407" y="640" type="curve"/>
      <point x="412" y="631" smooth="yes"/>
      <point x="415" y="621" smooth="yes"/>
      <point x="415" y="609" type="curve" smooth="yes"/>
      <point x="415" y="553"/>
      <point x="319" y="422"/>
    </contour>
  </outline>
</glyph>
<glyph name="bar" format="1">
  <advance width="346"/>
  <unicode hex="007C"/>
  <outline>
    <contour>
      <point x="287" y="833" type="curve" smooth="yes"/>
      <point x="287" y="918" smooth="yes"/>
      <point x="267" y="947" smooth="yes"/>
      <point x="230" y="947" type="curve" smooth="yes"/>
      <point x="213" y="947"/>
      <point x="180" y="935"/>
      <point x="167" y="919" type="curve"/>
      <point x="184" y="881" smooth="yes"/>
      <point x="187" y="836" smooth="yes"/>
      <point x="187" y="789" type="curve" smooth="yes"/>
      <point x="187" y="578" smooth="yes"/>
      <point x="98" y="167" smooth="yes"/>
      <point x="98" y="21" type="curve" smooth="yes" name="hr01"/>
      <point x="98" y="-93" smooth="yes"/>
      <point x="129" y="-128" smooth="yes"/>
      <point x="172" y="-128" type="curve" smooth="yes"/>
      <point x="190" y="-128"/>
      <point x="218" y="-120"/>
      <point x="230" y="-85" type="curve"/>
      <point x="199" y="-45" smooth="yes"/>
      <point x="193" y="8" smooth="yes"/>
      <point x="193" y="65" type="curve" smooth="yes"/>
      <point x="193" y="297" smooth="yes"/>
      <point x="287" y="692" smooth="yes"/>
    </contour>
  </outline>
</glyph>
<glyph name="braceright" format="1">
  <advance width="392"/>
  <unicode hex="007D"/>
  <outline>
    <contour>
      <point x="209" y="882" type="curve"/>
      <point x="190" y="773" smooth="yes"/>
      <point x="172" y="672" smooth="yes"/>
      <point x="172" y="591" type="curve" smooth="yes"/>
      <point x="172" y="531" smooth="yes"/>
      <point x="182" y="483" smooth="yes"/>
      <point x="207" y="449" type="curve" smooth="yes"/>
      <point x="213" y="441"/>
      <point x="221" y="432"/>
      <point x="230" y="425" type="curve"/>
      <point x="191" y="393" smooth="yes"/>
      <point x="159" y="338" smooth="yes"/>
      <point x="149" y="291" type="curve" smooth="yes"/>
      <point x="117" y="151"/>
      <point x="146" y="95"/>
      <point x="118" y="-53" type="curve"/>
      <point x="84" y="-53"/>
      <point x="-16" y="-31"/>
      <point x="-50" y="-11" type="curve"/>
      <point x="-56" y="-36" smooth="yes"/>
      <point x="-60" y="-53" smooth="yes"/>
      <point x="-60" y="-67" type="curve" smooth="yes"/>
      <point x="-60" y="-116" smooth="yes"/>
      <point x="16" y="-126" smooth="yes"/>
      <point x="89" y="-126" type="curve" smooth="yes"/>
      <point x="173" y="-126" smooth="yes"/>
      <point x="227" y="-117" smooth="yes"/>
      <point x="227" y="30" type="curve" smooth="yes"/>
      <point x="227" y="82" smooth="yes"/>
      <point x="222" y="140" smooth="yes"/>
      <point x="222" y="197" type="curve" smooth="yes"/>
      <point x="222" y="261"/>
      <point x="222" y="330"/>
      <point x="275" y="397" type="curve"/>
      <point x="284" y="393" smooth="yes"/>
      <point x="292" y="391" smooth="yes"/>
      <point x="299" y="391" type="curve" smooth="yes"/>
      <point x="310" y="391"/>
      <point x="323" y="405"/>
      <point x="331" y="422" type="curve"/>
      <point x="281" y="461" smooth="yes"/>
      <point x="256" y="519" smooth="yes"/>
      <point x="256" y="596" type="curve" smooth="yes"/>
      <point x="256" y="724" smooth="yes"/>
      <point x="320" y="844" smooth="yes"/>
      <point x="320" y="882" type="curve" smooth="yes"/>
      <point x="320" y="920" smooth="yes"/>
      <point x="286" y="951" smooth="yes"/>
      <point x="193" y="951" type="curve" smooth="yes"/>
      <point x="126" y="951"/>
      <point x="67" y="954"/>
      <point x="37" y="970" type="curve" name="hr01"/>
      <point x="35" y="959" smooth="yes"/>
      <point x="34" y="949" smooth="yes"/>
      <point x="34" y="940" type="curve" smooth="yes"/>
      <point x="34" y="881" smooth="yes"/>
      <point x="75" y="861" smooth="yes"/>
      <point x="121" y="861" type="curve" smooth="yes" name="hr02"/>
      <point x="151" y="861"/>
      <point x="182" y="870"/>
    </contour>
  </outline>
</glyph>
<glyph name="asciitilde" format="1">
  <advance width="544"/>
  <unicode hex="007E"/>
  <outline>
    <contour>
      <point x="420" y="507" type="curve"/>
      <point x="412" y="455" smooth="yes"/>
      <point x="386" y="434" smooth="yes"/>
      <point x="359" y="434" type="curve" smooth="yes"/>
      <point x="301" y="434" smooth="yes"/>
      <point x="281" y="506" smooth="yes"/>
      <point x="190" y="506" type="curve" smooth="yes" name="hr01"/>
      <point x="124" y="506" smooth="yes"/>
      <point x="73" y="440" smooth="yes"/>
      <point x="73" y="380" type="curve" smooth="yes"/>
      <point x="73" y="351"/>
      <point x="98" y="345"/>
      <point x="125" y="345" type="curve"/>
      <point x="133" y="397" smooth="yes"/>
      <point x="159" y="418" smooth="yes"/>
      <point x="186" y="418" type="curve" smooth="yes"/>
      <point x="244" y="418" smooth="yes"/>
      <point x="264" y="346" smooth="yes"/>
      <point x="355" y="346" type="curve" smooth="yes" name="hr02"/>
      <point x="421" y="346" smooth="yes"/>
      <point x="472" y="412" smooth="yes"/>
      <point x="472" y="472" type="curve" smooth="yes"/>
      <point x="472" y="501"/>
      <point x="447" y="507"/>
    </contour>
  </outline>
</glyph>
<glyph name="exclamdown" format="1">
  <advance width="388"/>
  <unicode hex="00A1"/>
  <outline>
    <contour>
      <point x="141" y="586" type="curve" smooth="yes"/>
      <point x="141" y="550" smooth="yes"/>
      <point x="171" y="536" smooth="yes"/>
      <point x="207" y="536" type="curve" smooth="yes"/>
      <point x="232" y="536"/>
      <point x="258" y="545"/>
      <point x="287" y="563" type="curve"/>
      <point x="292" y="590" smooth="yes"/>
      <point x="295" y="612" smooth="yes"/>
      <point x="295" y="628" type="curve" smooth="yes"/>
      <point x="295" y="665" smooth="yes"/>
      <point x="278" y="683" smooth="yes"/>
      <point x="232" y="683" type="curve" smooth="yes"/>
      <point x="208" y="683"/>
      <point x="181" y="673"/>
      <point x="153" y="655" type="curve"/>
      <point x="145" y="627" smooth="yes"/>
      <point x="141" y="603" smooth="yes"/>
    </contour>
    <contour>
      <point x="73" y="-112" type="curve" smooth="yes"/>
      <point x="73" y="-191" smooth="yes"/>
      <point x="98" y="-218" smooth="yes"/>
      <point x="145" y="-218" type="curve" smooth="yes"/>
      <point x="165" y="-218"/>
      <point x="200" y="-208"/>
      <point x="215" y="-195" type="curve"/>
      <point x="194" y="-155" smooth="yes"/>
      <point x="193" y="-108" smooth="yes"/>
      <point x="193" y="-60" type="curve" smooth="yes"/>
      <point x="193" y="55" smooth="yes"/>
      <point x="235" y="358" smooth="yes"/>
      <point x="235" y="386" type="curve" smooth="yes" name="hr01"/>
      <point x="235" y="415" smooth="yes"/>
      <point x="219" y="427" smooth="yes"/>
      <point x="200" y="427" type="curve" smooth="yes"/>
      <point x="183" y="427"/>
      <point x="168" y="424"/>
      <point x="152" y="411" type="curve"/>
      <point x="154" y="405" smooth="yes"/>
      <point x="155" y="398" smooth="yes"/>
      <point x="155" y="392" type="curve" smooth="yes"/>
      <point x="155" y="299" smooth="yes"/>
      <point x="73" y="-12" smooth="yes"/>
    </contour>
  </outline>
</glyph>
<glyph name="sterling" format="1">
  <advance width="669"/>
  <unicode hex="00A3"/>
  <outline>
    <contour>
      <point x="76" y="437" type="curve" smooth="yes" name="hr00"/>
      <point x="76" y="411"/>
      <point x="85" y="392"/>
      <point x="95" y="376" type="curve"/>
      <point x="113" y="387"/>
      <point x="154" y="393"/>
      <point x="180" y="394" type="curve"/>
      <point x="181" y="362" smooth="yes"/>
      <point x="182" y="330" smooth="yes"/>
      <point x="182" y="299" type="curve" smooth="yes"/>
      <point x="182" y="207"/>
      <point x="158" y="118"/>
      <point x="62" y="21" type="curve"/>
      <point x="73" y="-1" smooth="yes"/>
      <point x="92" y="-16" smooth="yes"/>
      <point x="117" y="-16" type="curve" smooth="yes"/>
      <point x="131" y="-16"/>
      <point x="142" y="-9"/>
      <point x="153" y="1" type="curve"/>
      <point x="214" y="16" smooth="yes"/>
      <point x="264" y="19" smooth="yes"/>
      <point x="347" y="19" type="curve" smooth="yes"/>
      <point x="481" y="19"/>
      <point x="536" y="10"/>
      <point x="597" y="-14" type="curve"/>
      <point x="598" y="-2" smooth="yes"/>
      <point x="599" y="10" smooth="yes"/>
      <point x="599" y="21" type="curve" smooth="yes"/>
      <point x="599" y="108" smooth="yes"/>
      <point x="540" y="116" smooth="yes"/>
      <point x="447" y="116" type="curve" smooth="yes"/>
      <point x="405" y="116"/>
      <point x="302" y="104"/>
      <point x="214" y="79" type="curve"/>
      <point x="273" y="174" smooth="yes"/>
      <point x="275" y="264" smooth="yes"/>
      <point x="275" y="352" type="curve" smooth="yes"/>
      <point x="275" y="392" type="line"/>
      <point x="316" y="391" smooth="yes"/>
      <point x="358" y="391" smooth="yes"/>
      <point x="374" y="391" type="curve" smooth="yes"/>
      <point x="452" y="391" smooth="yes"/>
      <point x="480" y="412" smooth="yes"/>
      <point x="480" y="442" type="curve" smooth="yes"/>
      <point x="480" y="458"/>
      <point x="477" y="473"/>
      <point x="465" y="488" type="curve"/>
      <point x="442" y="474" smooth="yes"/>
      <point x="367" y="467" smooth="yes"/>
      <point x="337" y="467" type="curve" smooth="yes"/>
      <point x="324" y="467"/>
      <point x="303" y="468"/>
      <point x="278" y="469" type="curve"/>
      <point x="280" y="507" smooth="yes"/>
      <point x="282" y="545" smooth="yes"/>
      <point x="282" y="584" type="curve" smooth="yes"/>
      <point x="282" y="749" smooth="yes"/>
      <point x="311" y="817" smooth="yes"/>
      <point x="403" y="817" type="curve" smooth="yes"/>
      <point x="496" y="817"/>
      <point x="533" y="752"/>
      <point x="537" y="663" type="curve"/>
      <point x="594" y="676" smooth="yes"/>
      <point x="615" y="703" smooth="yes"/>
      <point x="615" y="746" type="curve" smooth="yes"/>
      <point x="615" y="806" smooth="yes"/>
      <point x="570" y="887" smooth="yes"/>
      <point x="412" y="887" type="curve" smooth="yes"/>
      <point x="260" y="887" smooth="yes"/>
      <point x="175" y="756" smooth="yes"/>
      <point x="175" y="571" type="curve" smooth="yes"/>
      <point x="175" y="538"/>
      <point x="175" y="507"/>
      <point x="176" y="476" type="curve"/>
      <point x="157" y="477" smooth="yes"/>
      <point x="141" y="478" smooth="yes"/>
      <point x="132" y="478" type="curve" smooth="yes"/>
      <point x="100" y="478" smooth="yes"/>
      <point x="76" y="464" smooth="yes"/>
    </contour>
  </outline>
</glyph>
<glyph name="yen" format="1">
  <advance width="552"/>
  <unicode hex="00A5"/>
  <outline>
    <contour>
      <point x="484" y="800" type="curve" smooth="yes" name="hr00"/>
      <point x="484" y="701"/>
      <point x="381" y="581"/>
      <point x="302" y="419" type="curve"/>
      <point x="273" y="555" smooth="yes"/>
      <point x="227" y="729" smooth="yes"/>
      <point x="208" y="785" type="curve" smooth="yes"/>
      <point x="181" y="861" smooth="yes"/>
      <point x="145" y="889" smooth="yes"/>
      <point x="111" y="889" type="curve" smooth="yes"/>
      <point x="87" y="889"/>
      <point x="44" y="874"/>
      <point x="27" y="823" type="curve"/>
      <point x="95" y="823"/>
      <point x="152" y="648"/>
      <point x="196" y="459" type="curve"/>
      <point x="167" y="459" smooth="yes"/>
      <point x="139" y="461" smooth="yes"/>
      <point x="125" y="461" type="curve" smooth="yes"/>
      <point x="91" y="461" smooth="yes"/>
      <point x="64" y="448" smooth="yes"/>
      <point x="64" y="421" type="curve" smooth="yes"/>
      <point x="64" y="395"/>
      <point x="74" y="375"/>
      <point x="85" y="360" type="curve"/>
      <point x="108" y="373" smooth="yes"/>
      <point x="162" y="378" smooth="yes"/>
      <point x="189" y="378" type="curve" smooth="yes"/>
      <point x="194" y="378"/>
      <point x="203" y="378"/>
      <point x="214" y="377" type="curve"/>
      <point x="228" y="309" type="line"/>
      <point x="220" y="260" type="line"/>
      <point x="174" y="262" smooth="yes"/>
      <point x="129" y="265" smooth="yes"/>
      <point x="109" y="265" type="curve" smooth="yes"/>
      <point x="75" y="265" smooth="yes"/>
      <point x="48" y="252" smooth="yes"/>
      <point x="48" y="225" type="curve" smooth="yes"/>
      <point x="48" y="198"/>
      <point x="58" y="179"/>
      <point x="69" y="164" type="curve"/>
      <point x="92" y="177" smooth="yes"/>
      <point x="146" y="182" smooth="yes"/>
      <point x="173" y="182" type="curve" smooth="yes"/>
      <point x="179" y="182"/>
      <point x="193" y="182"/>
      <point x="209" y="181" type="curve"/>
      <point x="206" y="156" smooth="yes"/>
      <point x="205" y="134" smooth="yes"/>
      <point x="205" y="118" type="curve" smooth="yes"/>
      <point x="205" y="23" smooth="yes"/>
      <point x="234" y="-7" smooth="yes"/>
      <point x="280" y="-7" type="curve" smooth="yes"/>
      <point x="296" y="-7"/>
      <point x="325" y="0"/>
      <point x="350" y="29" type="curve"/>
      <point x="320" y="62"/>
      <point x="314" y="107"/>
      <point x="314" y="179" type="curve"/>
      <point x="341" y="178" smooth="yes"/>
      <point x="364" y="178" smooth="yes"/>
      <point x="376" y="178" type="curve" smooth="yes"/>
      <point x="462" y="178" smooth="yes"/>
      <point x="493" y="200" smooth="yes"/>
      <point x="493" y="230" type="curve" smooth="yes"/>
      <point x="493" y="246"/>
      <point x="489" y="261"/>
      <point x="476" y="276" type="curve"/>
      <point x="451" y="262"/>
      <point x="369" y="255"/>
      <point x="320" y="255" type="curve"/>
      <point x="324" y="301"/>
      <point x="331" y="339"/>
      <point x="348" y="375" type="curve"/>
      <point x="479" y="375" smooth="yes"/>
      <point x="509" y="396" smooth="yes"/>
      <point x="509" y="426" type="curve" smooth="yes"/>
      <point x="509" y="442"/>
      <point x="505" y="457"/>
      <point x="492" y="472" type="curve"/>
      <point x="475" y="462"/>
      <point x="430" y="455"/>
      <point x="393" y="453" type="curve"/>
      <point x="477" y="592" smooth="yes"/>
      <point x="591" y="779" smooth="yes"/>
      <point x="591" y="837" type="curve" smooth="yes"/>
      <point x="591" y="872" smooth="yes"/>
      <point x="573" y="885" smooth="yes"/>
      <point x="546" y="885" type="curve" smooth="yes"/>
      <point x="529" y="885"/>
      <point x="494" y="877"/>
      <point x="474" y="849" type="curve"/>
      <point x="482" y="834" smooth="yes"/>
      <point x="484" y="818" smooth="yes"/>
    </contour>
  </outline>
</glyph>
<glyph name="brokenbar" format="1">
  <advance width="346"/>
  <unicode hex="00A6"/>
  <outline>
    <contour>
      <point x="287" y="845" type="curve" smooth="yes"/>
      <point x="287" y="918" smooth="yes"/>
      <point x="267" y="947" smooth="yes"/>
      <point x="230" y="947" type="curve" smooth="yes"/>
      <point x="213" y="947"/>
      <point x="180" y="935"/>
      <point x="167" y="919" type="curve"/>
      <point x="184" y="881" smooth="yes"/>
      <point x="187" y="836" smooth="yes"/>
      <point x="187" y="789" type="curve" smooth="yes"/>
      <point x="187" y="680" smooth="yes"/>
      <point x="172" y="612" smooth="yes"/>
      <point x="172" y="590" type="curve" smooth="yes" name="hr01"/>
      <point x="172" y="538"/>
      <point x="220" y="533"/>
      <point x="248" y="533" type="curve"/>
      <point x="265" y="642" smooth="yes"/>
      <point x="287" y="737" smooth="yes"/>
    </contour>
    <contour>
      <point x="131" y="307" type="curve"/>
      <point x="116" y="213" smooth="yes"/>
      <point x="98" y="66" smooth="yes"/>
      <point x="98" y="21" type="curve" smooth="yes" name="hr02"/>
      <point x="98" y="-93" smooth="yes"/>
      <point x="129" y="-128" smooth="yes"/>
      <point x="172" y="-128" type="curve" smooth="yes" name="hr03"/>
      <point x="190" y="-128"/>
      <point x="218" y="-120"/>
      <point x="230" y="-85" type="curve"/>
      <point x="199" y="-45" smooth="yes"/>
      <point x="193" y="8" smooth="yes"/>
      <point x="193" y="65" type="curve" smooth="yes" name="hr04"/>
      <point x="193" y="111" smooth="yes"/>
      <point x="201" y="209" smooth="yes"/>
      <point x="207" y="264" type="curve" smooth="yes"/>
      <point x="207" y="260"/>
      <point x="188" y="307"/>
    </contour>
  </outline>
</glyph>
<glyph name="section" format="1">
  <advance width="563"/>
  <unicode hex="00A7"/>
  <outline>
    <contour>
      <point x="463" y="654" type="curve"/>
      <point x="481" y="667" smooth="yes"/>
      <point x="530" y="690" smooth="yes"/>
      <point x="530" y="773" type="curve" smooth="yes"/>
      <point x="530" y="842" smooth="yes"/>
      <point x="469" y="889" smooth="yes"/>
      <point x="385" y="889" type="curve" smooth="yes"/>
      <point x="223" y="889" smooth="yes"/>
      <point x="97" y="799" smooth="yes"/>
      <point x="97" y="637" type="curve" smooth="yes"/>
      <point x="97" y="552" smooth="yes"/>
      <point x="153" y="499" smooth="yes"/>
      <point x="211" y="447" type="curve" smooth="yes"/>
      <point x="475" y="210" type="line"/>
      <point x="475" y="318" smooth="yes"/>
      <point x="464" y="354" smooth="yes"/>
      <point x="402" y="410" type="curve" smooth="yes"/>
      <point x="275" y="524" type="line" smooth="yes"/>
      <point x="238" y="557" smooth="yes"/>
      <point x="192" y="585" smooth="yes"/>
      <point x="192" y="665" type="curve" smooth="yes"/>
      <point x="192" y="763" smooth="yes"/>
      <point x="254" y="815" smooth="yes"/>
      <point x="329" y="815" type="curve" smooth="yes"/>
      <point x="411" y="815"/>
      <point x="463" y="758"/>
    </contour>
    <contour>
      <point x="112" y="410" type="line"/>
      <point x="112" y="302" smooth="yes"/>
      <point x="123" y="266" smooth="yes"/>
      <point x="185" y="210" type="curve" smooth="yes"/>
      <point x="312" y="96" type="line" smooth="yes"/>
      <point x="362" y="51" smooth="yes"/>
      <point x="386" y="-8" smooth="yes"/>
      <point x="386" y="-64" type="curve" smooth="yes" name="hr01"/>
      <point x="386" y="-168" smooth="yes"/>
      <point x="301" y="-208" smooth="yes"/>
      <point x="230" y="-208" type="curve" smooth="yes"/>
      <point x="129" y="-208"/>
      <point x="59" y="-152"/>
      <point x="39" y="-30" type="curve"/>
      <point x="10" y="-61" smooth="yes"/>
      <point x="-20" y="-95" smooth="yes"/>
      <point x="-20" y="-140" type="curve" smooth="yes"/>
      <point x="-20" y="-232" smooth="yes"/>
      <point x="91" y="-274" smooth="yes"/>
      <point x="200" y="-274" type="curve" smooth="yes"/>
      <point x="371" y="-274" smooth="yes"/>
      <point x="488" y="-162" smooth="yes"/>
      <point x="488" y="-25" type="curve" smooth="yes"/>
      <point x="488" y="67" smooth="yes"/>
      <point x="439" y="116" smooth="yes"/>
      <point x="376" y="173" type="curve" smooth="yes"/>
    </contour>
  </outline>
</glyph>
<glyph name="dieresis" format="1">
  <advance width="378"/>
  <unicode hex="00A8"/>
  <outline>
    <contour>
      <point x="139" y="841" type="curve" smooth="yes" name="hr00"/>
      <point x="139" y="872" smooth="yes"/>
      <point x="112" y="884" smooth="yes"/>
      <point x="81" y="884" type="curve" smooth="yes"/>
      <point x="59" y="884"/>
      <point x="36" y="876"/>
      <point x="12" y="861" type="curve"/>
      <point x="7" y="837" smooth="yes"/>
      <point x="5" y="818" smooth="yes"/>
      <point x="5" y="804" type="curve" smooth="yes"/>
      <point x="5" y="772" smooth="yes"/>
      <point x="19" y="757" smooth="yes"/>
      <point x="59" y="757" type="curve" smooth="yes"/>
      <point x="80" y="757"/>
      <point x="104" y="765"/>
      <point x="128" y="780" type="curve"/>
      <point x="135" y="806" smooth="yes"/>
      <point x="139" y="826" smooth="yes"/>
    </contour>
    <contour>
      <point x="373" y="841" type="curve" smooth="yes"/>
      <point x="373" y="872" smooth="yes"/>
      <point x="346" y="884" smooth="yes"/>
      <point x="315" y="884" type="curve" smooth="yes"/>
      <point x="293" y="884"/>
      <point x="271" y="876"/>
      <point x="246" y="861" type="curve"/>
      <point x="242" y="837" smooth="yes"/>
      <point x="239" y="818" smooth="yes"/>
      <point x="239" y="804" type="curve" smooth="yes"/>
      <point x="239" y="772" smooth="yes"/>
      <point x="253" y="757" smooth="yes"/>
      <point x="293" y="757" type="curve" smooth="yes"/>
      <point x="314" y="757"/>
      <point x="338" y="765"/>
      <point x="362" y="780" type="curve"/>
      <point x="370" y="806" smooth="yes"/>
      <point x="373" y="826" smooth="yes"/>
    </contour>
  </outline>
</glyph>
<glyph name="copyright" format="1">
  <advance width="780"/>
  <unicode hex="00A9"/>
  <outline>
    <contour>
      <point x="428" y="822" type="curve" smooth="yes" name="hr00"/>
      <point x="296" y="822" smooth="yes"/>
      <point x="230" y="668" smooth="yes"/>
      <point x="230" y="540" type="curve" smooth="yes"/>
      <point x="230" y="438" smooth="yes"/>
      <point x="273" y="356" smooth="yes"/>
      <point x="379" y="356" type="curve" smooth="yes"/>
      <point x="438" y="356" smooth="yes"/>
      <point x="495" y="393" smooth="yes"/>
      <point x="495" y="430" type="curve" smooth="yes"/>
      <point x="495" y="444"/>
      <point x="487" y="460"/>
      <point x="474" y="475" type="curve"/>
      <point x="458" y="426" smooth="yes"/>
      <point x="428" y="402" smooth="yes"/>
      <point x="393" y="402" type="curve" smooth="yes"/>
      <point x="326" y="402" smooth="yes"/>
      <point x="294" y="460" smooth="yes"/>
      <point x="294" y="564" type="curve" smooth="yes"/>
      <point x="294" y="624" smooth="yes"/>
      <point x="314" y="774" smooth="yes"/>
      <point x="402" y="774" type="curve" smooth="yes"/>
      <point x="441" y="774"/>
      <point x="463" y="749"/>
      <point x="479" y="713" type="curve"/>
      <point x="492" y="724" smooth="yes"/>
      <point x="512" y="741" smooth="yes"/>
      <point x="512" y="770" type="curve" smooth="yes"/>
      <point x="512" y="805" smooth="yes"/>
      <point x="475" y="822" smooth="yes"/>
    </contour>
    <contour>
      <point x="635" y="630" type="curve" smooth="yes"/>
      <point x="635" y="526" smooth="yes"/>
      <point x="559" y="267" smooth="yes"/>
      <point x="357" y="267" type="curve" smooth="yes"/>
      <point x="209" y="267" smooth="yes"/>
      <point x="145" y="359" smooth="yes"/>
      <point x="145" y="541" type="curve" smooth="yes"/>
      <point x="145" y="645" smooth="yes"/>
      <point x="220" y="904" smooth="yes"/>
      <point x="421" y="904" type="curve" smooth="yes"/>
      <point x="568" y="904" smooth="yes"/>
      <point x="635" y="812" smooth="yes"/>
    </contour>
    <contour>
      <point x="326" y="210" type="curve" smooth="yes"/>
      <point x="587" y="210" smooth="yes"/>
      <point x="713" y="463" smooth="yes"/>
      <point x="713" y="664" type="curve" smooth="yes"/>
      <point x="713" y="824" smooth="yes"/>
      <point x="625" y="962" smooth="yes"/>
      <point x="454" y="962" type="curve" smooth="yes"/>
      <point x="193" y="962" smooth="yes"/>
      <point x="67" y="708" smooth="yes"/>
      <point x="67" y="507" type="curve" smooth="yes"/>
      <point x="67" y="347" smooth="yes"/>
      <point x="155" y="210" smooth="yes"/>
    </contour>
  </outline>
</glyph>
<glyph name="ordfeminine" format="1">
  <advance width="474"/>
  <unicode hex="00AA"/>
  <outline>
    <contour>
      <point x="298" y="607" type="line" name="hr00"/>
      <point x="298" y="505" smooth="yes"/>
      <point x="317" y="460" smooth="yes"/>
      <point x="354" y="460" type="curve" smooth="yes"/>
      <point x="370" y="460"/>
      <point x="386" y="469"/>
      <point x="400" y="487" type="curve"/>
      <point x="380" y="521" smooth="yes"/>
      <point x="373" y="558" smooth="yes"/>
      <point x="373" y="627" type="curve" smooth="yes"/>
      <point x="373" y="708"/>
      <point x="385" y="812"/>
      <point x="399" y="851" type="curve"/>
      <point x="386" y="865" smooth="yes"/>
      <point x="375" y="870" smooth="yes"/>
      <point x="360" y="870" type="curve" smooth="yes"/>
      <point x="342" y="870"/>
      <point x="332" y="862"/>
      <point x="326" y="843" type="curve"/>
      <point x="304" y="864" smooth="yes"/>
      <point x="276" y="876" smooth="yes"/>
      <point x="246" y="876" type="curve" smooth="yes"/>
      <point x="146" y="876" smooth="yes"/>
      <point x="68" y="759" smooth="yes"/>
      <point x="68" y="609" type="curve" smooth="yes"/>
      <point x="68" y="514" smooth="yes"/>
      <point x="103" y="456" smooth="yes"/>
      <point x="161" y="456" type="curve" smooth="yes"/>
      <point x="200" y="456"/>
      <point x="253" y="518"/>
      <point x="293" y="607" type="curve"/>
    </contour>
    <contour>
      <point x="180" y="529" type="curve" smooth="yes"/>
      <point x="156" y="529" smooth="yes"/>
      <point x="141" y="564" smooth="yes"/>
      <point x="141" y="623" type="curve" smooth="yes"/>
      <point x="141" y="742" smooth="yes"/>
      <point x="186" y="825" smooth="yes"/>
      <point x="248" y="825" type="curve" smooth="yes"/>
      <point x="269" y="825"/>
      <point x="292" y="815"/>
      <point x="317" y="797" type="curve"/>
      <point x="304" y="689" smooth="yes"/>
      <point x="222" y="529" smooth="yes"/>
    </contour>
  </outline>
</glyph>
<glyph name="guillemotleft" format="1">
  <advance width="513"/>
  <unicode hex="00AB"/>
  <outline>
    <contour>
      <point x="40" y="354" type="curve" name="hr00"/>
      <point x="162" y="311" smooth="yes"/>
      <point x="35" y="104" smooth="yes"/>
      <point x="176" y="104" type="curve" smooth="yes"/>
      <point x="193" y="104"/>
      <point x="227" y="110"/>
      <point x="239" y="120" type="curve"/>
      <point x="153" y="167"/>
      <point x="219" y="311"/>
      <point x="142" y="354" type="curve"/>
      <point x="223" y="398"/>
      <point x="183" y="541"/>
      <point x="275" y="588" type="curve"/>
      <point x="263" y="598" smooth="yes"/>
      <point x="229" y="604" smooth="yes"/>
      <point x="212" y="604" type="curve" smooth="yes"/>
      <point x="71" y="604"/>
      <point x="166" y="397"/>
    </contour>
    <contour>
      <point x="240" y="354" type="curve"/>
      <point x="362" y="311" smooth="yes"/>
      <point x="235" y="104" smooth="yes"/>
      <point x="376" y="104" type="curve" smooth="yes"/>
      <point x="393" y="104"/>
      <point x="427" y="110"/>
      <point x="439" y="120" type="curve"/>
      <point x="353" y="167"/>
      <point x="419" y="311"/>
      <point x="342" y="354" type="curve"/>
      <point x="423" y="398"/>
      <point x="383" y="541"/>
      <point x="475" y="588" type="curve"/>
      <point x="463" y="598" smooth="yes"/>
      <point x="429" y="604" smooth="yes"/>
      <point x="412" y="604" type="curve" smooth="yes"/>
      <point x="271" y="604"/>
      <point x="366" y="397"/>
    </contour>
  </outline>
</glyph>
<glyph name="logicalnot" format="1">
  <advance width="544"/>
  <unicode hex="00AC"/>
  <outline>
    <contour>
      <point x="49" y="437" type="curve" smooth="yes" name="hr00"/>
      <point x="49" y="411"/>
      <point x="58" y="387"/>
      <point x="68" y="372" type="curve"/>
      <point x="91" y="384" smooth="yes"/>
      <point x="146" y="389" smooth="yes"/>
      <point x="174" y="389" type="curve" smooth="yes"/>
      <point x="203" y="389" smooth="yes"/>
      <point x="347" y="386" smooth="yes"/>
      <point x="383" y="386" type="curve" smooth="yes"/>
      <point x="393" y="386"/>
      <point x="403" y="386"/>
      <point x="412" y="387" type="curve"/>
      <point x="401" y="351" smooth="yes"/>
      <point x="395" y="314" smooth="yes"/>
      <point x="395" y="280" type="curve" smooth="yes"/>
      <point x="395" y="206" smooth="yes"/>
      <point x="419" y="182" smooth="yes"/>
      <point x="457" y="182" type="curve" smooth="yes"/>
      <point x="471" y="182"/>
      <point x="494" y="188"/>
      <point x="515" y="212" type="curve"/>
      <point x="492" y="239" smooth="yes"/>
      <point x="486" y="262" smooth="yes"/>
      <point x="486" y="296" type="curve" smooth="yes"/>
      <point x="486" y="381" smooth="yes"/>
      <point x="501" y="412" smooth="yes"/>
      <point x="501" y="442" type="curve" smooth="yes"/>
      <point x="501" y="458"/>
      <point x="499" y="478"/>
      <point x="486" y="493" type="curve"/>
      <point x="461" y="479" smooth="yes"/>
      <point x="376" y="472" smooth="yes"/>
      <point x="342" y="472" type="curve" smooth="yes"/>
      <point x="296" y="472" smooth="yes"/>
      <point x="150" y="482" smooth="yes"/>
      <point x="109" y="482" type="curve" smooth="yes"/>
      <point x="73" y="482" smooth="yes"/>
      <point x="49" y="464" smooth="yes"/>
    </contour>
  </outline>
</glyph>
<glyph name="registered" format="1">
  <advance width="780"/>
  <unicode hex="00AE"/>
  <outline>
    <contour>
      <point x="522" y="713" type="curve" smooth="yes"/>
      <point x="522" y="795" smooth="yes"/>
      <point x="461" y="816" smooth="yes"/>
      <point x="389" y="816" type="curve" smooth="yes"/>
      <point x="352" y="816"/>
      <point x="308" y="810"/>
      <point x="271" y="803" type="curve"/>
      <point x="275" y="788" smooth="yes"/>
      <point x="279" y="764" smooth="yes"/>
      <point x="279" y="749" type="curve" smooth="yes"/>
      <point x="279" y="639" smooth="yes"/>
      <point x="241" y="508" smooth="yes"/>
      <point x="241" y="428" type="curve" smooth="yes" name="hr01"/>
      <point x="241" y="373" smooth="yes"/>
      <point x="258" y="356" smooth="yes"/>
      <point x="285" y="356" type="curve" smooth="yes"/>
      <point x="294" y="356"/>
      <point x="310" y="361"/>
      <point x="326" y="379" type="curve"/>
      <point x="308" y="399" smooth="yes"/>
      <point x="305" y="423" smooth="yes"/>
      <point x="305" y="448" type="curve" smooth="yes"/>
      <point x="305" y="471"/>
      <point x="308" y="502"/>
      <point x="313" y="534" type="curve"/>
      <point x="324" y="537"/>
      <point x="336" y="540"/>
      <point x="347" y="544" type="curve"/>
      <point x="386" y="467" smooth="yes"/>
      <point x="413" y="408" smooth="yes"/>
      <point x="425" y="390" type="curve" smooth="yes"/>
      <point x="446" y="359" smooth="yes"/>
      <point x="463" y="355" smooth="yes"/>
      <point x="478" y="355" type="curve" smooth="yes"/>
      <point x="489" y="355"/>
      <point x="517" y="363"/>
      <point x="522" y="407" type="curve"/>
      <point x="499" y="409"/>
      <point x="478" y="425"/>
      <point x="466" y="443" type="curve"/>
      <point x="449" y="465"/>
      <point x="428" y="508"/>
      <point x="401" y="565" type="curve"/>
      <point x="464" y="594" smooth="yes"/>
      <point x="522" y="642" smooth="yes"/>
    </contour>
    <contour>
      <point x="319" y="578" type="curve"/>
      <point x="337" y="687"/>
      <point x="345" y="742"/>
      <point x="346" y="775" type="curve" name="hr02"/>
      <point x="358" y="776" smooth="yes"/>
      <point x="366" y="777" smooth="yes"/>
      <point x="376" y="777" type="curve" smooth="yes"/>
      <point x="423" y="777" smooth="yes"/>
      <point x="460" y="757" smooth="yes"/>
      <point x="460" y="703" type="curve" smooth="yes"/>
      <point x="460" y="631"/>
      <point x="388" y="594"/>
    </contour>
    <contour>
      <point x="635" y="630" type="curve" smooth="yes"/>
      <point x="635" y="526" smooth="yes"/>
      <point x="559" y="267" smooth="yes"/>
      <point x="357" y="267" type="curve" smooth="yes"/>
      <point x="209" y="267" smooth="yes"/>
      <point x="145" y="359" smooth="yes"/>
      <point x="145" y="541" type="curve" smooth="yes"/>
      <point x="145" y="645" smooth="yes"/>
      <point x="220" y="904" smooth="yes"/>
      <point x="421" y="904" type="curve" smooth="yes"/>
      <point x="568" y="904" smooth="yes"/>
      <point x="635" y="812" smooth="yes"/>
    </contour>
    <contour>
      <point x="326" y="210" type="curve" smooth="yes"/>
      <point x="587" y="210" smooth="yes"/>
      <point x="713" y="463" smooth="yes"/>
      <point x="713" y="664" type="curve" smooth="yes"/>
      <point x="713" y="824" smooth="yes"/>
      <point x="625" y="962" smooth="yes"/>
      <point x="454" y="962" type="curve" smooth="yes"/>
      <point x="193" y="962" smooth="yes"/>
      <point x="67" y="708" smooth="yes"/>
      <point x="67" y="507" type="curve" smooth="yes"/>
      <point x="67" y="347" smooth="yes"/>
      <point x="155" y="210" smooth="yes"/>
    </contour>
  </outline>
</glyph>
<glyph name="macron" format="1">
  <advance width="400"/>
  <unicode hex="00AF"/>
  <outline>
    <contour>
      <point x="64" y="829" type="curve" smooth="yes"/>
      <point x="64" y="807"/>
      <point x="75" y="779"/>
      <point x="85" y="766" type="curve"/>
      <point x="104" y="776" smooth="yes"/>
      <point x="143" y="781" smooth="yes"/>
      <point x="166" y="781" type="curve" smooth="yes" name="hr01"/>
      <point x="190" y="781" smooth="yes"/>
      <point x="226" y="777" smooth="yes"/>
      <point x="256" y="777" type="curve" smooth="yes"/>
      <point x="326" y="777" smooth="yes"/>
      <point x="350" y="799" smooth="yes"/>
      <point x="350" y="829" type="curve" smooth="yes"/>
      <point x="350" y="846"/>
      <point x="347" y="861"/>
      <point x="336" y="874" type="curve" name="hr02"/>
      <point x="316" y="862" smooth="yes"/>
      <point x="293" y="855" smooth="yes"/>
      <point x="265" y="855" type="curve" smooth="yes" name="hr03"/>
      <point x="229" y="855" smooth="yes"/>
      <point x="154" y="865" smooth="yes"/>
      <point x="120" y="865" type="curve" smooth="yes"/>
      <point x="92" y="865" smooth="yes"/>
      <point x="64" y="855" smooth="yes"/>
    </contour>
  </outline>
</glyph>
<glyph name="degree" format="1">
  <advance width="391"/>
  <unicode hex="00B0"/>
  <outline>
    <contour>
      <point x="231" y="919" type="curve" smooth="yes" name="hr00"/>
      <point x="274" y="919" smooth="yes"/>
      <point x="298" y="885" smooth="yes"/>
      <point x="298" y="817" type="curve" smooth="yes"/>
      <point x="298" y="761" smooth="yes"/>
      <point x="280" y="648" smooth="yes"/>
      <point x="215" y="648" type="curve" smooth="yes"/>
      <point x="173" y="648" smooth="yes"/>
      <point x="149" y="682" smooth="yes"/>
      <point x="149" y="749" type="curve" smooth="yes"/>
      <point x="149" y="807" smooth="yes"/>
      <point x="166" y="919" smooth="yes"/>
    </contour>
    <contour>
      <point x="251" y="974" type="curve" smooth="yes"/>
      <point x="159" y="974" smooth="yes"/>
      <point x="60" y="894" smooth="yes"/>
      <point x="60" y="756" type="curve" smooth="yes"/>
      <point x="60" y="616" smooth="yes"/>
      <point x="170" y="592" smooth="yes"/>
      <point x="201" y="592" type="curve" smooth="yes"/>
      <point x="292" y="592" smooth="yes"/>
      <point x="391" y="672" smooth="yes"/>
      <point x="391" y="812" type="curve" smooth="yes"/>
      <point x="391" y="951" smooth="yes"/>
      <point x="281" y="974" smooth="yes"/>
    </contour>
  </outline>
</glyph>
<glyph name="plusminus" format="1">
  <advance width="544"/>
  <unicode hex="00B1"/>
  <outline>
    <contour>
      <point x="337" y="586" type="curve" smooth="yes"/>
      <point x="337" y="640" smooth="yes"/>
      <point x="319" y="658" smooth="yes"/>
      <point x="287" y="658" type="curve" smooth="yes"/>
      <point x="271" y="658"/>
      <point x="244" y="650"/>
      <point x="232" y="640" type="curve"/>
      <point x="244" y="615" smooth="yes"/>
      <point x="246" y="588" smooth="yes"/>
      <point x="246" y="560" type="curve" smooth="yes"/>
      <point x="246" y="539"/>
      <point x="241" y="509"/>
      <point x="236" y="476" type="curve"/>
      <point x="184" y="478" smooth="yes"/>
      <point x="131" y="482" smooth="yes"/>
      <point x="109" y="482" type="curve" smooth="yes"/>
      <point x="73" y="482" smooth="yes"/>
      <point x="49" y="464" smooth="yes"/>
      <point x="49" y="437" type="curve" smooth="yes"/>
      <point x="49" y="411"/>
      <point x="58" y="387"/>
      <point x="68" y="372" type="curve"/>
      <point x="91" y="384" smooth="yes"/>
      <point x="146" y="389" smooth="yes"/>
      <point x="174" y="389" type="curve" smooth="yes"/>
      <point x="182" y="389"/>
      <point x="200" y="389"/>
      <point x="222" y="388" type="curve"/>
      <point x="218" y="359" smooth="yes"/>
      <point x="216" y="330" smooth="yes"/>
      <point x="216" y="303" type="curve" smooth="yes" name="hr01"/>
      <point x="216" y="229" smooth="yes"/>
      <point x="240" y="205" smooth="yes"/>
      <point x="278" y="205" type="curve" smooth="yes"/>
      <point x="292" y="205"/>
      <point x="315" y="211"/>
      <point x="336" y="235" type="curve"/>
      <point x="313" y="262" smooth="yes"/>
      <point x="307" y="285" smooth="yes"/>
      <point x="307" y="319" type="curve" smooth="yes"/>
      <point x="307" y="337"/>
      <point x="309" y="361"/>
      <point x="312" y="386" type="curve"/>
      <point x="383" y="386" type="line" smooth="yes"/>
      <point x="471" y="386" smooth="yes"/>
      <point x="501" y="412" smooth="yes"/>
      <point x="501" y="442" type="curve" smooth="yes"/>
      <point x="501" y="458"/>
      <point x="499" y="478"/>
      <point x="486" y="493" type="curve"/>
      <point x="461" y="479" smooth="yes"/>
      <point x="376" y="472" smooth="yes"/>
      <point x="342" y="472" type="curve" smooth="yes"/>
      <point x="324" y="472" type="line"/>
      <point x="330" y="517" smooth="yes"/>
      <point x="337" y="560" smooth="yes"/>
    </contour>
    <contour>
      <point x="49" y="37" type="curve" smooth="yes"/>
      <point x="49" y="11"/>
      <point x="58" y="-13"/>
      <point x="68" y="-28" type="curve"/>
      <point x="91" y="-16" smooth="yes"/>
      <point x="146" y="-11" smooth="yes"/>
      <point x="174" y="-11" type="curve" smooth="yes" name="hr03"/>
      <point x="203" y="-11" smooth="yes"/>
      <point x="347" y="-14" smooth="yes"/>
      <point x="383" y="-14" type="curve" smooth="yes" name="hr04"/>
      <point x="471" y="-14" smooth="yes"/>
      <point x="501" y="12" smooth="yes"/>
      <point x="501" y="42" type="curve" smooth="yes"/>
      <point x="501" y="58"/>
      <point x="499" y="78"/>
      <point x="486" y="93" type="curve"/>
      <point x="461" y="79" smooth="yes"/>
      <point x="376" y="72" smooth="yes"/>
      <point x="342" y="72" type="curve" smooth="yes" name="hr05"/>
      <point x="296" y="72" smooth="yes"/>
      <point x="150" y="82" smooth="yes"/>
      <point x="109" y="82" type="curve" smooth="yes"/>
      <point x="73" y="82" smooth="yes"/>
      <point x="49" y="64" smooth="yes"/>
    </contour>
  </outline>
</glyph>
<glyph name="threesuperior" format="1">
  <advance width="403"/>
  <unicode hex="00B3"/>
  <outline>
    <contour>
      <point x="98" y="666" type="line" name="hr00"/>
      <point x="126" y="668"/>
      <point x="150" y="672"/>
      <point x="168" y="676" type="curve"/>
      <point x="225" y="670" smooth="yes"/>
      <point x="247" y="634" smooth="yes"/>
      <point x="247" y="597" type="curve" smooth="yes"/>
      <point x="247" y="549" smooth="yes"/>
      <point x="212" y="496" smooth="yes"/>
      <point x="149" y="496" type="curve" smooth="yes"/>
      <point x="105" y="496"/>
      <point x="84" y="528"/>
      <point x="75" y="571" type="curve"/>
      <point x="36" y="555" smooth="yes"/>
      <point x="21" y="539" smooth="yes"/>
      <point x="21" y="522" type="curve" smooth="yes"/>
      <point x="21" y="480" smooth="yes"/>
      <point x="69" y="437" smooth="yes"/>
      <point x="135" y="437" type="curve" smooth="yes"/>
      <point x="277" y="437" smooth="yes"/>
      <point x="330" y="543" smooth="yes"/>
      <point x="330" y="606" type="curve" smooth="yes"/>
      <point x="330" y="658"/>
      <point x="304" y="696"/>
      <point x="251" y="714" type="curve"/>
      <point x="298" y="747" smooth="yes"/>
      <point x="322" y="791" smooth="yes"/>
      <point x="322" y="827" type="curve" smooth="yes"/>
      <point x="322" y="894" smooth="yes"/>
      <point x="282" y="942" smooth="yes"/>
      <point x="184" y="942" type="curve" smooth="yes"/>
      <point x="86" y="942" smooth="yes"/>
      <point x="54" y="893" smooth="yes"/>
      <point x="54" y="866" type="curve" smooth="yes"/>
      <point x="54" y="843"/>
      <point x="66" y="831"/>
      <point x="105" y="816" type="curve"/>
      <point x="113" y="852" smooth="yes"/>
      <point x="133" y="885" smooth="yes"/>
      <point x="177" y="885" type="curve" smooth="yes"/>
      <point x="218" y="885" smooth="yes"/>
      <point x="240" y="853" smooth="yes"/>
      <point x="240" y="819" type="curve" smooth="yes"/>
      <point x="240" y="781" smooth="yes"/>
      <point x="204" y="735" smooth="yes"/>
      <point x="129" y="725" type="curve" smooth="yes"/>
      <point x="104" y="721" smooth="yes"/>
      <point x="98" y="719" smooth="yes"/>
      <point x="98" y="691" type="curve" smooth="yes"/>
    </contour>
  </outline>
</glyph>
<glyph name="mu" format="1">
  <advance width="677"/>
  <unicode hex="00B5"/>
  <outline>
    <contour>
      <point x="240" y="597" type="curve" smooth="yes"/>
      <point x="240" y="653" smooth="yes"/>
      <point x="208" y="673" smooth="yes"/>
      <point x="173" y="673" type="curve" smooth="yes"/>
      <point x="153" y="673"/>
      <point x="121" y="664"/>
      <point x="106" y="650" type="curve"/>
      <point x="126" y="612" smooth="yes"/>
      <point x="127" y="563" smooth="yes"/>
      <point x="127" y="521" type="curve" smooth="yes"/>
      <point x="127" y="315" smooth="yes"/>
      <point x="74" y="4" smooth="yes"/>
      <point x="74" y="-118" type="curve" smooth="yes" name="hr01"/>
      <point x="74" y="-235" smooth="yes"/>
      <point x="110" y="-271" smooth="yes"/>
      <point x="159" y="-271" type="curve" smooth="yes"/>
      <point x="176" y="-271"/>
      <point x="203" y="-264"/>
      <point x="227" y="-235" type="curve"/>
      <point x="184" y="-191" smooth="yes"/>
      <point x="175" y="-125" smooth="yes"/>
      <point x="175" y="-61" type="curve" smooth="yes"/>
      <point x="175" y="-42"/>
      <point x="175" y="-21"/>
      <point x="176" y="-1" type="curve"/>
      <point x="184" y="-10" smooth="yes"/>
      <point x="194" y="-16" smooth="yes"/>
      <point x="209" y="-16" type="curve" smooth="yes"/>
      <point x="306" y="-16"/>
      <point x="393" y="173"/>
      <point x="462" y="335" type="curve"/>
      <point x="458" y="298" smooth="yes"/>
      <point x="450" y="250" smooth="yes"/>
      <point x="450" y="204" type="curve" smooth="yes"/>
      <point x="450" y="71" smooth="yes"/>
      <point x="478" y="-7" smooth="yes"/>
      <point x="536" y="-7" type="curve" smooth="yes" name="hr02"/>
      <point x="559" y="-7"/>
      <point x="583" y="4"/>
      <point x="604" y="30" type="curve"/>
      <point x="566" y="92" smooth="yes"/>
      <point x="557" y="162" smooth="yes"/>
      <point x="557" y="269" type="curve" smooth="yes"/>
      <point x="557" y="362" smooth="yes"/>
      <point x="595" y="491" smooth="yes"/>
      <point x="595" y="597" type="curve" smooth="yes" name="hr03"/>
      <point x="595" y="653" smooth="yes"/>
      <point x="562" y="673" smooth="yes"/>
      <point x="527" y="673" type="curve" smooth="yes"/>
      <point x="508" y="673"/>
      <point x="476" y="664"/>
      <point x="460" y="650" type="curve"/>
      <point x="470" y="627" smooth="yes"/>
      <point x="475" y="600" smooth="yes"/>
      <point x="475" y="569" type="curve" smooth="yes"/>
      <point x="475" y="435" smooth="yes"/>
      <point x="326" y="80" smooth="yes"/>
      <point x="241" y="80" type="curve" smooth="yes"/>
      <point x="205" y="80" smooth="yes"/>
      <point x="189" y="111" smooth="yes"/>
      <point x="189" y="175" type="curve" smooth="yes"/>
      <point x="189" y="224" smooth="yes"/>
      <point x="240" y="546" smooth="yes"/>
    </contour>
  </outline>
</glyph>
<glyph name="paragraph" format="1">
  <advance width="567"/>
  <unicode hex="00B6"/>
  <outline>
    <contour>
      <point x="489" y="864" type="curve" name="hr00"/>
      <point x="463" y="884" smooth="yes"/>
      <point x="421" y="890" smooth="yes"/>
      <point x="381" y="890" type="curve" smooth="yes"/>
      <point x="161" y="890" smooth="yes"/>
      <point x="35" y="724" smooth="yes"/>
      <point x="35" y="581" type="curve" smooth="yes"/>
      <point x="35" y="472" smooth="yes"/>
      <point x="106" y="369" smooth="yes"/>
      <point x="263" y="369" type="curve" smooth="yes"/>
      <point x="276" y="369"/>
      <point x="288" y="369"/>
      <point x="301" y="371" type="curve"/>
      <point x="286" y="218" smooth="yes"/>
      <point x="269" y="57" smooth="yes"/>
      <point x="251" y="-31" type="curve" smooth="yes"/>
      <point x="241" y="-82"/>
      <point x="221" y="-139"/>
      <point x="165" y="-158" type="curve"/>
      <point x="166" y="-187" smooth="yes"/>
      <point x="196" y="-204" smooth="yes"/>
      <point x="226" y="-204" type="curve" smooth="yes"/>
      <point x="255" y="-204" smooth="yes"/>
      <point x="316" y="-196" smooth="yes"/>
      <point x="341" y="-72" type="curve" smooth="yes"/>
      <point x="355" y="-1"/>
      <point x="374" y="203"/>
      <point x="394" y="394" type="curve"/>
      <point x="490" y="433" smooth="yes"/>
      <point x="547" y="504" smooth="yes"/>
      <point x="547" y="531" type="curve" smooth="yes"/>
      <point x="547" y="558"/>
      <point x="533" y="572"/>
      <point x="492" y="588" type="curve"/>
      <point x="481" y="558"/>
      <point x="448" y="517"/>
      <point x="404" y="486" type="curve"/>
      <point x="416" y="586" smooth="yes"/>
      <point x="427" y="676" smooth="yes"/>
      <point x="438" y="730" type="curve" smooth="yes"/>
      <point x="448" y="778"/>
      <point x="458" y="825"/>
    </contour>
    <contour>
      <point x="336" y="733" type="curve" smooth="yes"/>
      <point x="330" y="701"/>
      <point x="320" y="581"/>
      <point x="307" y="441" type="curve"/>
      <point x="298" y="440" smooth="yes"/>
      <point x="289" y="439" smooth="yes"/>
      <point x="280" y="439" type="curve" smooth="yes"/>
      <point x="185" y="439" smooth="yes"/>
      <point x="140" y="520" smooth="yes"/>
      <point x="140" y="602" type="curve" smooth="yes"/>
      <point x="140" y="713"/>
      <point x="218" y="823"/>
      <point x="377" y="833" type="curve"/>
      <point x="357" y="811" smooth="yes"/>
      <point x="344" y="778" smooth="yes"/>
    </contour>
  </outline>
</glyph>
<glyph name="periodcentered" format="1">
  <advance width="295"/>
  <unicode hex="00B7"/>
  <outline>
    <contour>
      <point x="225" y="415" type="curve" smooth="yes" name="hr00"/>
      <point x="225" y="451" smooth="yes"/>
      <point x="194" y="465" smooth="yes"/>
      <point x="159" y="465" type="curve" smooth="yes"/>
      <point x="133" y="465"/>
      <point x="107" y="456"/>
      <point x="79" y="438" type="curve"/>
      <point x="74" y="411" smooth="yes"/>
      <point x="71" y="389" smooth="yes"/>
      <point x="71" y="373" type="curve" smooth="yes"/>
      <point x="71" y="336" smooth="yes"/>
      <point x="87" y="318" smooth="yes"/>
      <point x="133" y="318" type="curve" smooth="yes"/>
      <point x="157" y="318"/>
      <point x="184" y="328"/>
      <point x="212" y="346" type="curve"/>
      <point x="221" y="374" smooth="yes"/>
      <point x="225" y="398" smooth="yes"/>
    </contour>
  </outline>
</glyph>
<glyph name="guillemotright" format="1">
  <advance width="513"/>
  <unicode hex="00BB"/>
  <outline>
    <contour>
      <point x="473" y="354" type="curve" name="hr00"/>
      <point x="351" y="397" smooth="yes"/>
      <point x="478" y="604" smooth="yes"/>
      <point x="337" y="604" type="curve" smooth="yes"/>
      <point x="320" y="604"/>
      <point x="286" y="598"/>
      <point x="274" y="588" type="curve"/>
      <point x="360" y="541"/>
      <point x="294" y="397"/>
      <point x="371" y="354" type="curve"/>
      <point x="290" y="310"/>
      <point x="330" y="167"/>
      <point x="238" y="120" type="curve"/>
      <point x="250" y="110" smooth="yes"/>
      <point x="284" y="104" smooth="yes"/>
      <point x="301" y="104" type="curve" smooth="yes"/>
      <point x="442" y="104"/>
      <point x="347" y="311"/>
    </contour>
    <contour>
      <point x="273" y="354" type="curve"/>
      <point x="151" y="397" smooth="yes"/>
      <point x="278" y="604" smooth="yes"/>
      <point x="137" y="604" type="curve" smooth="yes"/>
      <point x="120" y="604"/>
      <point x="86" y="598"/>
      <point x="74" y="588" type="curve"/>
      <point x="160" y="541"/>
      <point x="94" y="397"/>
      <point x="171" y="354" type="curve"/>
      <point x="90" y="310"/>
      <point x="130" y="167"/>
      <point x="38" y="120" type="curve"/>
      <point x="50" y="110" smooth="yes"/>
      <point x="84" y="104" smooth="yes"/>
      <point x="101" y="104" type="curve" smooth="yes"/>
      <point x="242" y="104"/>
      <point x="147" y="311"/>
    </contour>
  </outline>
</glyph>
<glyph name="onequarter" format="1">
  <advance width="901"/>
  <unicode hex="00BC"/>
  <outline>
    <contour>
      <point x="354" y="147" type="curve" smooth="yes"/>
      <point x="420" y="333" smooth="yes"/>
      <point x="608" y="659" smooth="yes"/>
      <point x="651" y="781" type="curve" smooth="yes"/>
      <point x="661" y="809" smooth="yes"/>
      <point x="665" y="830" smooth="yes"/>
      <point x="665" y="845" type="curve" smooth="yes"/>
      <point x="665" y="875" smooth="yes"/>
      <point x="649" y="887" smooth="yes"/>
      <point x="620" y="887" type="curve" smooth="yes"/>
      <point x="600" y="887"/>
      <point x="579" y="877"/>
      <point x="560" y="864" type="curve"/>
      <point x="560" y="857" smooth="yes"/>
      <point x="561" y="851" smooth="yes"/>
      <point x="561" y="845" type="curve" smooth="yes"/>
      <point x="561" y="810" smooth="yes"/>
      <point x="547" y="770" smooth="yes"/>
      <point x="533" y="729" type="curve" smooth="yes"/>
      <point x="474" y="562" smooth="yes"/>
      <point x="289" y="226" smooth="yes"/>
      <point x="247" y="106" type="curve" smooth="yes"/>
      <point x="235" y="70" smooth="yes"/>
      <point x="229" y="43" smooth="yes"/>
      <point x="229" y="23" type="curve" smooth="yes"/>
      <point x="229" y="-13" smooth="yes"/>
      <point x="248" y="-26" smooth="yes"/>
      <point x="278" y="-26" type="curve" smooth="yes"/>
      <point x="294" y="-26"/>
      <point x="310" y="-19"/>
      <point x="345" y="10" type="curve"/>
      <point x="338" y="23" smooth="yes"/>
      <point x="334" y="39" smooth="yes"/>
      <point x="334" y="55" type="curve" smooth="yes"/>
      <point x="334" y="83" smooth="yes"/>
      <point x="343" y="114" smooth="yes"/>
    </contour>
    <contour>
      <point x="250" y="489" type="curve" smooth="yes" name="hr01"/>
      <point x="250" y="577" smooth="yes"/>
      <point x="291" y="756" smooth="yes"/>
      <point x="291" y="820" type="curve" smooth="yes" name="hr02"/>
      <point x="291" y="870" smooth="yes"/>
      <point x="275" y="886" smooth="yes"/>
      <point x="245" y="886" type="curve" smooth="yes"/>
      <point x="184" y="886"/>
      <point x="175" y="802"/>
      <point x="74" y="777" type="curve"/>
      <point x="98" y="729" smooth="yes"/>
      <point x="113" y="725" smooth="yes"/>
      <point x="131" y="725" type="curve" smooth="yes"/>
      <point x="140" y="725"/>
      <point x="170" y="731"/>
      <point x="211" y="783" type="curve"/>
      <point x="209" y="702" smooth="yes"/>
      <point x="172" y="533" smooth="yes"/>
      <point x="172" y="467" type="curve" smooth="yes" name="hr03"/>
      <point x="172" y="406" smooth="yes"/>
      <point x="193" y="386" smooth="yes"/>
      <point x="223" y="386" type="curve" smooth="yes"/>
      <point x="235" y="386"/>
      <point x="254" y="392"/>
      <point x="274" y="415" type="curve"/>
      <point x="253" y="437" smooth="yes"/>
      <point x="250" y="463" smooth="yes"/>
    </contour>
    <contour>
      <point x="744" y="429" type="curve" smooth="yes"/>
      <point x="744" y="466" smooth="yes"/>
      <point x="730" y="474" smooth="yes"/>
      <point x="708" y="474" type="curve" smooth="yes"/>
      <point x="698" y="474"/>
      <point x="678" y="469"/>
      <point x="653" y="448" type="curve"/>
      <point x="657" y="439" smooth="yes"/>
      <point x="660" y="430" smooth="yes"/>
      <point x="660" y="422" type="curve" smooth="yes"/>
      <point x="660" y="320"/>
      <point x="565" y="170"/>
      <point x="495" y="94" type="curve"/>
      <point x="504" y="75" smooth="yes"/>
      <point x="518" y="62" smooth="yes"/>
      <point x="537" y="62" type="curve" smooth="yes"/>
      <point x="546" y="62"/>
      <point x="554" y="66"/>
      <point x="561" y="73" type="curve" name="hr04"/>
      <point x="590" y="79" smooth="yes"/>
      <point x="631" y="82" smooth="yes"/>
      <point x="671" y="82" type="curve" smooth="yes"/>
      <point x="707" y="82" type="line"/>
      <point x="705" y="67" smooth="yes"/>
      <point x="704" y="53" smooth="yes"/>
      <point x="704" y="38" type="curve" smooth="yes"/>
      <point x="704" y="-10" smooth="yes"/>
      <point x="724" y="-25" smooth="yes"/>
      <point x="754" y="-25" type="curve" smooth="yes"/>
      <point x="765" y="-25"/>
      <point x="785" y="-20"/>
      <point x="807" y="1" type="curve"/>
      <point x="788" y="19" smooth="yes"/>
      <point x="783" y="31" smooth="yes"/>
      <point x="783" y="46" type="curve" smooth="yes"/>
      <point x="783" y="54"/>
      <point x="784" y="62"/>
      <point x="785" y="73" type="curve"/>
      <point x="796" y="70"/>
      <point x="810" y="66"/>
      <point x="827" y="59" type="curve"/>
      <point x="827" y="66" smooth="yes"/>
      <point x="828" y="86" smooth="yes"/>
      <point x="828" y="92" type="curve" smooth="yes"/>
      <point x="828" y="117"/>
      <point x="818" y="131"/>
      <point x="797" y="139" type="curve"/>
      <point x="801" y="159" smooth="yes"/>
      <point x="804" y="178" smooth="yes"/>
      <point x="804" y="191" type="curve" smooth="yes" name="hr05"/>
      <point x="804" y="228" smooth="yes"/>
      <point x="788" y="240" smooth="yes"/>
      <point x="760" y="240" type="curve" smooth="yes"/>
      <point x="748" y="240"/>
      <point x="724" y="232"/>
      <point x="712" y="224" type="curve"/>
      <point x="720" y="207" smooth="yes"/>
      <point x="723" y="193" smooth="yes"/>
      <point x="723" y="178" type="curve" smooth="yes"/>
      <point x="723" y="168"/>
      <point x="722" y="158"/>
      <point x="720" y="147" type="curve"/>
      <point x="689" y="146"/>
      <point x="649" y="142"/>
      <point x="609" y="133" type="curve"/>
      <point x="683" y="235" smooth="yes"/>
      <point x="744" y="363" smooth="yes"/>
    </contour>
  </outline>
</glyph>
<glyph name="onehalf" format="1">
  <advance width="901"/>
  <unicode hex="00BD"/>
  <outline>
    <contour>
      <point x="354" y="147" type="curve" smooth="yes"/>
      <point x="420" y="333" smooth="yes"/>
      <point x="608" y="659" smooth="yes"/>
      <point x="651" y="781" type="curve" smooth="yes"/>
      <point x="661" y="809" smooth="yes"/>
      <point x="665" y="830" smooth="yes"/>
      <point x="665" y="845" type="curve" smooth="yes"/>
      <point x="665" y="875" smooth="yes"/>
      <point x="649" y="887" smooth="yes"/>
      <point x="620" y="887" type="curve" smooth="yes"/>
      <point x="600" y="887"/>
      <point x="579" y="877"/>
      <point x="560" y="864" type="curve"/>
      <point x="560" y="857" smooth="yes"/>
      <point x="561" y="851" smooth="yes"/>
      <point x="561" y="845" type="curve" smooth="yes"/>
      <point x="561" y="810" smooth="yes"/>
      <point x="547" y="770" smooth="yes"/>
      <point x="533" y="729" type="curve" smooth="yes"/>
      <point x="474" y="562" smooth="yes"/>
      <point x="289" y="226" smooth="yes"/>
      <point x="247" y="106" type="curve" smooth="yes"/>
      <point x="235" y="70" smooth="yes"/>
      <point x="229" y="43" smooth="yes"/>
      <point x="229" y="23" type="curve" smooth="yes"/>
      <point x="229" y="-13" smooth="yes"/>
      <point x="248" y="-26" smooth="yes"/>
      <point x="278" y="-26" type="curve" smooth="yes"/>
      <point x="294" y="-26"/>
      <point x="310" y="-19"/>
      <point x="345" y="10" type="curve"/>
      <point x="338" y="23" smooth="yes"/>
      <point x="334" y="39" smooth="yes"/>
      <point x="334" y="55" type="curve" smooth="yes"/>
      <point x="334" y="83" smooth="yes"/>
      <point x="343" y="114" smooth="yes"/>
    </contour>
    <contour>
      <point x="250" y="489" type="curve" smooth="yes" name="hr01"/>
      <point x="250" y="577" smooth="yes"/>
      <point x="291" y="756" smooth="yes"/>
      <point x="291" y="820" type="curve" smooth="yes" name="hr02"/>
      <point x="291" y="870" smooth="yes"/>
      <point x="275" y="886" smooth="yes"/>
      <point x="245" y="886" type="curve" smooth="yes"/>
      <point x="184" y="886"/>
      <point x="175" y="802"/>
      <point x="74" y="777" type="curve"/>
      <point x="98" y="729" smooth="yes"/>
      <point x="113" y="725" smooth="yes"/>
      <point x="131" y="725" type="curve" smooth="yes"/>
      <point x="140" y="725"/>
      <point x="170" y="731"/>
      <point x="211" y="783" type="curve"/>
      <point x="209" y="702" smooth="yes"/>
      <point x="172" y="533" smooth="yes"/>
      <point x="172" y="467" type="curve" smooth="yes" name="hr03"/>
      <point x="172" y="406" smooth="yes"/>
      <point x="193" y="386" smooth="yes"/>
      <point x="223" y="386" type="curve" smooth="yes"/>
      <point x="235" y="386"/>
      <point x="254" y="392"/>
      <point x="274" y="415" type="curve"/>
      <point x="253" y="437" smooth="yes"/>
      <point x="250" y="463" smooth="yes"/>
    </contour>
    <contour>
      <point x="851" y="359" type="curve" smooth="yes"/>
      <point x="851" y="426" smooth="yes"/>
      <point x="809" y="474" smooth="yes"/>
      <point x="706" y="474" type="curve" smooth="yes"/>
      <point x="609" y="474" smooth="yes"/>
      <point x="571" y="425" smooth="yes"/>
      <point x="571" y="382" type="curve" smooth="yes"/>
      <point x="571" y="359"/>
      <point x="586" y="346"/>
      <point x="626" y="331" type="curve"/>
      <point x="633" y="381" smooth="yes"/>
      <point x="655" y="417" smooth="yes"/>
      <point x="699" y="417" type="curve" smooth="yes"/>
      <point x="745" y="417" smooth="yes"/>
      <point x="769" y="385" smooth="yes"/>
      <point x="769" y="351" type="curve" smooth="yes"/>
      <point x="769" y="257"/>
      <point x="625" y="99"/>
      <point x="536" y="1" type="curve"/>
      <point x="544" y="-18" smooth="yes"/>
      <point x="558" y="-31" smooth="yes"/>
      <point x="577" y="-31" type="curve" smooth="yes"/>
      <point x="587" y="-31"/>
      <point x="594" y="-26"/>
      <point x="601" y="-20" type="curve"/>
      <point x="630" y="-13" smooth="yes"/>
      <point x="658" y="-12" smooth="yes"/>
      <point x="700" y="-12" type="curve" smooth="yes"/>
      <point x="771" y="-12"/>
      <point x="802" y="-17"/>
      <point x="842" y="-33" type="curve"/>
      <point x="844" y="-18" smooth="yes"/>
      <point x="845" y="-7" smooth="yes"/>
      <point x="845" y="-1" type="curve" smooth="yes"/>
      <point x="845" y="54" smooth="yes"/>
      <point x="809" y="60" smooth="yes"/>
      <point x="754" y="60" type="curve" smooth="yes" name="hr04"/>
      <point x="737" y="60"/>
      <point x="700" y="56"/>
      <point x="662" y="48" type="curve"/>
      <point x="749" y="147" smooth="yes"/>
      <point x="851" y="262" smooth="yes"/>
    </contour>
  </outline>
</glyph>
<glyph name="Acircumflex" format="1">
  <advance width="657"/>
  <unicode hex="00C2"/>
  <outline>
    <contour>
      <point x="386" y="737" type="curve"/>
      <point x="417" y="632"/>
      <point x="430" y="464"/>
      <point x="444" y="323" type="curve"/>
      <point x="188" y="323" type="line"/>
      <point x="255" y="470"/>
      <point x="343" y="635"/>
    </contour>
    <contour>
      <point x="537" y="911" type="curve" smooth="yes"/>
      <point x="545" y="911"/>
      <point x="555" y="921"/>
      <point x="564" y="939" type="curve"/>
      <point x="501" y="1001"/>
      <point x="464" y="1065"/>
      <point x="455" y="1078" type="curve"/>
      <point x="444" y="1086" smooth="yes"/>
      <point x="424" y="1089" smooth="yes"/>
      <point x="404" y="1089" type="curve" smooth="yes"/>
      <point x="387" y="1089"/>
      <point x="371" y="1087"/>
      <point x="361" y="1084" type="curve"/>
      <point x="344" y="1053"/>
      <point x="324" y="1021"/>
      <point x="215" y="939" type="curve"/>
      <point x="225" y="921" smooth="yes"/>
      <point x="235" y="911" smooth="yes"/>
      <point x="242" y="911" type="curve" smooth="yes"/>
      <point x="259" y="911"/>
      <point x="336" y="957"/>
      <point x="401" y="1002" type="curve"/>
      <point x="471" y="946" smooth="yes"/>
      <point x="518" y="911" smooth="yes"/>
    </contour>
    <contour>
      <point x="581" y="156" type="curve" smooth="yes"/>
      <point x="527" y="344" smooth="yes"/>
      <point x="528" y="671" smooth="yes"/>
      <point x="490" y="793" type="curve" smooth="yes"/>
      <point x="466" y="871" smooth="yes"/>
      <point x="439" y="889" smooth="yes"/>
      <point x="378" y="889" type="curve" smooth="yes"/>
      <point x="356" y="889"/>
      <point x="327" y="875"/>
      <point x="314" y="866" type="curve"/>
      <point x="316" y="858" smooth="yes"/>
      <point x="317" y="850" smooth="yes"/>
      <point x="317" y="841" type="curve" smooth="yes"/>
      <point x="317" y="808" smooth="yes"/>
      <point x="305" y="770" smooth="yes"/>
      <point x="292" y="731" type="curve" smooth="yes"/>
      <point x="236" y="563" smooth="yes"/>
      <point x="62" y="246" smooth="yes"/>
      <point x="22" y="125" type="curve" smooth="yes"/>
      <point x="11" y="90" smooth="yes"/>
      <point x="5" y="63" smooth="yes"/>
      <point x="5" y="43" type="curve" smooth="yes"/>
      <point x="5" y="6" smooth="yes"/>
      <point x="23" y="-7" smooth="yes"/>
      <point x="51" y="-7" type="curve" smooth="yes"/>
      <point x="68" y="-7"/>
      <point x="100" y="0"/>
      <point x="119" y="29" type="curve"/>
      <point x="110" y="43" smooth="yes"/>
      <point x="107" y="60" smooth="yes"/>
      <point x="107" y="77" type="curve" smooth="yes"/>
      <point x="107" y="138"/>
      <point x="135" y="203"/>
      <point x="158" y="255" type="curve"/>
      <point x="451" y="255" type="line"/>
      <point x="458" y="197" smooth="yes"/>
      <point x="466" y="148" smooth="yes"/>
      <point x="476" y="115" type="curve" smooth="yes"/>
      <point x="507" y="14" smooth="yes"/>
      <point x="542" y="-7" smooth="yes"/>
      <point x="604" y="-7" type="curve" smooth="yes"/>
      <point x="620" y="-7"/>
      <point x="654" y="0"/>
      <point x="667" y="29" type="curve"/>
      <point x="623" y="65" smooth="yes"/>
      <point x="596" y="104" smooth="yes"/>
    </contour>
    <component  base="A"/>
    <component  base="circumflex.case" xOffset="54"/>
  </outline>
</glyph>
<glyph name="Atilde" format="1">
  <advance width="657"/>
  <unicode hex="00C3"/>
  <outline>
    <contour>
      <point x="386" y="737" type="curve"/>
      <point x="417" y="632"/>
      <point x="430" y="464"/>
      <point x="444" y="323" type="curve"/>
      <point x="188" y="323" type="line"/>
      <point x="255" y="470"/>
      <point x="343" y="635"/>
    </contour>
    <contour>
      <point x="539" y="1074" type="curve"/>
      <point x="532" y="1027" smooth="yes"/>
      <point x="510" y="1007" smooth="yes"/>
      <point x="488" y="1007" type="curve" smooth="yes"/>
      <point x="439" y="1007" smooth="yes"/>
      <point x="421" y="1073" smooth="yes"/>
      <point x="345" y="1073" type="curve" smooth="yes"/>
      <point x="289" y="1073" smooth="yes"/>
      <point x="246" y="1013" smooth="yes"/>
      <point x="246" y="958" type="curve" smooth="yes"/>
      <point x="246" y="931"/>
      <point x="268" y="926"/>
      <point x="290" y="926" type="curve"/>
      <point x="297" y="973" smooth="yes"/>
      <point x="319" y="993" smooth="yes"/>
      <point x="341" y="993" type="curve" smooth="yes"/>
      <point x="390" y="993" smooth="yes"/>
      <point x="408" y="927" smooth="yes"/>
      <point x="484" y="927" type="curve" smooth="yes"/>
      <point x="540" y="927" smooth="yes"/>
      <point x="583" y="987" smooth="yes"/>
      <point x="583" y="1042" type="curve" smooth="yes"/>
      <point x="583" y="1069"/>
      <point x="561" y="1074"/>
    </contour>
    <contour>
      <point x="581" y="156" type="curve" smooth="yes"/>
      <point x="527" y="344" smooth="yes"/>
      <point x="528" y="671" smooth="yes"/>
      <point x="490" y="793" type="curve" smooth="yes"/>
      <point x="466" y="871" smooth="yes"/>
      <point x="439" y="889" smooth="yes"/>
      <point x="378" y="889" type="curve" smooth="yes"/>
      <point x="356" y="889"/>
      <point x="327" y="875"/>
      <point x="314" y="866" type="curve"/>
      <point x="316" y="858" smooth="yes"/>
      <point x="317" y="850" smooth="yes"/>
      <point x="317" y="841" type="curve" smooth="yes"/>
      <point x="317" y="808" smooth="yes"/>
      <point x="305" y="770" smooth="yes"/>
      <point x="292" y="731" type="curve" smooth="yes"/>
      <point x="236" y="563" smooth="yes"/>
      <point x="62" y="246" smooth="yes"/>
      <point x="22" y="125" type="curve" smooth="yes"/>
      <point x="11" y="90" smooth="yes"/>
      <point x="5" y="63" smooth="yes"/>
      <point x="5" y="43" type="curve" smooth="yes"/>
      <point x="5" y="6" smooth="yes"/>
      <point x="23" y="-7" smooth="yes"/>
      <point x="51" y="-7" type="curve" smooth="yes"/>
      <point x="68" y="-7"/>
      <point x="100" y="0"/>
      <point x="119" y="29" type="curve"/>
      <point x="110" y="43" smooth="yes"/>
      <point x="107" y="60" smooth="yes"/>
      <point x="107" y="77" type="curve" smooth="yes"/>
      <point x="107" y="138"/>
      <point x="135" y="203"/>
      <point x="158" y="255" type="curve"/>
      <point x="451" y="255" type="line"/>
      <point x="458" y="197" smooth="yes"/>
      <point x="466" y="148" smooth="yes"/>
      <point x="476" y="115" type="curve" smooth="yes"/>
      <point x="507" y="14" smooth="yes"/>
      <point x="542" y="-7" smooth="yes"/>
      <point x="604" y="-7" type="curve" smooth="yes"/>
      <point x="620" y="-7"/>
      <point x="654" y="0"/>
      <point x="667" y="29" type="curve"/>
      <point x="623" y="65" smooth="yes"/>
      <point x="596" y="104" smooth="yes"/>
    </contour>
    <component  base="A"/>
    <component  base="tilde.case" xOffset="111"/>
  </outline>
</glyph>
<glyph name="Adieresis" format="1">
  <advance width="657"/>
  <unicode hex="00C4"/>
  <outline>
    <contour>
      <point x="350" y="1012" type="curve" smooth="yes"/>
      <point x="350" y="1043" smooth="yes"/>
      <point x="323" y="1055" smooth="yes"/>
      <point x="292" y="1055" type="curve" smooth="yes"/>
      <point x="270" y="1055"/>
      <point x="247" y="1047"/>
      <point x="223" y="1032" type="curve"/>
      <point x="218" y="1008" smooth="yes"/>
      <point x="216" y="989" smooth="yes"/>
      <point x="216" y="975" type="curve" smooth="yes"/>
      <point x="216" y="943" smooth="yes"/>
      <point x="230" y="928" smooth="yes"/>
      <point x="270" y="928" type="curve" smooth="yes"/>
      <point x="291" y="928"/>
      <point x="315" y="936"/>
      <point x="339" y="951" type="curve"/>
      <point x="346" y="977" smooth="yes"/>
      <point x="350" y="997" smooth="yes"/>
    </contour>
    <contour>
      <point x="584" y="1012" type="curve" smooth="yes"/>
      <point x="584" y="1043" smooth="yes"/>
      <point x="557" y="1055" smooth="yes"/>
      <point x="526" y="1055" type="curve" smooth="yes"/>
      <point x="504" y="1055"/>
      <point x="482" y="1047"/>
      <point x="457" y="1032" type="curve"/>
      <point x="453" y="1008" smooth="yes"/>
      <point x="450" y="989" smooth="yes"/>
      <point x="450" y="975" type="curve" smooth="yes"/>
      <point x="450" y="943" smooth="yes"/>
      <point x="464" y="928" smooth="yes"/>
      <point x="504" y="928" type="curve" smooth="yes"/>
      <point x="525" y="928"/>
      <point x="549" y="936"/>
      <point x="573" y="951" type="curve"/>
      <point x="581" y="977" smooth="yes"/>
      <point x="584" y="997" smooth="yes"/>
    </contour>
    <contour>
      <point x="581" y="156" type="curve" smooth="yes"/>
      <point x="527" y="344" smooth="yes"/>
      <point x="528" y="671" smooth="yes"/>
      <point x="490" y="793" type="curve" smooth="yes"/>
      <point x="466" y="871" smooth="yes"/>
      <point x="439" y="889" smooth="yes"/>
      <point x="378" y="889" type="curve" smooth="yes"/>
      <point x="356" y="889"/>
      <point x="327" y="875"/>
      <point x="314" y="866" type="curve"/>
      <point x="316" y="858" smooth="yes"/>
      <point x="317" y="850" smooth="yes"/>
      <point x="317" y="841" type="curve" smooth="yes"/>
      <point x="317" y="808" smooth="yes"/>
      <point x="305" y="770" smooth="yes"/>
      <point x="292" y="731" type="curve" smooth="yes"/>
      <point x="236" y="563" smooth="yes"/>
      <point x="62" y="246" smooth="yes"/>
      <point x="22" y="125" type="curve" smooth="yes"/>
      <point x="11" y="90" smooth="yes"/>
      <point x="5" y="63" smooth="yes"/>
      <point x="5" y="43" type="curve" smooth="yes"/>
      <point x="5" y="6" smooth="yes"/>
      <point x="23" y="-7" smooth="yes"/>
      <point x="51" y="-7" type="curve" smooth="yes"/>
      <point x="68" y="-7"/>
      <point x="100" y="0"/>
      <point x="119" y="29" type="curve"/>
      <point x="110" y="43" smooth="yes"/>
      <point x="107" y="60" smooth="yes"/>
      <point x="107" y="77" type="curve" smooth="yes"/>
      <point x="107" y="138"/>
      <point x="135" y="203"/>
      <point x="158" y="255" type="curve"/>
      <point x="451" y="255" type="line"/>
      <point x="458" y="197" smooth="yes"/>
      <point x="466" y="148" smooth="yes"/>
      <point x="476" y="115" type="curve" smooth="yes"/>
      <point x="507" y="14" smooth="yes"/>
      <point x="542" y="-7" smooth="yes"/>
      <point x="604" y="-7" type="curve" smooth="yes"/>
      <point x="620" y="-7"/>
      <point x="654" y="0"/>
      <point x="667" y="29" type="curve"/>
      <point x="623" y="65" smooth="yes"/>
      <point x="596" y="104" smooth="yes"/>
    </contour>
    <contour>
      <point x="386" y="737" type="curve"/>
      <point x="417" y="632"/>
      <point x="430" y="464"/>
      <point x="444" y="323" type="curve"/>
      <point x="188" y="323" type="line"/>
      <point x="255" y="470"/>
      <point x="343" y="635"/>
    </contour>
    <component  base="A"/>
    <component  base="dieresis.case" xOffset="211"/>
  </outline>
</glyph>
<glyph name="Aring" format="1">
  <advance width="657"/>
  <unicode hex="00C5"/>
  <outline>
    <contour>
      <point x="434" y="1145" type="curve" smooth="yes"/>
      <point x="367" y="1145" smooth="yes"/>
      <point x="294" y="1089" smooth="yes"/>
      <point x="294" y="993" type="curve" smooth="yes"/>
      <point x="294" y="928"/>
      <point x="330" y="899"/>
      <point x="361" y="887" type="curve"/>
      <point x="343" y="883"/>
      <point x="324" y="873"/>
      <point x="314" y="866" type="curve"/>
      <point x="316" y="858" smooth="yes"/>
      <point x="317" y="850" smooth="yes"/>
      <point x="317" y="841" type="curve" smooth="yes"/>
      <point x="317" y="808" smooth="yes"/>
      <point x="305" y="770" smooth="yes"/>
      <point x="292" y="731" type="curve" smooth="yes"/>
      <point x="236" y="563" smooth="yes"/>
      <point x="62" y="246" smooth="yes"/>
      <point x="22" y="125" type="curve" smooth="yes"/>
      <point x="11" y="90" smooth="yes"/>
      <point x="5" y="63" smooth="yes"/>
      <point x="5" y="43" type="curve" smooth="yes"/>
      <point x="5" y="6" smooth="yes"/>
      <point x="23" y="-7" smooth="yes"/>
      <point x="51" y="-7" type="curve" smooth="yes"/>
      <point x="68" y="-7"/>
      <point x="100" y="0"/>
      <point x="119" y="29" type="curve"/>
      <point x="110" y="43" smooth="yes"/>
      <point x="107" y="60" smooth="yes"/>
      <point x="107" y="77" type="curve" smooth="yes"/>
      <point x="107" y="138"/>
      <point x="135" y="203"/>
      <point x="158" y="255" type="curve"/>
      <point x="451" y="255" type="line"/>
      <point x="458" y="197" smooth="yes"/>
      <point x="466" y="148" smooth="yes"/>
      <point x="476" y="115" type="curve" smooth="yes"/>
      <point x="507" y="14" smooth="yes"/>
      <point x="542" y="-7" smooth="yes"/>
      <point x="604" y="-7" type="curve" smooth="yes"/>
      <point x="620" y="-7"/>
      <point x="654" y="0"/>
      <point x="667" y="29" type="curve"/>
      <point x="623" y="65" smooth="yes"/>
      <point x="596" y="104" smooth="yes"/>
      <point x="581" y="156" type="curve" smooth="yes"/>
      <point x="525" y="343" smooth="yes"/>
      <point x="528" y="671" smooth="yes"/>
      <point x="490" y="793" type="curve" smooth="yes"/>
      <point x="473" y="846"/>
      <point x="456" y="872"/>
      <point x="427" y="882" type="curve"/>
      <point x="484" y="896" smooth="yes"/>
      <point x="537" y="949" smooth="yes"/>
      <point x="537" y="1032" type="curve" smooth="yes"/>
      <point x="537" y="1129" smooth="yes"/>
      <point x="456" y="1145" smooth="yes"/>
    </contour>
    <contour>
      <point x="386" y="737" type="curve"/>
      <point x="417" y="632"/>
      <point x="430" y="464"/>
      <point x="444" y="323" type="curve"/>
      <point x="188" y="323" type="line"/>
      <point x="255" y="470"/>
      <point x="343" y="635"/>
    </contour>
    <contour>
      <point x="419" y="1099" type="curve" smooth="yes"/>
      <point x="446" y="1099" smooth="yes"/>
      <point x="461" y="1077" smooth="yes"/>
      <point x="461" y="1034" type="curve" smooth="yes"/>
      <point x="461" y="998" smooth="yes"/>
      <point x="450" y="926" smooth="yes"/>
      <point x="409" y="926" type="curve" smooth="yes"/>
      <point x="382" y="926" smooth="yes"/>
      <point x="367" y="948" smooth="yes"/>
      <point x="367" y="990" type="curve" smooth="yes"/>
      <point x="367" y="1027" smooth="yes"/>
      <point x="378" y="1099" smooth="yes"/>
    </contour>
    <component  base="A"/>
    <component  base="ring.case" xOffset="203"/>
  </outline>
</glyph>
<glyph name="AE" format="1">
  <advance width="874"/>
  <unicode hex="00C6"/>
  <outline>
    <contour>
      <point x="565" y="798" type="curve"/>
      <point x="642" y="786" smooth="yes"/>
      <point x="725" y="776" smooth="yes"/>
      <point x="800" y="776" type="curve" smooth="yes"/>
      <point x="870" y="776"/>
      <point x="908" y="793"/>
      <point x="915" y="884" type="curve" name="hr01"/>
      <point x="881" y="868" smooth="yes"/>
      <point x="822" y="865" smooth="yes"/>
      <point x="755" y="865" type="curve" smooth="yes" name="hr02"/>
      <point x="672" y="865" smooth="yes"/>
      <point x="601" y="867" smooth="yes"/>
      <point x="530" y="867" type="curve" smooth="yes"/>
      <point x="462" y="867"/>
      <point x="386" y="864"/>
      <point x="344" y="836" type="curve"/>
      <point x="344" y="790" smooth="yes"/>
      <point x="325" y="742" smooth="yes"/>
      <point x="308" y="702" type="curve" smooth="yes"/>
      <point x="222" y="506" smooth="yes"/>
      <point x="-49" y="194" smooth="yes"/>
      <point x="-49" y="49" type="curve" smooth="yes"/>
      <point x="-49" y="4" smooth="yes"/>
      <point x="-33" y="-7" smooth="yes"/>
      <point x="-8" y="-7" type="curve" smooth="yes"/>
      <point x="9" y="-7"/>
      <point x="42" y="0"/>
      <point x="63" y="29" type="curve"/>
      <point x="58" y="40" smooth="yes"/>
      <point x="56" y="52" smooth="yes"/>
      <point x="56" y="64" type="curve" smooth="yes"/>
      <point x="56" y="131"/>
      <point x="112" y="238"/>
      <point x="182" y="353" type="curve"/>
      <point x="402" y="353" type="line"/>
      <point x="384" y="248" smooth="yes"/>
      <point x="368" y="151" smooth="yes"/>
      <point x="368" y="89" type="curve" smooth="yes"/>
      <point x="368" y="20" smooth="yes"/>
      <point x="397" y="-8" smooth="yes"/>
      <point x="440" y="-8" type="curve" smooth="yes" name="hr03"/>
      <point x="454" y="-8"/>
      <point x="474" y="-3"/>
      <point x="495" y="11" type="curve" name="hr04"/>
      <point x="564" y="1" smooth="yes"/>
      <point x="651" y="-10" smooth="yes"/>
      <point x="696" y="-10" type="curve" smooth="yes"/>
      <point x="794" y="-10"/>
      <point x="849" y="-5"/>
      <point x="857" y="105" type="curve"/>
      <point x="819" y="85" smooth="yes"/>
      <point x="723" y="79" smooth="yes"/>
      <point x="619" y="79" type="curve" smooth="yes" name="hr05"/>
      <point x="570" y="79"/>
      <point x="522" y="81"/>
      <point x="482" y="83" type="curve"/>
      <point x="481" y="92" smooth="yes"/>
      <point x="480" y="102" smooth="yes"/>
      <point x="480" y="112" type="curve" smooth="yes"/>
      <point x="480" y="178"/>
      <point x="490" y="263"/>
      <point x="503" y="353" type="curve"/>
      <point x="641" y="353" type="line" smooth="yes"/>
      <point x="716" y="353"/>
      <point x="771" y="357"/>
      <point x="779" y="466" type="curve"/>
      <point x="728" y="440"/>
      <point x="632" y="426"/>
      <point x="514" y="422" type="curve"/>
      <point x="538" y="571"/>
      <point x="565" y="720"/>
    </contour>
    <contour>
      <point x="443" y="810" type="curve"/>
      <point x="449" y="794" smooth="yes"/>
      <point x="452" y="772" smooth="yes"/>
      <point x="452" y="741" type="curve" smooth="yes"/>
      <point x="452" y="651"/>
      <point x="434" y="535"/>
      <point x="414" y="421" type="curve"/>
      <point x="224" y="421" type="line"/>
      <point x="322" y="575"/>
      <point x="429" y="731"/>
    </contour>
  </outline>
</glyph>
<glyph name="Egrave" format="1">
  <advance width="602"/>
  <unicode hex="00C8"/>
  <outline>
    <contour>
      <point x="369" y="398" type="curve" smooth="yes"/>
      <point x="444" y="398"/>
      <point x="499" y="403"/>
      <point x="507" y="512" type="curve"/>
      <point x="457" y="486"/>
      <point x="352" y="480"/>
      <point x="251" y="479" type="curve"/>
      <point x="272" y="605"/>
      <point x="293" y="730"/>
      <point x="293" y="798" type="curve"/>
      <point x="370" y="786" smooth="yes"/>
      <point x="453" y="776" smooth="yes"/>
      <point x="528" y="776" type="curve" smooth="yes"/>
      <point x="598" y="776"/>
      <point x="636" y="793"/>
      <point x="643" y="884" type="curve"/>
      <point x="609" y="868" smooth="yes"/>
      <point x="550" y="865" smooth="yes"/>
      <point x="483" y="865" type="curve" smooth="yes"/>
      <point x="430" y="865" smooth="yes"/>
      <point x="373" y="867" smooth="yes"/>
      <point x="321" y="867" type="curve" smooth="yes"/>
      <point x="262" y="867"/>
      <point x="196" y="864"/>
      <point x="165" y="839" type="curve"/>
      <point x="173" y="815" smooth="yes"/>
      <point x="180" y="769" smooth="yes"/>
      <point x="180" y="741" type="curve" smooth="yes"/>
      <point x="180" y="666"/>
      <point x="167" y="573"/>
      <point x="152" y="478" type="curve"/>
      <point x="104" y="474"/>
      <point x="96" y="460"/>
      <point x="90" y="413" type="curve"/>
      <point x="108" y="413"/>
      <point x="125" y="413"/>
      <point x="141" y="412" type="curve"/>
      <point x="119" y="285" smooth="yes"/>
      <point x="96" y="162" smooth="yes"/>
      <point x="96" y="89" type="curve" smooth="yes"/>
      <point x="96" y="20" smooth="yes"/>
      <point x="125" y="-8" smooth="yes"/>
      <point x="168" y="-8" type="curve" smooth="yes"/>
      <point x="182" y="-8"/>
      <point x="202" y="-3"/>
      <point x="222" y="11" type="curve"/>
      <point x="292" y="1" smooth="yes"/>
      <point x="379" y="-10" smooth="yes"/>
      <point x="424" y="-10" type="curve" smooth="yes"/>
      <point x="522" y="-10"/>
      <point x="577" y="-5"/>
      <point x="585" y="105" type="curve"/>
      <point x="547" y="85" smooth="yes"/>
      <point x="451" y="79" smooth="yes"/>
      <point x="347" y="79" type="curve" smooth="yes"/>
      <point x="298" y="79"/>
      <point x="250" y="81"/>
      <point x="209" y="83" type="curve"/>
      <point x="208" y="92" smooth="yes"/>
      <point x="208" y="102" smooth="yes"/>
      <point x="208" y="112" type="curve" smooth="yes"/>
      <point x="208" y="191"/>
      <point x="222" y="298"/>
      <point x="239" y="407" type="curve"/>
      <point x="288" y="403" smooth="yes"/>
      <point x="327" y="398" smooth="yes"/>
    </contour>
    <contour>
      <point x="316" y="1020" type="curve" smooth="yes"/>
      <point x="388" y="969" smooth="yes"/>
      <point x="497" y="911" smooth="yes"/>
      <point x="517" y="911" type="curve" smooth="yes"/>
      <point x="524" y="911"/>
      <point x="534" y="921"/>
      <point x="544" y="939" type="curve"/>
      <point x="435" y="1021"/>
      <point x="400" y="1053"/>
      <point x="383" y="1084" type="curve"/>
      <point x="364" y="1088" smooth="yes"/>
      <point x="349" y="1089" smooth="yes"/>
      <point x="336" y="1089" type="curve" smooth="yes"/>
      <point x="292" y="1089" smooth="yes"/>
      <point x="279" y="1073" smooth="yes"/>
      <point x="279" y="1061" type="curve" smooth="yes"/>
      <point x="279" y="1048" smooth="yes"/>
      <point x="285" y="1042" smooth="yes"/>
    </contour>
    <component  base="E"/>
    <component  base="grave.case" xOffset="126"/>
  </outline>
</glyph>
<glyph name="Igrave" format="1">
  <advance width="332"/>
  <unicode hex="00CC"/>
  <outline>
    <contour>
      <point x="207" y="166" type="curve" smooth="yes"/>
      <point x="207" y="352" smooth="yes"/>
      <point x="284" y="661" smooth="yes"/>
      <point x="284" y="783" type="curve" smooth="yes"/>
      <point x="284" y="862" smooth="yes"/>
      <point x="260" y="889" smooth="yes"/>
      <point x="215" y="889" type="curve" smooth="yes"/>
      <point x="196" y="889"/>
      <point x="163" y="879"/>
      <point x="148" y="866" type="curve"/>
      <point x="168" y="826" smooth="yes"/>
      <point x="169" y="779" smooth="yes"/>
      <point x="169" y="731" type="curve" smooth="yes"/>
      <point x="169" y="563" smooth="yes"/>
      <point x="98" y="246" smooth="yes"/>
      <point x="98" y="125" type="curve" smooth="yes"/>
      <point x="98" y="24" smooth="yes"/>
      <point x="129" y="-7" smooth="yes"/>
      <point x="176" y="-7" type="curve" smooth="yes"/>
      <point x="192" y="-7"/>
      <point x="220" y="0"/>
      <point x="245" y="29" type="curve"/>
      <point x="212" y="65" smooth="yes"/>
      <point x="207" y="114" smooth="yes"/>
    </contour>
    <contour>
      <point x="128" y="1020" type="curve" smooth="yes"/>
      <point x="200" y="969" smooth="yes"/>
      <point x="309" y="911" smooth="yes"/>
      <point x="329" y="911" type="curve" smooth="yes"/>
      <point x="336" y="911"/>
      <point x="346" y="921"/>
      <point x="356" y="939" type="curve"/>
      <point x="247" y="1021"/>
      <point x="212" y="1053"/>
      <point x="195" y="1084" type="curve"/>
      <point x="176" y="1088" smooth="yes"/>
      <point x="161" y="1089" smooth="yes"/>
      <point x="148" y="1089" type="curve" smooth="yes"/>
      <point x="104" y="1089" smooth="yes"/>
      <point x="91" y="1073" smooth="yes"/>
      <point x="91" y="1061" type="curve" smooth="yes"/>
      <point x="91" y="1048" smooth="yes"/>
      <point x="97" y="1042" smooth="yes"/>
    </contour>
    <component  base="I"/>
    <component  base="grave.case" xOffset="-62"/>
  </outline>
</glyph>
<glyph name="Iacute" format="1">
  <advance width="332"/>
  <unicode hex="00CD"/>
  <outline>
    <contour>
      <point x="207" y="166" type="curve" smooth="yes"/>
      <point x="207" y="352" smooth="yes"/>
      <point x="284" y="661" smooth="yes"/>
      <point x="284" y="783" type="curve" smooth="yes"/>
      <point x="284" y="862" smooth="yes"/>
      <point x="260" y="889" smooth="yes"/>
      <point x="215" y="889" type="curve" smooth="yes"/>
      <point x="196" y="889"/>
      <point x="163" y="879"/>
      <point x="148" y="866" type="curve"/>
      <point x="168" y="826" smooth="yes"/>
      <point x="169" y="779" smooth="yes"/>
      <point x="169" y="731" type="curve" smooth="yes"/>
      <point x="169" y="563" smooth="yes"/>
      <point x="98" y="246" smooth="yes"/>
      <point x="98" y="125" type="curve" smooth="yes"/>
      <point x="98" y="24" smooth="yes"/>
      <point x="129" y="-7" smooth="yes"/>
      <point x="176" y="-7" type="curve" smooth="yes"/>
      <point x="192" y="-7"/>
      <point x="220" y="0"/>
      <point x="245" y="29" type="curve"/>
      <point x="212" y="65" smooth="yes"/>
      <point x="207" y="114" smooth="yes"/>
    </contour>
    <contour>
      <point x="316" y="1020" type="curve" smooth="yes"/>
      <point x="347" y="1042" smooth="yes"/>
      <point x="353" y="1048" smooth="yes"/>
      <point x="353" y="1061" type="curve" smooth="yes"/>
      <point x="353" y="1073" smooth="yes"/>
      <point x="340" y="1089" smooth="yes"/>
      <point x="296" y="1089" type="curve" smooth="yes"/>
      <point x="283" y="1089"/>
      <point x="268" y="1088"/>
      <point x="249" y="1084" type="curve"/>
      <point x="232" y="1053"/>
      <point x="198" y="1021"/>
      <point x="89" y="939" type="curve"/>
      <point x="98" y="921" smooth="yes"/>
      <point x="108" y="911" smooth="yes"/>
      <point x="116" y="911" type="curve" smooth="yes"/>
      <point x="136" y="911" smooth="yes"/>
      <point x="244" y="969" smooth="yes"/>
    </contour>
    <component  base="I"/>
    <component  base="acute.case" xOffset="-28"/>
  </outline>
</glyph>
<glyph name="Icircumflex" format="1">
  <advance width="332"/>
  <unicode hex="00CE"/>
  <outline>
    <contour>
      <point x="207" y="166" type="curve" smooth="yes"/>
      <point x="207" y="352" smooth="yes"/>
      <point x="284" y="661" smooth="yes"/>
      <point x="284" y="783" type="curve" smooth="yes"/>
      <point x="284" y="862" smooth="yes"/>
      <point x="260" y="889" smooth="yes"/>
      <point x="215" y="889" type="curve" smooth="yes"/>
      <point x="196" y="889"/>
      <point x="163" y="879"/>
      <point x="148" y="866" type="curve"/>
      <point x="168" y="826" smooth="yes"/>
      <point x="169" y="779" smooth="yes"/>
      <point x="169" y="731" type="curve" smooth="yes"/>
      <point x="169" y="563" smooth="yes"/>
      <point x="98" y="246" smooth="yes"/>
      <point x="98" y="125" type="curve" smooth="yes"/>
      <point x="98" y="24" smooth="yes"/>
      <point x="129" y="-7" smooth="yes"/>
      <point x="176" y="-7" type="curve" smooth="yes"/>
      <point x="192" y="-7"/>
      <point x="220" y="0"/>
      <point x="245" y="29" type="curve"/>
      <point x="212" y="65" smooth="yes"/>
      <point x="207" y="114" smooth="yes"/>
    </contour>
    <contour>
      <point x="357" y="911" type="curve" smooth="yes"/>
      <point x="365" y="911"/>
      <point x="375" y="921"/>
      <point x="384" y="939" type="curve"/>
      <point x="321" y="1001"/>
      <point x="284" y="1065"/>
      <point x="275" y="1078" type="curve"/>
      <point x="264" y="1086" smooth="yes"/>
      <point x="244" y="1089" smooth="yes"/>
      <point x="224" y="1089" type="curve" smooth="yes"/>
      <point x="207" y="1089"/>
      <point x="191" y="1087"/>
      <point x="181" y="1084" type="curve"/>
      <point x="164" y="1053"/>
      <point x="144" y="1021"/>
      <point x="35" y="939" type="curve"/>
      <point x="45" y="921" smooth="yes"/>
      <point x="55" y="911" smooth="yes"/>
      <point x="62" y="911" type="curve" smooth="yes"/>
      <point x="79" y="911"/>
      <point x="156" y="957"/>
      <point x="221" y="1002" type="curve"/>
      <point x="291" y="946" smooth="yes"/>
      <point x="338" y="911" smooth="yes"/>
    </contour>
    <component  base="I"/>
    <component  base="circumflex.case" xOffset="-125"/>
  </outline>
</glyph>
<glyph name="Idieresis" format="1">
  <advance width="332"/>
  <unicode hex="00CF"/>
  <outline>
    <contour>
      <point x="199" y="1012" type="curve" smooth="yes"/>
      <point x="199" y="1043" smooth="yes"/>
      <point x="172" y="1055" smooth="yes"/>
      <point x="141" y="1055" type="curve" smooth="yes"/>
      <point x="119" y="1055"/>
      <point x="96" y="1047"/>
      <point x="72" y="1032" type="curve"/>
      <point x="67" y="1008" smooth="yes"/>
      <point x="65" y="989" smooth="yes"/>
      <point x="65" y="975" type="curve" smooth="yes"/>
      <point x="65" y="943" smooth="yes"/>
      <point x="79" y="928" smooth="yes"/>
      <point x="119" y="928" type="curve" smooth="yes"/>
      <point x="140" y="928"/>
      <point x="164" y="936"/>
      <point x="188" y="951" type="curve"/>
      <point x="195" y="977" smooth="yes"/>
      <point x="199" y="997" smooth="yes"/>
    </contour>
    <contour>
      <point x="433" y="1012" type="curve" smooth="yes"/>
      <point x="433" y="1043" smooth="yes"/>
      <point x="406" y="1055" smooth="yes"/>
      <point x="375" y="1055" type="curve" smooth="yes"/>
      <point x="354" y="1055"/>
      <point x="331" y="1047"/>
      <point x="306" y="1032" type="curve"/>
      <point x="302" y="1008" smooth="yes"/>
      <point x="299" y="989" smooth="yes"/>
      <point x="299" y="975" type="curve" smooth="yes"/>
      <point x="299" y="943" smooth="yes"/>
      <point x="313" y="928" smooth="yes"/>
      <point x="354" y="928" type="curve" smooth="yes"/>
      <point x="375" y="928"/>
      <point x="398" y="936"/>
      <point x="422" y="951" type="curve"/>
      <point x="430" y="977" smooth="yes"/>
      <point x="433" y="997" smooth="yes"/>
    </contour>
    <contour>
      <point x="207" y="166" type="curve" smooth="yes"/>
      <point x="207" y="352" smooth="yes"/>
      <point x="284" y="661" smooth="yes"/>
      <point x="284" y="783" type="curve" smooth="yes"/>
      <point x="284" y="862" smooth="yes"/>
      <point x="260" y="889" smooth="yes"/>
      <point x="215" y="889" type="curve" smooth="yes"/>
      <point x="196" y="889"/>
      <point x="163" y="879"/>
      <point x="148" y="866" type="curve"/>
      <point x="168" y="826" smooth="yes"/>
      <point x="169" y="779" smooth="yes"/>
      <point x="169" y="731" type="curve" smooth="yes"/>
      <point x="169" y="563" smooth="yes"/>
      <point x="98" y="246" smooth="yes"/>
      <point x="98" y="125" type="curve" smooth="yes"/>
      <point x="98" y="24" smooth="yes"/>
      <point x="129" y="-7" smooth="yes"/>
      <point x="176" y="-7" type="curve" smooth="yes"/>
      <point x="192" y="-7"/>
      <point x="220" y="0"/>
      <point x="245" y="29" type="curve"/>
      <point x="212" y="65" smooth="yes"/>
      <point x="207" y="114" smooth="yes"/>
    </contour>
    <component  base="I"/>
    <component  base="dieresis.case" xOffset="60"/>
  </outline>
</glyph>
<glyph name="Otilde" format="1">
  <advance width="782"/>
  <unicode hex="00D5"/>
  <outline>
    <contour>
      <point x="630" y="487" type="curve" smooth="yes"/>
      <point x="630" y="364" smooth="yes"/>
      <point x="587" y="57" smooth="yes"/>
      <point x="405" y="57" type="curve" smooth="yes"/>
      <point x="271" y="57" smooth="yes"/>
      <point x="186" y="167" smooth="yes"/>
      <point x="186" y="380" type="curve" smooth="yes"/>
      <point x="186" y="503" smooth="yes"/>
      <point x="229" y="810" smooth="yes"/>
      <point x="411" y="810" type="curve" smooth="yes"/>
      <point x="545" y="810" smooth="yes"/>
      <point x="630" y="700" smooth="yes"/>
    </contour>
    <contour>
      <point x="344" y="-21" type="curve" smooth="yes"/>
      <point x="606" y="-21" smooth="yes"/>
      <point x="738" y="281" smooth="yes"/>
      <point x="738" y="531" type="curve" smooth="yes"/>
      <point x="738" y="729" smooth="yes"/>
      <point x="645" y="889" smooth="yes"/>
      <point x="472" y="889" type="curve" smooth="yes"/>
      <point x="209" y="889" smooth="yes"/>
      <point x="78" y="586" smooth="yes"/>
      <point x="78" y="336" type="curve" smooth="yes"/>
      <point x="78" y="138" smooth="yes"/>
      <point x="171" y="-21" smooth="yes"/>
    </contour>
    <contour>
      <point x="599" y="1074" type="curve"/>
      <point x="592" y="1027" smooth="yes"/>
      <point x="570" y="1007" smooth="yes"/>
      <point x="548" y="1007" type="curve" smooth="yes"/>
      <point x="499" y="1007" smooth="yes"/>
      <point x="481" y="1073" smooth="yes"/>
      <point x="405" y="1073" type="curve" smooth="yes"/>
      <point x="349" y="1073" smooth="yes"/>
      <point x="306" y="1013" smooth="yes"/>
      <point x="306" y="958" type="curve" smooth="yes"/>
      <point x="306" y="931"/>
      <point x="328" y="926"/>
      <point x="350" y="926" type="curve"/>
      <point x="357" y="973" smooth="yes"/>
      <point x="379" y="993" smooth="yes"/>
      <point x="401" y="993" type="curve" smooth="yes"/>
      <point x="450" y="993" smooth="yes"/>
      <point x="468" y="927" smooth="yes"/>
      <point x="544" y="927" type="curve" smooth="yes"/>
      <point x="600" y="927" smooth="yes"/>
      <point x="643" y="987" smooth="yes"/>
      <point x="643" y="1042" type="curve" smooth="yes"/>
      <point x="643" y="1069"/>
      <point x="621" y="1074"/>
    </contour>
    <component  base="O"/>
    <component  base="tilde.case" xOffset="171"/>
  </outline>
</glyph>
<glyph name="multiply" format="1">
  <advance width="544"/>
  <unicode hex="00D7"/>
  <outline>
    <contour>
      <point x="134" y="637" type="curve" smooth="yes" name="hr00"/>
      <point x="111" y="637"/>
      <point x="78" y="603"/>
      <point x="76" y="570" type="curve"/>
      <point x="120" y="557"/>
      <point x="167" y="499"/>
      <point x="216" y="435" type="curve"/>
      <point x="176" y="399" smooth="yes"/>
      <point x="135" y="363" smooth="yes"/>
      <point x="101" y="329" type="curve" smooth="yes"/>
      <point x="86" y="314" smooth="yes"/>
      <point x="78" y="297" smooth="yes"/>
      <point x="78" y="282" type="curve" smooth="yes"/>
      <point x="78" y="249"/>
      <point x="123" y="226"/>
      <point x="149" y="222" type="curve"/>
      <point x="159" y="254"/>
      <point x="208" y="306"/>
      <point x="268" y="364" type="curve"/>
      <point x="321" y="294" smooth="yes"/>
      <point x="374" y="234" smooth="yes"/>
      <point x="420" y="234" type="curve" smooth="yes"/>
      <point x="464" y="234"/>
      <point x="478" y="280"/>
      <point x="478" y="314" type="curve"/>
      <point x="443" y="317" smooth="yes"/>
      <point x="422" y="329" smooth="yes"/>
      <point x="398" y="353" type="curve" smooth="yes"/>
      <point x="383" y="368"/>
      <point x="361" y="397"/>
      <point x="336" y="430" type="curve"/>
      <point x="405" y="497" type="line" smooth="yes"/>
      <point x="445" y="537" smooth="yes"/>
      <point x="461" y="568" smooth="yes"/>
      <point x="461" y="591" type="curve" smooth="yes"/>
      <point x="461" y="615"/>
      <point x="433" y="643"/>
      <point x="402" y="645" type="curve"/>
      <point x="389" y="604"/>
      <point x="342" y="553"/>
      <point x="284" y="498" type="curve"/>
      <point x="230" y="569" smooth="yes"/>
      <point x="171" y="637" smooth="yes"/>
    </contour>
  </outline>
</glyph>
<glyph name="Oslash" format="1">
  <advance width="782"/>
  <unicode hex="00D8"/>
  <outline>
    <contour>
      <point x="738" y="531" type="curve" smooth="yes" name="hr00"/>
      <point x="738" y="682"/>
      <point x="683" y="812"/>
      <point x="580" y="864" type="curve"/>
      <point x="592" y="879"/>
      <point x="608" y="893"/>
      <point x="627" y="903" type="curve"/>
      <point x="626" y="938" smooth="yes"/>
      <point x="592" y="947" smooth="yes"/>
      <point x="574" y="947" type="curve" smooth="yes"/>
      <point x="545" y="947"/>
      <point x="516" y="931"/>
      <point x="489" y="888" type="curve"/>
      <point x="483" y="889" smooth="yes"/>
      <point x="477" y="889" smooth="yes"/>
      <point x="472" y="889" type="curve" smooth="yes"/>
      <point x="209" y="889" smooth="yes"/>
      <point x="78" y="586" smooth="yes"/>
      <point x="78" y="336" type="curve" smooth="yes"/>
      <point x="78" y="177"/>
      <point x="138" y="43"/>
      <point x="251" y="-3" type="curve"/>
      <point x="236" y="-38"/>
      <point x="217" y="-69"/>
      <point x="190" y="-101" type="curve"/>
      <point x="211" y="-123" smooth="yes"/>
      <point x="235" y="-128" smooth="yes"/>
      <point x="252" y="-128" type="curve" smooth="yes"/>
      <point x="288" y="-128"/>
      <point x="318" y="-101"/>
      <point x="347" y="-21" type="curve"/>
      <point x="607" y="-18" smooth="yes"/>
      <point x="738" y="282" smooth="yes"/>
    </contour>
    <contour>
      <point x="630" y="487" type="curve" smooth="yes"/>
      <point x="630" y="364" smooth="yes"/>
      <point x="587" y="57" smooth="yes"/>
      <point x="405" y="57" type="curve" smooth="yes"/>
      <point x="393" y="57"/>
      <point x="382" y="58"/>
      <point x="371" y="59" type="curve"/>
      <point x="413" y="234"/>
      <point x="459" y="553"/>
      <point x="532" y="770" type="curve"/>
      <point x="594" y="720" smooth="yes"/>
      <point x="630" y="625" smooth="yes"/>
    </contour>
    <contour>
      <point x="186" y="380" type="curve" smooth="yes"/>
      <point x="186" y="503" smooth="yes"/>
      <point x="229" y="810" smooth="yes"/>
      <point x="411" y="810" type="curve" smooth="yes"/>
      <point x="424" y="810"/>
      <point x="437" y="808"/>
      <point x="450" y="806" type="curve"/>
      <point x="401" y="666"/>
      <point x="350" y="318"/>
      <point x="285" y="96" type="curve"/>
      <point x="222" y="145" smooth="yes"/>
      <point x="186" y="240" smooth="yes"/>
    </contour>
  </outline>
</glyph>
<glyph name="Udieresis" format="1">
  <advance width="742"/>
  <unicode hex="00DC"/>
  <outline>
    <contour>
      <point x="252" y="80" type="curve" smooth="yes"/>
      <point x="214" y="80" smooth="yes"/>
      <point x="202" y="112" smooth="yes"/>
      <point x="202" y="158" type="curve" smooth="yes"/>
      <point x="202" y="344" smooth="yes"/>
      <point x="280" y="661" smooth="yes"/>
      <point x="280" y="783" type="curve" smooth="yes"/>
      <point x="280" y="862" smooth="yes"/>
      <point x="256" y="889" smooth="yes"/>
      <point x="211" y="889" type="curve" smooth="yes"/>
      <point x="191" y="889"/>
      <point x="159" y="879"/>
      <point x="144" y="866" type="curve"/>
      <point x="164" y="826" smooth="yes"/>
      <point x="165" y="779" smooth="yes"/>
      <point x="165" y="731" type="curve" smooth="yes"/>
      <point x="165" y="563" smooth="yes"/>
      <point x="98" y="273" smooth="yes"/>
      <point x="98" y="153" type="curve" smooth="yes"/>
      <point x="98" y="68" smooth="yes"/>
      <point x="122" y="-16" smooth="yes"/>
      <point x="223" y="-16" type="curve" smooth="yes"/>
      <point x="301" y="-16"/>
      <point x="431" y="106"/>
      <point x="519" y="243" type="curve"/>
      <point x="512" y="196" smooth="yes"/>
      <point x="508" y="154" smooth="yes"/>
      <point x="508" y="125" type="curve" smooth="yes"/>
      <point x="508" y="24" smooth="yes"/>
      <point x="539" y="-7" smooth="yes"/>
      <point x="586" y="-7" type="curve" smooth="yes"/>
      <point x="603" y="-7"/>
      <point x="630" y="0"/>
      <point x="655" y="29" type="curve"/>
      <point x="623" y="65" smooth="yes"/>
      <point x="617" y="114" smooth="yes"/>
      <point x="617" y="166" type="curve" smooth="yes"/>
      <point x="617" y="352" smooth="yes"/>
      <point x="694" y="661" smooth="yes"/>
      <point x="694" y="783" type="curve" smooth="yes"/>
      <point x="694" y="862" smooth="yes"/>
      <point x="670" y="889" smooth="yes"/>
      <point x="625" y="889" type="curve" smooth="yes"/>
      <point x="606" y="889"/>
      <point x="573" y="879"/>
      <point x="559" y="866" type="curve"/>
      <point x="579" y="826" smooth="yes"/>
      <point x="580" y="779" smooth="yes"/>
      <point x="580" y="731" type="curve" smooth="yes"/>
      <point x="580" y="636"/>
      <point x="556" y="495"/>
      <point x="537" y="367" type="curve"/>
      <point x="458" y="228" smooth="yes"/>
      <point x="315" y="80" smooth="yes"/>
    </contour>
    <contour>
      <point x="389" y="1012" type="curve" smooth="yes"/>
      <point x="389" y="1043" smooth="yes"/>
      <point x="362" y="1055" smooth="yes"/>
      <point x="331" y="1055" type="curve" smooth="yes"/>
      <point x="309" y="1055"/>
      <point x="286" y="1047"/>
      <point x="262" y="1032" type="curve"/>
      <point x="257" y="1008" smooth="yes"/>
      <point x="255" y="989" smooth="yes"/>
      <point x="255" y="975" type="curve" smooth="yes"/>
      <point x="255" y="943" smooth="yes"/>
      <point x="269" y="928" smooth="yes"/>
      <point x="309" y="928" type="curve" smooth="yes"/>
      <point x="330" y="928"/>
      <point x="354" y="936"/>
      <point x="378" y="951" type="curve"/>
      <point x="385" y="977" smooth="yes"/>
      <point x="389" y="997" smooth="yes"/>
    </contour>
    <contour>
      <point x="623" y="1012" type="curve" smooth="yes"/>
      <point x="623" y="1043" smooth="yes"/>
      <point x="596" y="1055" smooth="yes"/>
      <point x="565" y="1055" type="curve" smooth="yes"/>
      <point x="543" y="1055"/>
      <point x="521" y="1047"/>
      <point x="496" y="1032" type="curve"/>
      <point x="492" y="1008" smooth="yes"/>
      <point x="489" y="989" smooth="yes"/>
      <point x="489" y="975" type="curve" smooth="yes"/>
      <point x="489" y="943" smooth="yes"/>
      <point x="503" y="928" smooth="yes"/>
      <point x="543" y="928" type="curve" smooth="yes"/>
      <point x="564" y="928"/>
      <point x="588" y="936"/>
      <point x="612" y="951" type="curve"/>
      <point x="620" y="977" smooth="yes"/>
      <point x="623" y="997" smooth="yes"/>
    </contour>
    <component  base="U"/>
    <component  base="dieresis.case" xOffset="250"/>
  </outline>
</glyph>
<glyph name="Yacute" format="1">
  <advance width="552"/>
  <unicode hex="00DD"/>
  <outline>
    <contour>
      <point x="484" y="800" type="curve" smooth="yes"/>
      <point x="484" y="701"/>
      <point x="381" y="581"/>
      <point x="302" y="419" type="curve"/>
      <point x="273" y="555" smooth="yes"/>
      <point x="227" y="729" smooth="yes"/>
      <point x="208" y="785" type="curve" smooth="yes"/>
      <point x="181" y="861" smooth="yes"/>
      <point x="145" y="889" smooth="yes"/>
      <point x="111" y="889" type="curve" smooth="yes"/>
      <point x="87" y="889"/>
      <point x="44" y="874"/>
      <point x="27" y="823" type="curve"/>
      <point x="113" y="823"/>
      <point x="181" y="544"/>
      <point x="228" y="309" type="curve"/>
      <point x="215" y="228" smooth="yes"/>
      <point x="205" y="159" smooth="yes"/>
      <point x="205" y="118" type="curve" smooth="yes"/>
      <point x="205" y="23" smooth="yes"/>
      <point x="234" y="-7" smooth="yes"/>
      <point x="280" y="-7" type="curve" smooth="yes"/>
      <point x="296" y="-7"/>
      <point x="325" y="0"/>
      <point x="350" y="29" type="curve"/>
      <point x="320" y="62" smooth="yes"/>
      <point x="314" y="107" smooth="yes"/>
      <point x="314" y="155" type="curve" smooth="yes"/>
      <point x="314" y="198"/>
      <point x="319" y="250"/>
      <point x="326" y="306" type="curve"/>
      <point x="333" y="344" smooth="yes"/>
      <point x="342" y="367" smooth="yes"/>
      <point x="370" y="414" type="curve" smooth="yes"/>
      <point x="454" y="556" smooth="yes"/>
      <point x="591" y="774" smooth="yes"/>
      <point x="591" y="837" type="curve" smooth="yes"/>
      <point x="591" y="872" smooth="yes"/>
      <point x="573" y="885" smooth="yes"/>
      <point x="546" y="885" type="curve" smooth="yes"/>
      <point x="529" y="885"/>
      <point x="494" y="877"/>
      <point x="474" y="849" type="curve"/>
      <point x="482" y="834" smooth="yes"/>
      <point x="484" y="818" smooth="yes"/>
    </contour>
    <contour>
      <point x="473" y="1020" type="curve" smooth="yes"/>
      <point x="504" y="1042" smooth="yes"/>
      <point x="510" y="1048" smooth="yes"/>
      <point x="510" y="1061" type="curve" smooth="yes"/>
      <point x="510" y="1073" smooth="yes"/>
      <point x="497" y="1089" smooth="yes"/>
      <point x="453" y="1089" type="curve" smooth="yes"/>
      <point x="440" y="1089"/>
      <point x="425" y="1088"/>
      <point x="406" y="1084" type="curve"/>
      <point x="389" y="1053"/>
      <point x="355" y="1021"/>
      <point x="246" y="939" type="curve"/>
      <point x="255" y="921" smooth="yes"/>
      <point x="265" y="911" smooth="yes"/>
      <point x="273" y="911" type="curve" smooth="yes"/>
      <point x="293" y="911" smooth="yes"/>
      <point x="401" y="969" smooth="yes"/>
    </contour>
    <component  base="Y"/>
    <component  base="acute.case" xOffset="129"/>
  </outline>
</glyph>
<glyph name="eacute" format="1">
  <advance width="583"/>
  <unicode hex="00E9"/>
  <outline>
    <contour>
      <point x="230" y="281" type="curve" smooth="yes"/>
      <point x="430" y="281" smooth="yes"/>
      <point x="549" y="431" smooth="yes"/>
      <point x="549" y="548" type="curve" smooth="yes"/>
      <point x="549" y="623" smooth="yes"/>
      <point x="500" y="684" smooth="yes"/>
      <point x="393" y="684" type="curve" smooth="yes"/>
      <point x="190" y="684" smooth="yes"/>
      <point x="68" y="451" smooth="yes"/>
      <point x="68" y="259" type="curve" smooth="yes"/>
      <point x="68" y="106" smooth="yes"/>
      <point x="142" y="-17" smooth="yes"/>
      <point x="312" y="-17" type="curve" smooth="yes"/>
      <point x="389" y="-17" smooth="yes"/>
      <point x="505" y="20" smooth="yes"/>
      <point x="505" y="102" type="curve" smooth="yes"/>
      <point x="505" y="120"/>
      <point x="497" y="143"/>
      <point x="481" y="158" type="curve"/>
      <point x="449" y="89" smooth="yes"/>
      <point x="398" y="57" smooth="yes"/>
      <point x="331" y="57" type="curve" smooth="yes"/>
      <point x="234" y="57"/>
      <point x="178" y="135"/>
      <point x="176" y="284" type="curve"/>
      <point x="194" y="282" smooth="yes"/>
      <point x="212" y="281" smooth="yes"/>
    </contour>
    <contour>
      <point x="346" y="609" type="curve" smooth="yes"/>
      <point x="412" y="609" smooth="yes"/>
      <point x="444" y="567" smooth="yes"/>
      <point x="444" y="515" type="curve" smooth="yes"/>
      <point x="444" y="436" smooth="yes"/>
      <point x="368" y="345" smooth="yes"/>
      <point x="223" y="345" type="curve" smooth="yes"/>
      <point x="209" y="345"/>
      <point x="194" y="346"/>
      <point x="178" y="348" type="curve"/>
      <point x="188" y="452" smooth="yes"/>
      <point x="227" y="609" smooth="yes"/>
    </contour>
    <contour>
      <point x="488" y="849" type="curve" smooth="yes"/>
      <point x="519" y="871" smooth="yes"/>
      <point x="525" y="877" smooth="yes"/>
      <point x="525" y="890" type="curve" smooth="yes"/>
      <point x="525" y="902" smooth="yes"/>
      <point x="512" y="918" smooth="yes"/>
      <point x="468" y="918" type="curve" smooth="yes"/>
      <point x="455" y="918"/>
      <point x="440" y="917"/>
      <point x="421" y="913" type="curve"/>
      <point x="404" y="882"/>
      <point x="370" y="850"/>
      <point x="261" y="768" type="curve"/>
      <point x="270" y="750" smooth="yes"/>
      <point x="280" y="740" smooth="yes"/>
      <point x="288" y="740" type="curve" smooth="yes"/>
      <point x="308" y="740" smooth="yes"/>
      <point x="416" y="798" smooth="yes"/>
    </contour>
    <component  base="e"/>
    <component  base="acute" xOffset="144"/>
  </outline>
</glyph>
<glyph name="igrave" format="1">
  <advance width="332"/>
  <unicode hex="00EC"/>
  <outline>
    <contour>
      <point x="88" y="849" type="curve" smooth="yes"/>
      <point x="160" y="798" smooth="yes"/>
      <point x="269" y="740" smooth="yes"/>
      <point x="289" y="740" type="curve" smooth="yes"/>
      <point x="296" y="740"/>
      <point x="306" y="750"/>
      <point x="316" y="768" type="curve"/>
      <point x="207" y="850"/>
      <point x="172" y="882"/>
      <point x="155" y="913" type="curve"/>
      <point x="136" y="917" smooth="yes"/>
      <point x="121" y="918" smooth="yes"/>
      <point x="108" y="918" type="curve" smooth="yes"/>
      <point x="64" y="918" smooth="yes"/>
      <point x="51" y="902" smooth="yes"/>
      <point x="51" y="890" type="curve" smooth="yes"/>
      <point x="51" y="877" smooth="yes"/>
      <point x="57" y="871" smooth="yes"/>
    </contour>
    <component  base="dotlessi"/>
    <component  base="grave" xOffset="-102"/>
  </outline>
</glyph>
<glyph name="iacute" format="1">
  <advance width="332"/>
  <unicode hex="00ED"/>
  <outline>
    <contour>
      <point x="245" y="29" type="curve"/>
      <point x="212" y="65" smooth="yes"/>
      <point x="207" y="114" smooth="yes"/>
      <point x="207" y="166" type="curve" smooth="yes"/>
      <point x="207" y="308" smooth="yes"/>
      <point x="253" y="530" smooth="yes"/>
      <point x="253" y="597" type="curve" smooth="yes"/>
      <point x="253" y="653" smooth="yes"/>
      <point x="221" y="673" smooth="yes"/>
      <point x="186" y="673" type="curve" smooth="yes"/>
      <point x="167" y="673"/>
      <point x="134" y="664"/>
      <point x="119" y="650" type="curve"/>
      <point x="139" y="612" smooth="yes"/>
      <point x="140" y="563" smooth="yes"/>
      <point x="140" y="521" type="curve" smooth="yes"/>
      <point x="140" y="371" smooth="yes"/>
      <point x="98" y="243" smooth="yes"/>
      <point x="98" y="125" type="curve" smooth="yes"/>
      <point x="98" y="24" smooth="yes"/>
      <point x="129" y="-7" smooth="yes"/>
      <point x="176" y="-7" type="curve" smooth="yes"/>
      <point x="192" y="-7"/>
      <point x="220" y="0"/>
    </contour>
    <contour>
      <point x="315" y="849" type="curve" smooth="yes"/>
      <point x="346" y="871" smooth="yes"/>
      <point x="352" y="877" smooth="yes"/>
      <point x="352" y="890" type="curve" smooth="yes"/>
      <point x="352" y="902" smooth="yes"/>
      <point x="339" y="918" smooth="yes"/>
      <point x="295" y="918" type="curve" smooth="yes"/>
      <point x="282" y="918"/>
      <point x="267" y="917"/>
      <point x="248" y="913" type="curve"/>
      <point x="231" y="882"/>
      <point x="197" y="850"/>
      <point x="88" y="768" type="curve"/>
      <point x="97" y="750" smooth="yes"/>
      <point x="107" y="740" smooth="yes"/>
      <point x="115" y="740" type="curve" smooth="yes"/>
      <point x="135" y="740" smooth="yes"/>
      <point x="243" y="798" smooth="yes"/>
    </contour>
    <component  base="dotlessi"/>
    <component  base="acute" xOffset="-29"/>
  </outline>
</glyph>
<glyph name="icircumflex" format="1">
  <advance width="332"/>
  <unicode hex="00EE"/>
  <outline>
    <contour>
      <point x="245" y="29" type="curve"/>
      <point x="212" y="65" smooth="yes"/>
      <point x="207" y="114" smooth="yes"/>
      <point x="207" y="166" type="curve" smooth="yes"/>
      <point x="207" y="308" smooth="yes"/>
      <point x="253" y="530" smooth="yes"/>
      <point x="253" y="597" type="curve" smooth="yes"/>
      <point x="253" y="653" smooth="yes"/>
      <point x="221" y="673" smooth="yes"/>
      <point x="186" y="673" type="curve" smooth="yes"/>
      <point x="167" y="673"/>
      <point x="134" y="664"/>
      <point x="119" y="650" type="curve"/>
      <point x="139" y="612" smooth="yes"/>
      <point x="140" y="563" smooth="yes"/>
      <point x="140" y="521" type="curve" smooth="yes"/>
      <point x="140" y="371" smooth="yes"/>
      <point x="98" y="243" smooth="yes"/>
      <point x="98" y="125" type="curve" smooth="yes"/>
      <point x="98" y="24" smooth="yes"/>
      <point x="129" y="-7" smooth="yes"/>
      <point x="176" y="-7" type="curve" smooth="yes"/>
      <point x="192" y="-7"/>
      <point x="220" y="0"/>
    </contour>
    <contour>
      <point x="328" y="740" type="curve" smooth="yes"/>
      <point x="336" y="740"/>
      <point x="346" y="750"/>
      <point x="355" y="768" type="curve"/>
      <point x="292" y="830"/>
      <point x="255" y="894"/>
      <point x="246" y="907" type="curve"/>
      <point x="235" y="915" smooth="yes"/>
      <point x="215" y="918" smooth="yes"/>
      <point x="195" y="918" type="curve" smooth="yes"/>
      <point x="178" y="918"/>
      <point x="162" y="916"/>
      <point x="152" y="913" type="curve"/>
      <point x="135" y="882"/>
      <point x="115" y="850"/>
      <point x="6" y="768" type="curve"/>
      <point x="16" y="750" smooth="yes"/>
      <point x="26" y="740" smooth="yes"/>
      <point x="33" y="740" type="curve" smooth="yes"/>
      <point x="50" y="740"/>
      <point x="127" y="786"/>
      <point x="192" y="831" type="curve"/>
      <point x="262" y="775" smooth="yes"/>
      <point x="309" y="740" smooth="yes"/>
    </contour>
    <component  base="dotlessi"/>
    <component  base="circumflex" xOffset="-154"/>
  </outline>
</glyph>
